<svg width="570" height="287" viewBox="0 0 570 287" fill="none" xmlns="http://www.w3.org/2000/svg">
<path d="M112.915 189.755L112.984 189.888C114.688 189.888 116.323 189.814 117.701 190.209C119.729 189.946 121.37 190.804 123.515 190.605C123.852 190.539 123.91 190.605 124.244 190.803L124.519 190.662C124.896 190.86 125.761 190.742 126.285 190.927C127.122 190.993 128.107 190.861 128.698 191.256L130.143 191.315C130.143 191.396 130.206 191.396 130.206 191.462L130.604 191.315C130.925 191.586 131.512 191.315 131.908 191.586C132.619 191.784 133.549 191.719 134.192 191.917C134.192 191.982 134.275 191.982 134.275 192.039L134.469 191.917C134.588 192.113 134.993 191.982 135.241 192.039C135.183 192.113 135.241 192.179 135.317 192.179C135.454 192.179 136.106 192.238 136.434 192.312C136.756 192.438 137.349 192.312 137.543 192.438C137.481 192.438 137.737 192.503 137.737 192.378C138.074 192.567 138.723 192.504 138.914 192.642C139.773 192.766 140.756 192.964 141.273 193.156C142.067 193.156 142.718 193.486 143.51 193.552C144.223 193.808 145.012 193.808 145.799 194.014C145.734 194.078 145.799 194.138 145.862 194.138C146.06 193.881 146.118 194.203 146.323 194.276C146.912 194.276 147.634 194.204 148.022 194.598C148.42 194.526 148.549 194.796 148.816 194.864C148.816 194.797 148.886 194.797 148.886 194.738C149.86 194.864 150.71 195.184 151.764 195.324C151.823 195.259 151.764 195.06 151.823 195.002C152.482 195.385 152.994 195.061 153.662 195.514C154.646 195.712 155.691 195.78 156.539 196.108C159.938 196.768 162.962 197.55 166.431 198.144C166.826 198.342 167.415 198.342 167.81 198.524C168.854 198.467 169.246 199.251 170.367 199.052C170.5 199.25 171.023 198.993 171.15 199.25C172.857 199.383 174.491 199.712 176.003 200.106C178.475 200.363 179.924 201.147 182.488 201.147C182.609 201.418 183.062 201.147 183.198 201.418C184.046 201.285 184.574 201.806 185.432 201.614C185.432 201.873 185.762 201.681 185.959 201.747C185.892 201.806 185.959 201.806 186.024 201.873C186.214 201.806 187.057 202.009 187.258 201.937C188.441 202.077 189.363 202.53 190.741 202.53C191.136 202.992 192.241 202.589 192.695 203.057C193.553 202.861 194.936 203.381 195.518 203.242C196.174 203.571 197.56 203.445 198.397 203.643C198.397 203.71 198.468 203.71 198.468 203.769L198.864 203.643C198.8 203.71 198.864 203.71 198.928 203.769C199.381 203.643 200.034 204.106 200.828 203.9C201.283 204.106 201.74 204.106 202.325 204.106C202.325 204.165 202.325 204.165 202.389 204.23L202.594 204.106C203.05 204.23 203.446 204.304 204.041 204.304C204.889 204.363 205.614 204.559 206.584 204.559C206.522 204.624 206.584 204.692 206.648 204.692C206.78 204.428 207.175 204.881 207.438 204.559L207.84 204.624V204.559C209.606 204.757 212.159 204.692 214.249 204.881L214.514 204.757C214.514 204.817 214.573 204.817 214.573 204.881C214.777 204.493 214.975 205.079 215.231 204.757V204.817C218.383 204.692 220.339 204.559 223.559 204.494C223.69 204.305 224.005 204.429 224.268 204.429C226.899 204.107 229.381 204.305 231.944 203.572C233.775 203.446 235.611 202.862 237.503 202.722C237.576 202.531 238.092 202.796 238.17 202.531C239.272 202.664 239.737 202.01 240.85 202.136C240.976 201.938 241.44 202.077 241.503 201.874C242.681 201.542 244.117 201.542 245.302 201.147C246.364 201.029 247.398 200.766 248.314 200.363C249.224 200.239 250.146 200.034 251.067 199.844C251.719 199.513 252.51 199.317 253.353 199.249C254.216 198.921 255.131 198.796 255.982 198.466C257.03 198.401 257.677 197.808 258.729 197.808C258.934 197.353 259.717 197.682 259.904 197.287C261.222 197.226 261.874 196.43 263.254 196.372C266.661 195.323 269.803 193.881 273.204 192.643C273.595 192.314 274.19 192.181 274.716 192.041C275.493 191.588 276.815 190.607 277.799 191.464C278.262 192.115 278.188 193.089 278.387 193.955C277.537 194.737 277.141 195.513 276.168 196.106C275.43 196.832 274.328 197.226 273.595 197.807C273.204 198.003 273.01 198.4 272.629 198.662C272.299 198.722 272.029 198.991 271.839 199.183C271.056 199.512 270.327 199.909 269.803 200.567C268.96 201.146 268.235 201.747 267.312 202.134C265.814 203.175 264.177 204.105 262.662 205.078C262.149 205.416 261.42 205.473 261.03 206.065C259.718 206.718 258.601 207.508 257.359 208.292C256.514 208.621 255.925 209.069 254.995 209.274C254.801 209.537 254.407 209.604 254.151 209.792C253.559 209.992 253.028 210.321 252.511 210.725C252.123 210.784 251.786 211.045 251.466 211.113C250.679 211.641 249.49 211.699 248.841 212.417C248.119 212.55 247.59 212.944 246.872 213.136C246.542 213.463 245.896 213.531 245.568 213.86C245.425 213.86 245.303 213.793 245.238 213.86C245.238 214.065 244.909 213.991 244.843 214.124C244.843 214.065 244.786 214.065 244.786 213.991C244.455 214.182 244.19 214.33 244.059 214.577C244.059 214.387 243.788 214.519 243.663 214.446C242.887 214.842 242.426 215.434 241.44 215.567C241.246 215.829 240.711 215.894 240.258 216.02C239.605 216.218 239.077 216.547 238.358 216.73C237.124 216.877 236.201 217.529 235.017 217.785C233.637 218.313 232.139 218.642 230.692 219.097C230.232 218.971 229.579 219.352 228.986 219.426C227.88 219.886 226.702 220.216 225.448 220.349C224.533 220.547 223.43 220.744 222.576 221.068C222.17 221.001 221.984 221.264 221.717 221.323C221.717 221.264 221.654 221.197 221.654 221.197C219.17 221.652 216.81 222.238 214.25 222.509C212.881 222.838 211.237 222.838 209.934 223.169C209.934 223.096 209.856 223.029 209.856 223.029C209.281 223.225 208.495 223.169 207.905 223.293C207.761 222.963 207.761 223.491 207.571 223.293C205.931 223.55 204.042 223.358 202.524 223.696C202.39 223.225 201.935 223.746 201.485 223.696C201.019 223.944 200.624 223.358 200.182 223.746C198.724 223.886 197.603 223.491 196.175 223.615C196.175 223.55 196.175 223.55 196.11 223.491L195.905 223.615L195.845 223.491C194.732 223.293 193.166 223.696 192.242 223.225L192.171 223.292C191.323 223.168 190.336 223.095 189.423 223.168C189.423 223.095 189.363 223.028 189.363 223.028C188.515 223.168 187.452 222.837 186.605 222.631C184.97 222.376 183.061 222.435 181.696 221.849C180.713 221.975 180.196 221.322 179.139 221.52C178.744 221.196 177.959 221.52 177.631 221.196C177.111 221 176.321 221.067 175.796 220.927C175.796 220.868 175.736 220.801 175.736 220.801C175.197 220.927 174.561 220.546 173.957 220.413C173.309 220.604 173.185 220.011 172.518 220.28C172.46 220.01 172.063 220.28 172.005 220.01C170.621 219.951 169.573 219.241 168.141 219.241C167.215 219.095 166.49 218.838 165.71 218.574C165.12 218.515 164.988 218.376 164.396 218.376C164.396 218.31 164.396 218.243 164.323 218.243L164.135 218.376C163.945 218.186 163.415 218.31 163.356 217.981C161.779 217.526 160.274 217.262 158.637 216.94C158.245 216.67 157.65 216.472 157.266 216.405V216.472C157.058 216.15 156.275 216.405 156.077 216.017C155.294 216.084 154.964 215.49 154.175 215.629C154.175 215.564 154.114 215.489 154.114 215.489C153.858 215.629 153.455 215.225 152.993 215.358V215.225C152.54 215.297 152.218 214.837 151.763 215.036V215.225C151.298 215.168 150.903 214.97 150.372 214.97C149.858 214.648 149.13 214.573 148.483 214.382C148.357 214.325 148.16 214.442 147.955 214.442C147.955 214.061 147.369 214.326 147.306 214.178V214.243C144.813 213.204 142.066 212.683 139.378 212.017C137.28 211.637 135.453 210.904 133.475 210.318C132.824 210.318 132.43 210.187 131.909 210.061C131.909 209.989 131.909 209.921 131.844 209.863L131.514 209.989C131.059 209.534 129.957 209.922 129.486 209.469C128.972 209.402 128.699 209.402 128.175 209.272C128.175 209.205 128.108 209.205 128.108 209.139C127.982 209.402 127.584 209.006 127.26 209.139C127.26 209.067 127.26 209.006 127.193 209.006C125.429 209.139 123.792 208.224 121.756 208.413C121.565 208.224 121.034 208.289 120.778 208.091C120.247 208.158 119.73 207.829 119.401 207.96C117.242 207.564 114.428 207.25 112.069 206.904C111.08 207.045 110.099 206.524 108.916 206.715L108.854 206.583L105.177 206.524C105.177 206.45 105.112 206.45 105.112 206.393L104.925 206.524C104.782 206.26 104.265 206.524 104.131 206.26C102.039 206.128 101.195 206.524 99.421 206.194L99.164 206.393V206.327C98.04 206.261 96.206 206.194 94.898 206.393L94.829 206.26C94.308 206.524 93.583 206.326 92.94 206.393C92.998 206.327 92.94 206.327 92.859 206.26L92.545 206.393C92.545 206.327 92.545 206.327 92.482 206.26C92.406 206.524 92.208 206.326 92.014 206.26C90.71 206.524 88.999 206.714 87.893 206.78C87.637 206.847 87.234 206.715 87.163 206.977C86.581 206.78 85.923 207.044 85.27 207.102C85.33 207.044 85.27 207.044 85.201 206.977C85.135 207.102 85.007 207.102 84.875 206.977L84.817 207.102C83.769 206.904 82.904 207.504 82.121 207.301C82.121 207.249 82.059 207.168 82.059 207.168C81.996 207.168 81.924 207.168 81.924 207.249C81.924 207.301 81.213 207.301 81.008 207.432L80.678 207.365V207.432C79.301 207.365 77.478 207.504 76.225 208.018C74.393 208.09 73.018 208.478 71.319 208.676C71.183 209.066 70.534 208.617 70.454 209.138C69.678 208.948 69.48 209.601 68.695 209.468C67.773 209.988 66.465 210.061 65.546 210.581C64.895 210.64 64.632 210.903 64.112 211.041C63.972 211.041 63.837 211.041 63.714 211.108C63.517 211.232 63.261 211.363 62.928 211.436C62.008 211.891 60.837 212.089 59.915 212.682C59.519 212.806 59.007 212.865 58.669 213.203C57.688 213.584 56.78 214.242 55.588 214.44C55.337 215.034 54.611 214.777 54.413 215.223C53.953 215.295 53.491 215.295 53.365 215.685C52.718 215.955 51.792 215.888 51.4 216.469C50.811 216.607 50.159 216.937 49.825 217.202V217.12C48.585 217.851 47.279 218.512 46.021 219.163C45.113 219.822 44.19 220.343 43.142 220.796C42.75 221.191 42.234 221.316 41.766 221.646C38.299 223.88 35.221 226.692 31.882 229.05C31.161 229.447 30.37 229.967 29.717 230.502C28.671 231.219 28.011 232.134 27.03 232.851C26.575 232.984 26.24 233.512 25.843 233.892C25.002 234.362 24.474 235.342 23.558 235.788C23.303 236.265 22.84 236.587 22.248 236.718C21.393 236.844 21.075 236.323 20.553 235.936C19.439 234.682 20.672 233.306 20.351 231.607C20.614 229.967 20.937 228.466 22.181 227.411V227.278C23.233 226.304 24.151 225.455 25.074 224.473C25.074 224.333 25.401 224.333 25.462 224.202C27.161 222.503 28.934 221.19 30.768 219.74C31.882 219.032 32.724 218.11 33.906 217.449C34.178 217.061 34.69 216.936 34.947 216.541C35.084 216.343 35.418 216.541 35.418 216.212C36.007 216.014 36.462 215.486 36.997 215.166C37.447 214.835 37.838 214.645 38.099 214.176C38.689 213.985 38.948 213.399 39.537 213.259C41.446 211.636 43.734 210.522 45.705 208.873C46.628 208.287 47.598 207.694 48.642 207.167C49.903 206.259 51.14 205.41 52.582 204.685V204.487C53.293 204.422 54.018 203.828 54.545 203.309C55.13 203.309 55.397 202.656 55.921 202.714C56.449 202.333 57.232 202.187 57.687 201.675C58.405 201.608 58.8 201.08 59.594 201.08C60.502 199.959 62.334 200.164 63.318 199.118L63.379 199.177C63.459 198.789 64.176 199.118 64.176 198.656C64.894 198.854 65.033 198.195 65.684 198.195C66.266 198.069 66.728 197.8 67.259 197.478C67.771 197.219 68.301 197.014 68.893 196.825C69.023 196.825 68.954 196.687 68.954 196.627C69.881 196.76 70.128 196.1 70.924 196.1C71.77 195.45 73.088 195.45 73.996 194.922C74.911 194.658 75.637 194.196 76.681 194.131C77.072 193.743 77.859 193.743 78.316 193.421C79.17 193.223 79.949 193.082 80.807 192.893C81.134 192.695 81.862 192.893 81.993 192.498C82.901 192.174 84.089 192.174 85.005 191.779C85.328 191.779 85.655 191.779 85.979 191.653C86.242 191.653 86.901 191.391 87.495 191.457C88.346 191.252 89.132 190.989 90.048 190.856C90.374 190.798 91.225 190.658 91.751 190.534C92.08 190.6 92.798 190.411 93.395 190.469C93.524 190.204 94.048 190.469 94.177 190.271L94.572 190.336C94.897 190.271 95.352 190.081 95.812 190.081V189.941C96.927 189.808 98.232 190.006 99.28 189.75C99.75 189.809 100.138 190.138 100.54 189.678C101.053 190.007 102.038 189.554 102.884 189.611C106.355 189.559 109.507 189.615 112.915 189.755Z" fill="#004087"/>
<path d="M257.558 232.139C257.679 231.999 257.884 232.256 258.074 232.256L258.344 232.659C257.946 232.731 258.473 232.731 258.344 232.988C258.268 234.102 258.147 235.808 257.03 236.393C254.8 238.752 252.445 240.649 249.816 242.421C247.076 244.242 244.584 246.287 241.701 247.987C241.833 248.316 241.441 248.059 241.37 248.176C240.455 248.636 239.796 249.494 238.683 249.75C238.493 250.212 237.697 250.212 237.379 250.543C236.595 251.332 235.351 251.53 234.486 252.248C233.647 252.636 232.852 253.228 232.004 253.551C231.491 254.078 230.626 254.277 230.099 254.738C229.182 254.863 228.67 255.398 228.004 255.844C225.914 256.826 223.821 257.749 221.655 258.671C220.999 259.059 220.277 259.257 219.624 259.586C218.579 259.71 217.853 260.172 216.945 260.429C216.483 261.088 215.099 260.7 214.909 261.548L214.843 261.286C214.778 261.681 213.797 261.482 213.599 261.879C212.554 262.201 211.826 262.853 210.655 262.928C210.522 263.381 209.857 263.051 209.6 263.381C208.751 263.776 207.571 263.703 206.722 264.105C205.541 264.427 204.418 264.955 203.118 265.086C202.526 265.417 201.943 265.606 201.225 265.738C200.625 265.548 200.239 266.127 199.907 265.927C199.845 266.192 199.322 265.927 199.251 266.192C198.134 266.332 197.028 266.528 196.044 266.852C194.93 266.793 194.131 267.443 192.831 267.314L192.769 267.443C191.196 267.24 190.015 267.702 188.576 267.839C188.515 267.839 187.988 267.839 187.789 268.029C186.408 268.029 185.167 268.162 183.926 268.361C183.469 268.295 182.547 268.361 181.893 268.361L181.835 268.492C180.773 268.295 179.472 268.815 178.884 268.551C178.417 268.816 177.638 268.492 177.17 268.749H176.576C176.576 268.69 176.518 268.69 176.518 268.69C176.262 268.617 176.001 268.952 175.667 268.69C175.533 268.895 175.199 268.749 174.942 268.749L174.884 268.69H173.049C173.049 268.617 172.988 268.55 172.988 268.55L172.733 268.69C172.733 268.492 172.526 268.55 172.461 268.55C172.321 268.55 172.399 268.69 172.399 268.748C170.953 268.689 169.839 268.491 168.337 268.491V268.294C167.217 268.491 165.898 268.228 164.792 268.096C164.28 268.228 163.613 268.029 163.02 268.029V267.963C162.643 268.029 162.04 267.494 161.386 267.701C161.386 267.64 161.386 267.64 161.321 267.575C160.402 267.64 159.159 267.494 158.171 267.239C157.783 267.18 156.998 267.442 156.794 266.982C155.616 266.982 154.567 266.851 153.601 266.455C153.264 266.527 152.736 266.527 152.481 266.331C152.151 266.396 152.086 266.259 151.82 266.191L151.557 266.455C151.227 266.259 150.641 266.396 150.319 266.191C150.319 266.126 150.319 266.074 150.254 266.074L150.056 266.191C149.928 266.006 149.597 266.006 149.335 266.006C148.158 265.604 147.433 265.415 146.122 265.217C145.54 264.887 144.676 264.887 144.029 264.623C143.633 264.235 142.643 264.557 142.259 264.102C141.867 264.102 141.216 263.962 140.697 263.773C140.36 263.906 140.23 263.509 140.03 263.575C139.246 263.635 138.654 263.049 137.674 263.049C136.432 262.587 134.923 262.528 133.742 262.008C132.363 261.731 131 261.357 129.74 260.962C126.152 259.518 121.824 259.057 117.825 258.2C117.572 258.017 117.107 258.135 116.851 257.945C116.184 258.135 116.059 257.541 115.408 257.747C115.145 257.541 114.55 257.686 114.277 257.425C113.438 257.35 112.716 256.97 111.732 257.086C109.762 256.559 107.477 256.437 105.448 256.112C105.053 255.841 104.393 256.047 103.932 255.909C102.357 255.718 100.937 255.395 99.358 255.132C96.856 255.001 95.289 254.597 92.998 254.34C92.998 254.538 92.798 254.407 92.679 254.473C92.679 254.408 92.601 254.34 92.601 254.34L92.404 254.473C92.345 254.142 92.148 254.538 91.951 254.473C91.1 254.275 89.98 254.34 89.135 254.142H88.015C88.015 254.077 87.952 254.077 87.952 254.011C87.498 254.142 87.294 253.946 86.774 254.142C86.774 253.946 86.516 254.077 86.378 254.011C86.378 254.275 86.121 254.077 85.983 254.142L85.922 254.011L81.796 253.946C81.796 253.946 81.796 253.881 81.735 253.881C81.668 254.012 81.528 254.012 81.402 253.881L81.335 253.946L72.623 254.011L72.565 254.142C70.595 253.82 69.423 254.736 67.51 254.538C65.49 254.86 63.262 254.677 61.359 255.328C60.181 255.19 59.657 255.842 58.475 255.718C58.342 255.909 57.826 255.651 57.628 255.909C56.189 255.988 55.01 256.502 53.629 256.705C53.305 256.896 52.587 256.705 52.39 257.086C51.342 257.292 50.162 257.35 49.239 257.813C48.646 258.018 47.995 258.34 47.343 258.399C45.248 258.926 43.483 259.776 41.514 260.427C40.861 261.019 39.876 261.086 39.148 261.546C38.496 261.613 38.174 262.008 37.587 262.141C37.316 262.529 36.664 262.471 36.408 262.851C34.181 264.103 31.816 265.217 29.654 266.455C29.199 266.653 28.736 266.915 28.352 267.113C27.62 267.64 26.836 267.897 26.115 268.491C26.046 268.491 25.921 268.417 25.848 268.55C25.985 268.895 25.59 268.616 25.525 268.748C23.428 270.125 21.335 271.508 19.307 272.81C18.451 273.802 17.209 274.386 16.355 275.374C14.912 276.349 14.005 277.727 12.361 278.642C11.317 279.754 10.071 280.473 9.15499 281.66C7.90099 283.03 6.26298 283.68 5.15698 285.188C4.70198 285.454 4.23498 285.788 3.84398 286.177C2.27098 286.623 1.55299 285.65 0.696993 284.933C0.112993 283.623 0.299992 281.66 0.504992 280.282C0.567992 280.282 0.636981 280.223 0.636981 280.223C0.504981 279.754 0.886994 279.103 0.959994 278.575C2.00799 277.264 2.99199 276.151 3.96999 274.84C4.17499 274.914 4.23499 274.718 4.31099 274.578C4.70199 274.197 5.35499 273.859 5.60999 273.209C6.40799 272.811 6.85598 271.956 7.58098 271.508V271.368C8.42998 271.246 8.69498 270.386 9.21898 269.933C9.74198 269.802 10.071 269.275 10.458 269.077C11.579 267.76 12.892 266.982 14.063 265.81C13.937 265.546 14.385 265.737 14.458 265.472C16.092 263.774 18.124 262.529 19.897 260.962C20.486 260.5 21.072 259.974 21.533 259.518C21.79 259.643 21.995 259.314 21.995 259.255C23.166 258.457 24.279 257.483 25.393 256.64C28.014 255.132 30.574 253.486 33.12 251.784C34.635 250.804 36.599 250.276 38.043 249.237C38.635 249.098 39.09 248.709 39.602 248.438C40.133 248.314 40.401 247.787 40.991 247.719C41.317 247.399 41.975 247.2 42.37 246.944C43.799 246.211 45.373 245.554 46.883 244.901C47.212 244.448 47.996 244.448 48.456 244.126C49.694 243.787 50.618 243.21 51.796 242.748C52.588 242.55 53.306 242.345 53.957 242.022C54.751 241.503 55.602 241.305 56.579 241.041C57.355 240.712 58.089 240.383 59.07 240.322C59.788 239.993 60.509 239.731 61.362 239.605C61.75 239.327 62.22 239.327 62.614 239.13C63.325 239.07 63.918 238.806 64.578 238.616C65.419 238.352 66.46 238.352 67.257 237.956C68.499 237.503 70.144 237.636 71.25 237.048C73.477 236.721 76.369 236.39 78.792 236.127C80.55 236.127 81.799 235.672 83.699 235.805C83.764 235.615 84.026 235.731 84.226 235.672C84.485 235.861 84.949 235.805 85.274 235.731V235.672C85.863 235.861 86.711 235.805 87.365 235.731C87.296 235.805 87.633 235.862 87.633 235.672L87.698 235.805C89.983 235.615 91.825 236.193 94.051 235.994C94.179 236.266 94.64 235.994 94.704 236.266C94.97 236.193 95.354 236.325 95.498 236.127C96.15 236.324 96.859 236.127 97.849 236.266C99.361 236.325 100.665 236.721 102.302 236.588C102.24 236.653 102.302 236.653 102.302 236.721L102.503 236.588C102.969 236.786 103.48 236.653 104.073 236.786C104.338 236.924 104.919 236.924 105.113 236.843C105.509 237.048 106.238 236.983 106.693 237.174L107.94 237.248C107.94 237.313 107.94 237.313 108.004 237.377L108.267 237.248C108.331 237.437 108.594 237.313 108.798 237.377C108.725 237.438 108.798 237.438 108.798 237.438C109.113 237.109 109.311 237.569 109.706 237.503C110.557 237.438 111.282 237.701 112.188 237.701C114.22 238.03 116.326 238.294 118.414 238.616C119.731 238.953 121.175 239.07 122.485 239.399C123.595 239.326 124.119 239.809 125.175 239.809C125.566 240.059 126.346 239.992 126.869 240.192C127.587 239.992 128.441 240.587 129.355 240.381C129.825 240.446 130.414 240.645 130.931 240.849C132.443 241.105 134.08 241.172 135.516 241.502C135.642 241.567 136.044 241.567 135.97 241.502C136.63 241.441 136.96 241.757 137.679 241.7C137.805 241.955 138.271 241.757 138.337 242.02C139.062 241.822 139.314 242.284 140.036 242.153C140.429 242.284 140.893 242.417 141.352 242.489C141.478 242.746 141.931 242.489 142.131 242.68C142.131 242.746 142.131 242.746 142.196 242.746C142.592 242.68 143.179 243.003 143.774 242.942C144.291 243.325 144.753 243.075 145.413 243.325C146.2 243.405 146.782 243.589 147.639 243.661C148.093 243.859 148.546 244.057 149.213 243.918C149.666 244.124 150.326 244.057 150.774 244.238C151.044 244.238 151.497 244.577 151.827 244.313V244.124C153.138 244.189 154.183 244.645 155.365 244.899C156.15 244.773 157.196 245.089 157.995 245.235C158.771 245.361 159.437 245.492 160.152 245.631C161.195 245.552 161.727 245.96 162.711 245.96C162.829 246.282 162.961 245.886 163.164 245.96C164.33 246.086 165.333 246.481 166.703 246.406C166.703 246.48 166.769 246.539 166.769 246.539C167.619 246.348 168.542 246.869 169.587 246.736C170.035 246.941 170.695 246.801 171.149 247C172.072 246.941 172.467 247.396 173.448 247.396C173.58 247.601 173.903 247.461 174.158 247.461C174.1 247.52 174.158 247.601 174.232 247.601C174.359 247.335 174.948 247.915 175.091 247.461C175.205 247.856 175.615 247.461 175.802 247.659C175.871 247.981 176.07 247.6 176.268 247.659C178.553 248.31 181.508 248.054 183.676 248.376C184.581 248.243 184.581 248.435 185.569 248.243C185.965 248.631 186.807 247.981 187.458 248.376H188.323C188.378 248.705 188.378 248.171 188.643 248.376C189.231 248.243 189.696 248.574 190.081 248.509C190.414 248.243 190.946 248.435 191.399 248.376V248.435C191.854 248.706 192.645 248.113 193.294 248.509C193.825 248.171 194.605 248.631 195.007 248.435C195.136 248.376 195.527 248.311 195.589 248.509C197.61 248.113 199.984 248.311 202.137 248.054C202.601 247.914 203.125 247.856 203.714 247.914L203.908 247.783V247.855C204.827 247.783 205.872 247.715 206.794 247.46V247.519C207.577 247.46 208.493 247.334 209.351 247.197V247.262C210.131 246.998 211.314 246.998 212.167 246.735C213.079 246.678 213.804 246.281 214.85 246.346C215.44 245.884 216.345 246.084 217.142 245.753C217.728 245.818 218.126 245.55 218.651 245.489C220.022 245.358 221.135 244.77 222.255 244.714C222.973 244.376 223.624 244.187 224.482 243.981C225.851 243.916 226.963 243.519 228.144 243.206C229.458 243.073 230.168 242.282 231.556 242.282C232.406 241.755 233.585 241.698 234.494 241.234C235.146 240.971 235.878 240.78 236.401 240.379C237.183 240.517 237.445 239.924 238.229 240.057C238.566 239.859 238.888 239.859 239.209 239.728C239.279 239.924 239.546 239.478 239.675 239.478C241.568 238.876 243.201 238.028 245.114 237.435C245.431 237.311 245.764 237.171 246.16 237.045C246.952 236.52 248.065 236.321 248.906 235.802C251.199 234.682 253.692 233.634 255.929 232.394C256.308 232.073 257.104 232.33 257.558 232.139Z" fill="#004087"/>
<path d="M286.361 1.13904C287.137 2.37704 285.761 3.43003 285.366 4.47803C284.724 5.06203 284.52 5.92103 284.201 6.70403C283.931 7.68603 283.872 8.80004 283.67 9.78104C283.148 10.367 283.148 11.282 282.627 11.941C281.828 12.469 281.249 13.319 280.855 14.169C280.58 14.307 280.459 14.557 280.265 14.827C277.632 17.515 275.219 20.328 272.6 22.876C272.34 23.272 271.949 23.742 271.612 24.004C269.327 26.414 267.357 28.919 265.131 31.268C264.873 31.335 264.812 31.599 264.603 31.796C263.16 33.437 261.586 34.939 260.089 36.44C259.174 37.692 258.06 38.673 256.943 39.919C256.678 40.249 256.481 40.512 256.166 40.834C255.182 42.013 254.384 43.06 253.207 44.107C252.559 45.031 251.706 45.94 250.79 46.671C250.329 47.388 249.539 47.645 249.213 48.436C248.028 49.872 246.528 51.182 245.28 52.618C245.151 53.086 244.499 53.211 244.499 53.739C243.774 54.39 242.99 54.916 242.272 55.635C242.405 55.892 242.137 55.775 242.067 55.892C240.829 57.143 239.592 58.514 238.54 59.897C237.679 59.957 237.881 61.003 237.094 61.143C236.167 62.841 234.406 63.494 233.359 65.142C232.964 65.201 232.897 65.662 232.641 65.917C231.463 66.774 231 67.953 229.762 68.736C229.229 69.784 228.324 70.37 227.595 71.358C226.35 72.992 224.774 74.302 223.333 75.752V75.871C223.072 75.944 222.942 76.266 222.745 76.464C221.764 77.247 221.229 78.36 220.263 79.21C218.878 80.265 218.157 81.839 216.917 82.953C216.777 83.348 216.066 83.283 216.324 83.869C215.675 84.058 215.342 84.651 214.947 85.179C214.296 85.634 213.768 86.293 213.313 86.813C212.989 87.009 212.663 87.208 212.588 87.595C210.824 89.038 209.714 90.812 207.952 92.255C206.708 93.624 205.265 94.934 204.143 96.509C203.815 96.568 203.756 96.904 203.557 97.102C202.642 97.95 201.922 98.998 200.798 99.659C199.222 101.422 197.725 103.386 195.952 104.894C195.825 105.347 194.968 105.882 194.712 106.409C193.861 107.324 193.136 108.3 192.023 109.017C191.833 109.486 191.301 109.748 191.107 110.203L190.852 110.527V110.402C190.195 110.79 190.325 111.119 189.797 111.712C188.617 112.951 187.244 114.063 186.26 115.44C184.759 117.411 183.047 119.05 181.489 120.948C181.086 121.475 180.503 121.672 180.171 122.391C178.867 123.372 178.139 124.42 177.158 125.723C176.563 125.985 176.103 126.704 175.519 127.106C175.325 127.502 174.799 127.766 174.799 128.28C173.491 129.788 171.981 131.098 170.807 132.673C170.477 132.797 170.338 133.268 170.017 133.45C169.551 133.788 169.489 134.373 169.036 134.643C168.646 134.9 168.251 135.031 168.251 135.691C167.992 135.748 167.856 136.071 167.659 136.275C167.006 136.928 166.09 137.711 165.432 138.568C164.846 139.485 163.794 140.466 163.066 141.321C162.678 141.321 162.751 141.719 162.48 141.776C161.565 142.897 160.262 144.004 159.54 145.181C158.416 146.494 156.98 147.607 155.932 149.115C155.08 149.767 154.696 150.948 153.769 151.473C151.875 153.899 149.769 155.928 148.067 158.352C146.441 160.19 145.055 162.211 143.544 164.247C141.586 165.952 139.425 167.131 137.389 168.772C136.943 168.955 136.865 168.574 136.606 168.441C136.209 167.784 136.606 166.339 136.481 166.01C136.546 164.048 138.517 163.191 138.832 161.295C138.576 161.036 139.088 160.634 138.965 160.188C139.088 159.47 139.297 158.672 139.562 158.091C139.623 156.246 140.276 154.877 140.54 153.171C140.805 152.841 140.935 152.387 141.121 151.991C141.792 150.745 142.245 149.244 143.286 148.197C143.426 147.802 143.623 147.341 143.936 147.004C144.669 146.03 145.057 145.05 145.965 144.198C146.172 143.736 147.02 143.803 146.826 142.953C147.878 142.493 148.006 141.246 148.991 140.726C148.991 140.141 149.709 140.009 149.835 139.483C150.629 138.699 151.613 138.047 152.202 137.058C152.668 136.86 152.784 136.334 153.179 136.15C153.506 135.491 154.087 135.162 154.359 134.576C155.545 133.787 156.194 132.533 157.113 131.625C157.513 131.303 157.831 130.768 158.161 130.314C158.358 130.378 158.417 130.181 158.417 130.049C159.265 129.194 159.994 128.417 160.716 127.427C161.1 127.23 161.365 126.777 161.698 126.382C162.356 125.984 162.679 125.143 163.342 124.741C163.268 124.483 163.462 124.616 163.601 124.55C164.509 123.371 165.755 122.447 166.615 121.335C167.006 121.475 166.675 120.947 167.006 120.947C168.841 118.983 170.735 117.204 172.569 115.182C173.038 114.918 173.159 114.259 173.687 113.93C175.789 111.514 178.205 109.015 180.234 106.666C181.551 105.552 182.79 104.042 184.155 102.989C184.496 102.667 184.819 102.41 185.078 102.015C185.865 101.025 186.851 100.374 187.835 99.452C187.974 98.997 188.619 98.677 188.941 98.214C189.213 98.082 189.468 97.818 189.609 97.495C190.062 97.429 190.062 96.713 190.656 96.638C191.11 96.119 191.44 95.459 192.026 95.071C192.289 95.137 192.289 94.931 192.348 94.807C192.213 94.485 192.683 94.676 192.683 94.485C192.882 94.281 193.006 93.958 193.211 93.883V93.958C193.472 93.365 194.38 93.234 194.585 92.515C197.463 89.827 199.958 86.554 202.967 83.866C203.688 82.95 204.74 82.094 205.523 81.185C206.381 79.94 207.875 78.885 208.604 77.573C208.937 77.442 209.127 77.12 209.383 76.856C210.112 76.073 210.554 75.355 211.481 74.628C212.071 73.971 212.59 73.253 213.254 72.592C213.645 71.949 214.564 71.612 214.751 70.829C214.891 70.829 215.018 70.507 215.018 70.762C215.799 69.98 216.393 69.254 217.036 68.411C217.707 68.28 217.835 67.423 218.429 67.225C219.01 66.375 219.804 65.915 220.329 64.992C221.233 64.217 221.962 63.225 222.946 62.641C222.946 62.253 223.401 62.31 223.481 61.99C224.522 60.745 225.826 59.573 226.88 58.321C227.718 57.997 227.926 57.14 228.719 56.745C228.587 56.423 229.037 56.614 228.975 56.291C229.627 55.77 229.959 55.11 230.741 54.577C230.674 54.458 230.809 54.458 230.946 54.386C231.399 53.8 231.916 53.148 232.447 52.686C233.305 51.507 234.347 50.783 235.069 49.611C235.779 49.216 236.11 48.49 236.637 47.904C237.559 47.582 237.75 46.667 238.602 46.204C239.521 45.151 240.701 44.434 241.491 43.187C242.927 42.073 243.981 40.894 245.283 39.525C246.201 38.397 247.256 37.744 248.171 36.705C249.874 34.603 251.899 32.838 253.47 30.671C253.994 30.34 254.199 29.826 254.788 29.63C254.712 29.366 255.245 29.424 255.108 29.037C255.313 29.097 255.374 29.037 255.44 28.913V28.766C255.705 28.708 255.833 28.378 256.03 28.189C257.334 27.207 258.062 25.888 259.237 24.839C259.502 24.839 259.568 24.444 259.758 24.32C260.286 23.736 261 23.075 261.531 22.489C261.851 21.633 262.445 21.238 263.097 20.717L263.302 20.322L263.36 20.379C264.211 19.662 265.005 18.747 265.587 17.84C265.924 17.765 265.924 17.434 266.182 17.245C267.953 15.209 269.851 13.568 271.485 11.417C272.272 10.303 273.315 9.45404 274.301 8.39104C275.16 7.68104 275.945 6.82403 276.801 6.04903C277.911 5.25603 278.75 4.20204 279.885 3.36704C279.943 3.36704 280.069 3.42504 280.133 3.29404C280.405 2.70804 281.254 2.62704 281.709 2.17304C282.162 1.57804 282.823 1.39803 283.411 1.13303C284.201 0.668032 285.64 0.668044 286.361 1.13904Z" fill="#E0000C"/>
<path d="M318.056 4.86605C318.516 5.31905 319.435 5.26106 319.963 5.64906C320.813 5.52606 320.947 6.44205 321.73 6.57305C322.704 6.83005 323.239 7.48806 324.147 7.88406C327.434 9.90506 330.115 13.0531 333.249 15.0171C333.578 15.2231 333.649 15.6781 334.113 15.6101C334.634 16.4031 335.476 16.4691 335.945 17.2441C337.052 18.0411 337.916 19.0821 339.159 19.6751C339.747 20.5911 340.731 21.1111 341.577 21.7641C342.962 22.6861 344.197 23.929 345.699 24.788C346.884 26.231 348.718 26.6191 349.955 28.0611C350.408 28.3161 350.682 28.7801 351.207 28.9701C352.122 29.7011 352.852 30.609 353.838 31.137C355.405 32.119 356.584 33.4291 358.217 34.4101C358.682 34.8051 359.116 35.3911 359.789 35.6571C359.916 36.0521 360.242 36.1841 360.447 36.4471C362.734 37.8241 364.303 39.8531 366.528 41.2961C366.736 41.6841 367.389 41.684 367.579 42.137C369.274 43.589 371.123 44.8991 372.695 46.3931C373.875 47.1241 374.919 47.9081 375.974 48.8241C377.281 49.8721 378.387 51.0501 379.781 51.9011C380.949 52.7581 382.053 53.7391 383.056 54.6541C383.492 54.9181 384.219 55.4371 384.684 55.9571C385.665 56.8881 386.918 57.736 388.024 58.521C389.594 60.286 391.883 61.1431 393.399 62.9741C393.845 63.0401 393.991 63.567 394.447 63.633C394.506 64.021 395.033 64.021 395.29 64.286C396.278 65.267 397.394 65.8601 398.441 66.8411C399.157 66.9651 399.486 67.8871 400.139 67.9481C400.661 68.8631 401.844 69.258 402.43 70.174C403.03 70.832 403.942 71.1631 404.592 71.7561C406.365 73.3881 408.395 74.698 410.168 76.275C410.886 76.788 411.35 77.447 412.134 77.842C412.911 78.89 414.286 79.4831 415.271 80.4661C415.665 80.7861 416.061 81.0511 416.529 81.3821C416.778 81.5781 417.18 81.7101 417.435 81.9011C417.435 82.2371 417.833 82.1651 417.892 82.4291C419.4 83.5501 420.571 84.9271 422.087 86.0321C425.023 88.5211 427.983 91.1431 430.993 93.6341C433.291 95.2761 435.514 97.6921 438.009 99.3321C438.137 100.051 438.858 100.116 439.247 100.644C440.355 101.172 440.887 102.087 442 102.68C443.307 103.99 444.886 104.964 446.46 106.077C447.769 107.527 449.472 108.568 450.851 109.937C451.424 110.217 451.763 110.808 452.276 111.132C452.349 111.322 452.473 111.132 452.55 111.058C453.534 111.98 454.653 112.83 455.705 113.753C456.941 114.925 458.375 115.649 459.621 116.83C459.877 117.29 460.344 117.678 460.861 118.009C461.986 118.983 463.224 119.972 464.331 121.077C464.804 121.282 465.122 121.861 465.583 122.065C465.779 122.396 466.103 122.461 466.3 122.784H466.498C467.815 124.094 469.12 125.348 470.035 126.914C470.283 127.243 470.498 127.822 470.764 128.159C471.816 129.793 472.134 132.217 471.816 134.31C471.683 134.641 471.611 135.101 471.345 135.294C471.025 136.018 470.367 136.611 470.034 137.328C469.588 137.328 469.709 137.725 469.445 137.921C468.979 138.245 468.469 138.5 468.211 138.96C467.545 139.16 467.216 139.891 466.695 140.074C466.566 140.536 466.235 140.669 465.845 140.865C464.41 141.78 463.223 142.959 461.788 143.809C461.193 144.14 460.603 144.329 460.133 144.731C459.164 144.981 458.637 145.91 457.72 146.232C456.543 147.024 455.226 147.544 454.046 148.268H454.124V148.459H454.046C454.046 148.394 453.986 148.394 453.986 148.326C453.649 148.655 453.079 148.599 452.804 148.986C452.427 149.175 452.017 149.256 451.627 149.439C451.039 149.374 451.039 150.035 450.456 149.967C450.118 150.362 449.401 150.488 448.882 150.56C448.082 151.081 447.109 151.205 446.194 151.599C445.41 151.863 444.29 151.664 443.493 151.995V152.06C443.178 151.862 442.524 151.862 442.261 152.06L441.928 151.929L441.866 152.06C440.745 152.199 440.107 151.803 439.049 151.929C438.724 151.663 438.006 151.994 437.732 151.663L436.492 151.598C436.492 151.541 436.432 151.481 436.432 151.481C435.897 151.598 435.121 151.276 434.59 151.08C433.732 151.08 433.16 150.882 432.432 150.683C432.294 150.228 431.841 150.361 431.506 150.156C431.072 150.091 430.734 149.768 430.203 149.826C429.872 149.373 429.351 149.255 428.831 149.175C426.676 148.325 424.633 147.147 422.736 146.034C422.404 145.975 422.085 145.775 421.886 145.513C421.433 145.38 421.235 144.794 420.721 144.729C420.048 144.465 419.799 143.879 419.131 143.667C418.876 143.345 418.29 143.219 418.02 142.832C417.831 142.832 417.831 142.437 417.492 142.57C417.3 142.372 417.178 141.977 416.845 141.844C416.314 141.911 416.181 141.384 415.861 141.127C415.142 140.989 414.953 140.013 414.03 140.013C413.966 139.684 413.633 139.684 413.437 139.413C411.279 138.044 409.635 136.207 407.803 134.447C407.348 134.243 407.021 133.79 406.625 133.525C406.424 133.196 406.162 132.872 405.775 132.668C404.46 131.299 402.884 130.193 401.508 128.883C401.652 128.552 401.253 128.677 401.19 128.619C400.786 128.157 400.333 127.629 399.742 127.241C398.835 125.938 397.517 125.079 396.591 123.96C396.276 123.769 396.151 123.374 395.815 123.11C394.959 122.648 394.445 121.478 393.654 121.074C393.201 120.496 392.611 119.902 392.08 119.316C391.762 119.435 391.956 119.054 391.685 119.11C391.032 118.526 390.38 117.609 389.538 117.214C389.265 117.024 389.143 116.686 388.939 116.364C388.22 115.895 387.883 115.118 387.172 114.527C386.58 114.401 386.386 113.612 385.911 113.28C385.458 112.759 384.888 112.292 384.551 111.846C383.174 110.534 381.871 109.222 380.621 107.781C379.702 107.195 379.304 106.338 378.464 105.686C378.187 105.217 377.93 104.895 377.477 104.638C376.425 103.846 375.766 102.809 374.855 101.818C374.071 101.168 373.419 100.449 372.63 99.7181C372.556 99.3941 372.233 99.1971 372.038 99.0651C371.376 98.1591 370.204 97.4241 369.478 96.5761C368.1 95.3971 367.194 94.0271 365.752 92.9061C365.164 92.1891 364.435 91.4071 363.713 90.8131C361.949 88.7091 360.044 86.9531 358.149 84.9831C357.757 84.7191 357.424 84.3311 357.167 83.8691C356.457 83.1501 355.595 82.6971 354.942 81.7741C353.752 80.4641 352.32 79.4161 351.205 78.1041C348.916 76.0701 346.676 73.6531 344.328 71.5571C343.735 70.5691 342.82 69.9091 342.036 69.0751C340.466 67.4921 338.888 65.785 337.312 64.286C335.747 63.107 334.368 61.6641 333.205 60.1561C332.801 60.0301 332.674 59.628 332.339 59.495C332.339 59.378 332.199 59.437 332.143 59.437C332.2 59.24 332.013 59.1731 331.886 59.1151C331.161 58.2581 330.248 57.5391 329.528 56.7501C328.931 56.4281 328.613 55.7691 328.082 55.5781C327.887 55.1161 327.235 54.7821 326.899 54.3921C325.983 53.6731 325.208 52.8181 324.541 51.9031C323.567 51.1841 322.841 50.3341 321.991 49.5501C321.991 49.0241 321.403 49.4191 321.471 48.8911C320.427 48.2401 319.63 46.9881 318.587 46.3361C318.132 45.6171 317.54 45.1621 316.882 44.5711C316.616 44.1751 316.103 43.9121 315.83 43.4501C315.568 42.9961 314.991 42.798 314.785 42.402C314.268 42.211 313.935 41.6851 313.482 41.4211C313.277 40.7681 312.498 40.639 312.303 40.118C311.973 40.242 312.101 39.787 311.908 39.721C310.647 38.542 309.605 37.3631 308.3 36.1851C307.835 35.3921 306.862 34.9391 306.261 34.1561C304.308 32.1851 302.665 29.8931 300.703 27.9871C299.655 26.4201 298.014 25.2431 297.757 23.0741C297.092 21.9001 297.23 19.6751 297.955 18.5611C298.469 17.1851 299.655 16.197 300.372 14.885C301.356 13.911 302.735 13.052 303.649 11.941C305.421 11.024 306.662 9.51706 308.44 8.53706C308.634 7.88406 309.481 7.94405 309.747 7.29005C311.117 6.37405 312.498 5.13706 314.321 4.73306C315.708 4.60406 316.692 4.94005 318.056 4.86605Z" fill="#E0000C"/>
<path d="M344.147 235.97H333.11L328.718 224.553H308.632L304.484 235.97H293.721L313.297 185.711H324.02L344.147 235.97ZM325.463 216.084L318.539 197.446L311.755 216.084H325.463Z" fill="black"/>
<path d="M370.336 217.491V209.025H392.201V229.048C390.08 231.099 387.007 232.906 382.971 234.482C378.936 236.041 374.849 236.827 370.717 236.827C365.453 236.827 360.875 235.721 356.971 233.517C353.06 231.312 350.124 228.163 348.16 224.062C346.191 219.959 345.218 215.492 345.218 210.674C345.218 205.444 346.309 200.785 348.505 196.713C350.699 192.649 353.903 189.537 358.135 187.361C361.354 185.699 365.361 184.856 370.165 184.856C376.402 184.856 381.278 186.166 384.78 188.781C388.295 191.403 390.552 195.02 391.554 199.634L381.476 201.516C380.766 199.049 379.44 197.1 377.486 195.68C375.53 194.244 373.085 193.528 370.165 193.528C365.724 193.528 362.207 194.933 359.59 197.745C356.972 200.559 355.669 204.727 355.669 210.269C355.669 216.223 356.987 220.69 359.637 223.679C362.292 226.652 365.77 228.155 370.069 228.155C372.193 228.155 374.323 227.735 376.45 226.894C378.6 226.073 380.423 225.056 381.965 223.871V217.491H370.336Z" fill="black"/>
<path d="M412.6 235.969L394.642 185.713H405.636L418.358 222.902L430.66 185.713H441.428L423.436 235.969H412.6Z" fill="black"/>
<path d="M487.425 214.167H448.375V221.365H487.425V214.167Z" fill="black"/>
<path d="M298.578 249.137H294.593V279.216H298.578V249.137Z" fill="black"/>
<path d="M305.002 279.216V249.13H308.685V259.918C310.42 257.926 312.588 256.929 315.225 256.929C316.83 256.929 318.239 257.244 319.435 257.882C320.616 258.519 321.471 259.399 321.978 260.52C322.495 261.648 322.753 263.273 322.753 265.403V279.216H319.056V265.403C319.056 263.565 318.653 262.204 317.86 261.376C317.056 260.527 315.921 260.108 314.461 260.108C313.361 260.108 312.333 260.394 311.373 260.958C310.406 261.523 309.726 262.298 309.308 263.273C308.897 264.247 308.685 265.587 308.685 267.285V279.217H305.002V279.216Z" fill="black"/>
<path d="M328.174 279.216V257.421H331.506V260.731C332.349 259.178 333.128 258.16 333.858 257.663C334.57 257.178 335.352 256.93 336.223 256.93C337.466 256.93 338.73 257.318 340.015 258.125L338.748 261.544C337.846 261.009 336.942 260.747 336.041 260.747C335.233 260.747 334.51 260.995 333.858 261.472C333.22 261.962 332.767 262.637 332.487 263.493C332.073 264.804 331.872 266.248 331.872 267.813V279.216H328.174Z" fill="black"/>
<path d="M357.029 272.192L360.847 272.669C360.24 274.91 359.126 276.629 357.496 277.861C355.87 279.091 353.788 279.706 351.258 279.706C348.069 279.706 345.538 278.726 343.668 276.762C341.802 274.799 340.863 272.055 340.863 268.508C340.863 264.831 341.819 261.991 343.7 259.962C345.596 257.94 348.041 256.931 351.052 256.931C353.964 256.931 356.346 257.919 358.193 259.904C360.045 261.889 360.969 264.686 360.969 268.282C360.969 268.502 360.961 268.824 360.935 269.256H344.698C344.828 271.651 345.499 273.489 346.714 274.764C347.941 276.039 349.456 276.667 351.279 276.667C352.634 276.667 353.788 276.316 354.742 275.607C355.712 274.903 356.463 273.752 357.029 272.192ZM344.895 266.224H357.058C356.899 264.392 356.442 263.016 355.666 262.101C354.494 260.686 352.972 259.962 351.088 259.962C349.398 259.962 347.972 260.532 346.812 261.667C345.655 262.804 345.019 264.328 344.895 266.224Z" fill="black"/>
<path d="M376.285 269.556L380.037 269.227C380.212 270.729 380.623 271.959 381.27 272.926C381.923 273.891 382.934 274.669 384.308 275.263C385.671 275.861 387.217 276.155 388.922 276.155C390.444 276.155 391.779 275.927 392.944 275.481C394.109 275.037 394.973 274.412 395.547 273.622C396.106 272.838 396.39 271.974 396.39 271.044C396.39 270.106 396.116 269.277 395.561 268.576C395.016 267.873 394.124 267.28 392.856 266.795C392.052 266.487 390.271 265.998 387.507 265.331C384.741 264.665 382.8 264.049 381.702 263.456C380.261 262.702 379.191 261.765 378.475 260.651C377.78 259.538 377.423 258.293 377.423 256.899C377.423 255.393 377.858 253.964 378.719 252.645C379.581 251.321 380.837 250.324 382.49 249.642C384.147 248.96 386.001 248.617 388.013 248.617C390.247 248.617 392.213 248.976 393.91 249.694C395.624 250.404 396.927 251.475 397.85 252.865C398.773 254.257 399.256 255.84 399.327 257.611L395.511 257.891C395.302 256 394.606 254.55 393.427 253.583C392.238 252.609 390.489 252.124 388.186 252.124C385.773 252.124 384.024 252.565 382.913 253.452C381.817 254.33 381.266 255.399 381.266 256.637C381.266 257.721 381.659 258.615 382.43 259.309C383.196 260.006 385.203 260.724 388.447 261.456C391.669 262.181 393.889 262.826 395.093 263.375C396.849 264.181 398.135 265.197 398.977 266.443C399.806 267.681 400.227 269.102 400.227 270.719C400.227 272.318 399.778 273.833 398.846 275.239C397.938 276.659 396.619 277.759 394.914 278.55C393.185 279.342 391.251 279.73 389.108 279.73C386.385 279.73 384.094 279.342 382.252 278.537C380.414 277.744 378.975 276.552 377.929 274.953C376.891 273.364 376.335 271.571 376.285 269.556Z" fill="black"/>
<path d="M405.243 253.377H408.947V249.137H405.243V253.377ZM405.243 279.216H408.947V257.429H405.243V279.216Z" fill="black"/>
<path d="M428.766 271.232L432.392 271.702C431.995 274.207 430.979 276.162 429.345 277.589C427.707 279.004 425.696 279.706 423.334 279.706C420.344 279.706 417.944 278.734 416.137 276.785C414.317 274.828 413.409 272.038 413.409 268.4C413.409 266.048 413.797 263.99 414.578 262.217C415.364 260.468 416.543 259.132 418.133 258.254C419.744 257.369 421.474 256.93 423.349 256.93C425.709 256.93 427.648 257.523 429.15 258.724C430.662 259.917 431.631 261.617 432.043 263.827L428.452 264.376C428.116 262.912 427.513 261.814 426.644 261.067C425.768 260.335 424.725 259.961 423.491 259.961C421.635 259.961 420.119 260.628 418.955 261.96C417.789 263.293 417.21 265.409 417.21 268.302C417.21 271.225 417.77 273.348 418.896 274.69C420.015 276.016 421.475 276.666 423.287 276.666C424.733 276.666 425.939 276.228 426.924 275.342C427.888 274.455 428.493 273.079 428.766 271.232Z" fill="black"/>
<path d="M435.87 279.216V249.13H439.555V259.918C441.29 257.926 443.461 256.929 446.086 256.929C447.699 256.929 449.112 257.244 450.298 257.882C451.491 258.519 452.334 259.399 452.852 260.52C453.369 261.648 453.617 263.273 453.617 265.403V279.216H449.928V265.403C449.928 263.565 449.52 262.204 448.723 261.376C447.926 260.527 446.793 260.108 445.326 260.108C444.233 260.108 443.203 260.394 442.243 260.958C441.28 261.523 440.59 262.298 440.17 263.273C439.769 264.247 439.556 265.587 439.556 267.285V279.217H435.87V279.216Z" fill="black"/>
<path d="M474.086 272.192L477.909 272.669C477.302 274.91 476.18 276.629 474.56 277.861C472.935 279.091 470.849 279.706 468.318 279.706C465.136 279.706 462.61 278.726 460.733 276.762C458.867 274.799 457.943 272.055 457.943 268.508C457.943 264.831 458.881 261.991 460.763 259.962C462.66 257.94 465.106 256.931 468.116 256.931C471.028 256.931 473.404 257.919 475.261 259.904C477.103 261.889 478.027 264.686 478.027 268.282C478.027 268.502 478.027 268.824 478.011 269.256H461.752C461.892 271.651 462.56 273.489 463.788 274.764C465.003 276.039 466.518 276.667 468.349 276.667C469.695 276.667 470.849 276.316 471.807 275.607C472.768 274.903 473.53 273.752 474.086 272.192ZM461.955 266.224H474.134C473.97 264.392 473.502 263.016 472.731 262.101C471.56 260.686 470.029 259.962 468.161 259.962C466.455 259.962 465.033 260.532 463.881 261.667C462.72 262.804 462.082 264.328 461.955 266.224Z" fill="black"/>
<path d="M482.45 279.216V257.421H485.775V260.731C486.618 259.178 487.404 258.16 488.129 257.663C488.844 257.178 489.627 256.93 490.49 256.93C491.733 256.93 493.005 257.318 494.29 258.125L493.024 261.544C492.119 261.009 491.209 260.747 490.308 260.747C489.504 260.747 488.776 260.995 488.128 261.472C487.49 261.962 487.033 262.637 486.758 263.493C486.347 264.804 486.145 266.248 486.145 267.813V279.216H482.45Z" fill="black"/>
<path d="M497.014 279.216V249.13H500.701V259.918C502.436 257.926 504.612 256.929 507.237 256.929C508.852 256.929 510.251 257.244 511.448 257.882C512.641 258.519 513.487 259.399 514.001 260.52C514.518 261.648 514.766 263.273 514.766 265.403V279.216H511.081V265.403C511.081 263.565 510.67 262.204 509.877 261.376C509.08 260.527 507.945 260.108 506.474 260.108C505.382 260.108 504.353 260.394 503.392 260.958C502.43 261.523 501.744 262.298 501.326 263.273C500.915 264.247 500.703 265.587 500.703 267.285V279.217H497.014V279.216Z" fill="black"/>
<path d="M535.237 272.192L539.055 272.669C538.447 274.91 537.341 276.629 535.716 277.861C534.087 279.091 531.994 279.706 529.477 279.706C526.282 279.706 523.756 278.726 521.89 276.762C520.014 274.799 519.089 272.055 519.089 268.508C519.089 264.831 520.029 261.991 521.924 259.962C523.818 257.94 526.253 256.931 529.27 256.931C532.177 256.931 534.555 257.919 536.418 259.904C538.256 261.889 539.186 264.686 539.186 268.282C539.186 268.502 539.172 268.824 539.158 269.256H522.905C523.047 271.651 523.719 273.489 524.934 274.764C526.152 276.039 527.682 276.667 529.498 276.667C530.851 276.667 531.994 276.316 532.965 275.607C533.922 274.903 534.676 273.752 535.237 272.192ZM523.111 266.224H535.285C535.115 264.392 534.654 263.016 533.891 262.101C532.704 260.686 531.189 259.962 529.314 259.962C527.609 259.962 526.18 260.532 525.03 261.667C523.872 262.804 523.244 264.328 523.111 266.224Z" fill="black"/>
<path d="M543.662 253.377H547.357V249.137H543.662V253.377ZM543.662 279.216H547.357V257.429H543.662V279.216Z" fill="black"/>
<path d="M560.891 275.912L561.43 279.181C560.383 279.393 559.459 279.501 558.632 279.501C557.292 279.501 556.244 279.288 555.52 278.865C554.769 278.454 554.249 277.885 553.961 277.194C553.66 276.498 553.508 275.048 553.508 272.83V260.291H550.795V257.421H553.508V252.016L557.176 249.805V257.421H560.892V260.291H557.176V273.042C557.176 274.089 557.233 274.771 557.374 275.069C557.505 275.37 557.718 275.611 558.014 275.788C558.304 275.964 558.72 276.059 559.269 276.059C559.679 276.059 560.221 276.008 560.891 275.912Z" fill="black"/>
<path d="M569.838 275.015H565.624V279.216H569.838V275.015Z" fill="black"/>
</svg>
