<?xml version="1.0" encoding="utf-8"?>
<!-- Generator: Adobe Illustrator 17.0.2, SVG Export Plug-In . SVG Version: 6.00 Build 0)  -->
<!DOCTYPE svg PUBLIC "-//W3C//DTD SVG 1.1//EN" "http://www.w3.org/Graphics/SVG/1.1/DTD/svg11.dtd">
<svg version="1.1" xmlns="http://www.w3.org/2000/svg" xmlns:xlink="http://www.w3.org/1999/xlink" x="0px" y="0px"
	 width="841.89px" height="595.28px" viewBox="0 0 841.89 595.28" enable-background="new 0 0 841.89 595.28" xml:space="preserve">
<g id="Ebene_5">
</g>
<g id="Ebene_1">
	<g>
		<path fill="#004087" d="M247.915,343.755l0.069,0.133c1.704,0,3.339-0.074,4.717,0.321c2.028-0.263,3.669,0.595,5.814,0.396
			c0.337-0.066,0.395,0,0.729,0.198l0.275-0.141c0.377,0.198,1.242,0.08,1.766,0.265c0.837,0.066,1.822-0.066,2.413,0.329
			l1.445,0.059c0,0.081,0.063,0.081,0.063,0.147l0.398-0.147c0.321,0.271,0.908,0,1.304,0.271c0.711,0.198,1.641,0.133,2.284,0.331
			c0,0.065,0.083,0.065,0.083,0.122l0.194-0.122c0.119,0.196,0.524,0.065,0.772,0.122c-0.058,0.074,0,0.14,0.076,0.14
			c0.137,0,0.789,0.059,1.117,0.133c0.322,0.126,0.915,0,1.109,0.126c-0.062,0,0.194,0.065,0.194-0.06
			c0.337,0.189,0.986,0.126,1.177,0.264c0.859,0.124,1.842,0.322,2.359,0.514c0.794,0,1.445,0.33,2.237,0.396
			c0.713,0.256,1.502,0.256,2.289,0.462c-0.065,0.064,0,0.124,0.063,0.124c0.198-0.257,0.256,0.065,0.461,0.138
			c0.589,0,1.311-0.072,1.699,0.322c0.398-0.072,0.527,0.198,0.794,0.266c0-0.067,0.07-0.067,0.07-0.126
			c0.974,0.126,1.824,0.446,2.878,0.586c0.059-0.065,0-0.264,0.059-0.322c0.659,0.383,1.171,0.059,1.839,0.512
			c0.984,0.198,2.029,0.266,2.877,0.594c3.399,0.66,6.423,1.442,9.892,2.036c0.395,0.198,0.984,0.198,1.379,0.38
			c1.044-0.057,1.436,0.727,2.557,0.528c0.133,0.198,0.656-0.059,0.783,0.198c1.707,0.133,3.341,0.462,4.853,0.856
			c2.472,0.257,3.921,1.041,6.485,1.041c0.121,0.271,0.574,0,0.71,0.271c0.848-0.133,1.376,0.388,2.234,0.196
			c0,0.259,0.33,0.067,0.527,0.133c-0.067,0.059,0,0.059,0.065,0.126c0.19-0.067,1.033,0.136,1.234,0.064
			c1.183,0.14,2.105,0.593,3.483,0.593c0.395,0.462,1.5,0.059,1.954,0.527c0.858-0.196,2.241,0.324,2.823,0.185
			c0.656,0.329,2.042,0.203,2.879,0.401c0,0.067,0.071,0.067,0.071,0.126l0.396-0.126c-0.064,0.067,0,0.067,0.064,0.126
			c0.453-0.126,1.106,0.337,1.9,0.131c0.455,0.206,0.912,0.206,1.497,0.206c0,0.059,0,0.059,0.064,0.124l0.205-0.124
			c0.456,0.124,0.852,0.198,1.447,0.198c0.848,0.059,1.573,0.255,2.543,0.255c-0.062,0.065,0,0.133,0.064,0.133
			c0.132-0.264,0.527,0.189,0.79-0.133l0.402,0.065v-0.065c1.766,0.198,4.319,0.133,6.409,0.322l0.265-0.124
			c0,0.06,0.059,0.06,0.059,0.124c0.204-0.388,0.402,0.198,0.658-0.124v0.06c3.152-0.125,5.108-0.258,8.328-0.323
			c0.131-0.189,0.446-0.065,0.709-0.065c2.631-0.322,5.113-0.124,7.676-0.857c1.831-0.126,3.667-0.71,5.559-0.85
			c0.073-0.191,0.589,0.074,0.667-0.191c1.102,0.133,1.567-0.521,2.68-0.395c0.126-0.198,0.59-0.059,0.653-0.262
			c1.178-0.332,2.614-0.332,3.799-0.727c1.062-0.118,2.096-0.381,3.012-0.784c0.91-0.124,1.832-0.329,2.753-0.519
			c0.652-0.331,1.443-0.527,2.286-0.595c0.863-0.328,1.778-0.453,2.629-0.783c1.048-0.065,1.695-0.658,2.747-0.658
			c0.205-0.455,0.988-0.126,1.175-0.521c1.318-0.061,1.97-0.857,3.35-0.915c3.407-1.049,6.549-2.491,9.95-3.729
			c0.391-0.329,0.986-0.462,1.512-0.602c0.777-0.453,2.099-1.434,3.083-0.577c0.463,0.651,0.389,1.625,0.588,2.491
			c-0.85,0.782-1.246,1.558-2.219,2.151c-0.738,0.726-1.84,1.12-2.573,1.701c-0.391,0.196-0.585,0.593-0.966,0.855
			c-0.33,0.06-0.6,0.329-0.79,0.521c-0.783,0.329-1.512,0.726-2.036,1.384c-0.843,0.579-1.568,1.18-2.491,1.567
			c-1.498,1.041-3.135,1.971-4.65,2.944c-0.513,0.338-1.242,0.395-1.632,0.987c-1.312,0.653-2.429,1.443-3.671,2.227
			c-0.845,0.329-1.434,0.777-2.364,0.982c-0.194,0.263-0.588,0.33-0.844,0.518c-0.592,0.2-1.123,0.529-1.64,0.933
			c-0.388,0.059-0.725,0.32-1.045,0.388c-0.787,0.528-1.976,0.586-2.625,1.304c-0.722,0.133-1.251,0.527-1.969,0.719
			c-0.33,0.327-0.976,0.395-1.304,0.724c-0.143,0-0.265-0.067-0.33,0c0,0.205-0.329,0.131-0.395,0.264
			c0-0.059-0.057-0.059-0.057-0.133c-0.331,0.191-0.596,0.339-0.727,0.586c0-0.19-0.271-0.058-0.396-0.131
			c-0.776,0.396-1.237,0.988-2.223,1.121c-0.194,0.262-0.729,0.327-1.182,0.453c-0.653,0.198-1.181,0.527-1.9,0.71
			c-1.234,0.147-2.157,0.799-3.341,1.055c-1.38,0.528-2.878,0.857-4.325,1.312c-0.46-0.126-1.113,0.255-1.706,0.329
			c-1.106,0.46-2.284,0.79-3.538,0.923c-0.915,0.198-2.018,0.395-2.872,0.719c-0.406-0.067-0.592,0.196-0.859,0.255
			c0-0.059-0.063-0.126-0.063-0.126c-2.484,0.455-4.844,1.041-7.404,1.312c-1.369,0.329-3.013,0.329-4.316,0.66
			c0-0.073-0.078-0.14-0.078-0.14c-0.575,0.196-1.361,0.14-1.951,0.264c-0.144-0.33-0.144,0.198-0.334,0
			c-1.64,0.257-3.529,0.065-5.047,0.403c-0.134-0.471-0.589,0.05-1.039,0c-0.466,0.248-0.861-0.338-1.303,0.05
			c-1.458,0.14-2.579-0.255-4.007-0.131c0-0.065,0-0.065-0.065-0.124l-0.205,0.124l-0.06-0.124
			c-1.113-0.198-2.679,0.205-3.603-0.266l-0.071,0.067c-0.848-0.124-1.835-0.197-2.748-0.124c0-0.073-0.06-0.14-0.06-0.14
			c-0.848,0.14-1.911-0.191-2.758-0.397c-1.635-0.255-3.544-0.196-4.909-0.782c-0.983,0.126-1.5-0.527-2.557-0.329
			c-0.395-0.324-1.18,0-1.508-0.324c-0.52-0.196-1.31-0.129-1.835-0.269c0-0.059-0.06-0.126-0.06-0.126
			c-0.539,0.126-1.175-0.255-1.779-0.388c-0.648,0.191-0.772-0.402-1.439-0.133c-0.058-0.27-0.455,0-0.513-0.27
			c-1.384-0.059-2.432-0.769-3.864-0.769c-0.926-0.146-1.651-0.403-2.431-0.667c-0.59-0.059-0.722-0.198-1.314-0.198
			c0-0.066,0-0.133-0.073-0.133l-0.188,0.133c-0.19-0.19-0.72-0.066-0.779-0.395c-1.577-0.455-3.082-0.719-4.719-1.041
			c-0.392-0.27-0.987-0.468-1.371-0.535v0.067c-0.208-0.322-0.991-0.067-1.189-0.455c-0.783,0.067-1.113-0.527-1.902-0.388
			c0-0.065-0.061-0.14-0.061-0.14c-0.256,0.14-0.659-0.264-1.121-0.131v-0.133c-0.453,0.072-0.775-0.388-1.23-0.189v0.189
			c-0.465-0.057-0.86-0.255-1.391-0.255c-0.514-0.322-1.242-0.397-1.889-0.588c-0.126-0.057-0.323,0.06-0.528,0.06
			c0-0.381-0.586-0.116-0.649-0.264v0.065c-2.493-1.039-5.24-1.56-7.928-2.226c-2.098-0.38-3.925-1.113-5.903-1.699
			c-0.651,0-1.045-0.131-1.566-0.257c0-0.072,0-0.14-0.065-0.198l-0.33,0.126c-0.455-0.455-1.557-0.067-2.028-0.52
			c-0.514-0.067-0.787-0.067-1.311-0.197c0-0.067-0.067-0.067-0.067-0.133c-0.126,0.263-0.524-0.133-0.848,0
			c0-0.072,0-0.133-0.067-0.133c-1.764,0.133-3.401-0.782-5.437-0.593c-0.191-0.189-0.722-0.124-0.978-0.322
			c-0.531,0.067-1.048-0.262-1.377-0.131c-2.159-0.396-4.973-0.71-7.332-1.056c-0.989,0.141-1.97-0.38-3.153-0.189l-0.062-0.132
			l-3.677-0.059c0-0.074-0.065-0.074-0.065-0.131l-0.187,0.131c-0.143-0.264-0.66,0-0.794-0.264
			c-2.092-0.132-2.936,0.264-4.71-0.066l-0.257,0.199v-0.066c-1.124-0.066-2.958-0.133-4.266,0.066l-0.069-0.133
			c-0.521,0.264-1.246,0.066-1.889,0.133c0.058-0.066,0-0.066-0.081-0.133l-0.314,0.133c0-0.066,0-0.066-0.063-0.133
			c-0.076,0.264-0.274,0.066-0.468,0c-1.304,0.264-3.015,0.454-4.121,0.52c-0.256,0.067-0.659-0.065-0.73,0.197
			c-0.582-0.197-1.24,0.067-1.893,0.125c0.06-0.058,0-0.058-0.069-0.125c-0.066,0.125-0.194,0.125-0.326,0l-0.058,0.125
			c-1.048-0.198-1.913,0.402-2.696,0.199c0-0.052-0.062-0.133-0.062-0.133c-0.063,0-0.135,0-0.135,0.081
			c0,0.052-0.711,0.052-0.916,0.183l-0.33-0.067v0.067c-1.377-0.067-3.2,0.072-4.453,0.586c-1.832,0.072-3.207,0.46-4.906,0.658
			c-0.136,0.39-0.785-0.059-0.865,0.462c-0.776-0.19-0.974,0.463-1.759,0.33c-0.922,0.52-2.23,0.593-3.149,1.113
			c-0.651,0.059-0.914,0.322-1.434,0.46c-0.14,0-0.275,0-0.398,0.067c-0.197,0.124-0.453,0.255-0.786,0.328
			c-0.92,0.455-2.091,0.653-3.013,1.246c-0.396,0.124-0.908,0.183-1.246,0.521c-0.981,0.381-1.889,1.039-3.081,1.237
			c-0.251,0.594-0.977,0.337-1.175,0.783c-0.46,0.072-0.922,0.072-1.048,0.462c-0.647,0.27-1.573,0.203-1.965,0.784
			c-0.589,0.138-1.241,0.468-1.575,0.733v-0.082c-1.24,0.731-2.546,1.392-3.804,2.043c-0.908,0.659-1.831,1.18-2.879,1.633
			c-0.392,0.395-0.908,0.52-1.376,0.85c-3.467,2.234-6.545,5.046-9.884,7.404c-0.721,0.397-1.512,0.917-2.165,1.452
			c-1.046,0.717-1.706,1.632-2.687,2.349c-0.455,0.133-0.79,0.661-1.187,1.041c-0.841,0.47-1.369,1.45-2.285,1.896
			c-0.255,0.477-0.718,0.799-1.31,0.93c-0.855,0.126-1.173-0.395-1.695-0.782c-1.114-1.254,0.119-2.63-0.202-4.329
			c0.263-1.64,0.586-3.141,1.83-4.196v-0.133c1.052-0.974,1.97-1.823,2.893-2.805c0-0.14,0.327-0.14,0.388-0.271
			c1.699-1.699,3.472-3.012,5.306-4.462c1.114-0.708,1.956-1.63,3.138-2.291c0.272-0.388,0.784-0.513,1.041-0.908
			c0.137-0.198,0.471,0,0.471-0.329c0.589-0.198,1.044-0.726,1.579-1.046c0.45-0.331,0.841-0.521,1.102-0.99
			c0.59-0.191,0.849-0.777,1.438-0.917c1.909-1.623,4.197-2.737,6.168-4.386c0.923-0.586,1.893-1.179,2.937-1.706
			c1.261-0.908,2.498-1.757,3.94-2.482v-0.198c0.711-0.065,1.436-0.659,1.963-1.178c0.585,0,0.852-0.653,1.376-0.595
			c0.528-0.381,1.311-0.527,1.766-1.039c0.718-0.067,1.113-0.595,1.907-0.595c0.908-1.121,2.74-0.916,3.724-1.962l0.061,0.059
			c0.08-0.388,0.797-0.059,0.797-0.521c0.718,0.198,0.857-0.461,1.508-0.461c0.582-0.126,1.044-0.395,1.575-0.717
			c0.512-0.259,1.042-0.464,1.634-0.653c0.13,0,0.061-0.138,0.061-0.198c0.927,0.133,1.174-0.527,1.97-0.527
			c0.846-0.65,2.164-0.65,3.072-1.178c0.915-0.264,1.641-0.726,2.685-0.791c0.391-0.388,1.178-0.388,1.635-0.71
			c0.854-0.198,1.633-0.339,2.491-0.528c0.327-0.198,1.055,0,1.186-0.395c0.908-0.324,2.096-0.324,3.012-0.719
			c0.323,0,0.65,0,0.974-0.126c0.263,0,0.922-0.262,1.516-0.196c0.851-0.205,1.637-0.468,2.553-0.601
			c0.326-0.058,1.177-0.198,1.703-0.322c0.329,0.066,1.047-0.123,1.644-0.065c0.129-0.265,0.653,0,0.782-0.198l0.395,0.065
			c0.325-0.065,0.78-0.255,1.24-0.255v-0.14c1.115-0.133,2.42,0.065,3.468-0.191c0.47,0.059,0.858,0.388,1.26-0.072
			c0.513,0.329,1.498-0.124,2.344-0.067C241.355,343.559,244.507,343.615,247.915,343.755"/>
		<path fill="#004087" d="M392.558,386.139c0.121-0.14,0.326,0.117,0.516,0.117l0.27,0.403c-0.398,0.072,0.129,0.072,0,0.329
			c-0.076,1.114-0.197,2.82-1.314,3.405c-2.23,2.359-4.585,4.256-7.214,6.028c-2.74,1.821-5.232,3.866-8.115,5.566
			c0.132,0.329-0.26,0.072-0.331,0.189c-0.915,0.46-1.574,1.318-2.687,1.574c-0.19,0.462-0.986,0.462-1.304,0.793
			c-0.784,0.789-2.028,0.987-2.893,1.705c-0.839,0.388-1.634,0.98-2.482,1.303c-0.513,0.527-1.378,0.726-1.905,1.187
			c-0.917,0.125-1.429,0.66-2.095,1.106c-2.09,0.982-4.183,1.905-6.349,2.827c-0.656,0.388-1.378,0.586-2.031,0.915
			c-1.045,0.124-1.771,0.586-2.679,0.843c-0.462,0.659-1.846,0.271-2.036,1.119l-0.066-0.262c-0.065,0.395-1.046,0.196-1.244,0.593
			c-1.045,0.322-1.773,0.974-2.944,1.049c-0.133,0.453-0.798,0.123-1.055,0.453c-0.849,0.395-2.029,0.322-2.878,0.724
			c-1.181,0.322-2.304,0.85-3.604,0.981c-0.592,0.331-1.175,0.52-1.893,0.652c-0.6-0.19-0.986,0.389-1.318,0.189
			c-0.062,0.265-0.585,0-0.656,0.265c-1.117,0.14-2.223,0.336-3.207,0.66c-1.114-0.059-1.913,0.591-3.213,0.462l-0.062,0.129
			c-1.573-0.203-2.754,0.259-4.193,0.396c-0.061,0-0.588,0-0.787,0.19c-1.381,0-2.622,0.133-3.863,0.332
			c-0.457-0.066-1.379,0-2.033,0l-0.058,0.131c-1.062-0.197-2.363,0.323-2.951,0.059c-0.467,0.265-1.246-0.059-1.714,0.198h-0.594
			c0-0.059-0.058-0.059-0.058-0.059c-0.256-0.073-0.517,0.262-0.851,0c-0.134,0.205-0.468,0.059-0.725,0.059l-0.058-0.059h-1.835
			c0-0.073-0.061-0.14-0.061-0.14l-0.255,0.14c0-0.198-0.207-0.14-0.272-0.14c-0.14,0-0.062,0.14-0.062,0.198
			c-1.446-0.059-2.56-0.257-4.062-0.257v-0.197c-1.12,0.197-2.439-0.066-3.545-0.198c-0.512,0.132-1.179-0.067-1.772-0.067v-0.066
			c-0.377,0.066-0.98-0.469-1.634-0.262c0-0.061,0-0.061-0.065-0.126c-0.919,0.065-2.162-0.081-3.15-0.336
			c-0.388-0.059-1.173,0.203-1.377-0.257c-1.178,0-2.227-0.131-3.193-0.527c-0.337,0.072-0.865,0.072-1.12-0.124
			c-0.33,0.065-0.395-0.072-0.661-0.14l-0.263,0.264c-0.33-0.196-0.916-0.059-1.238-0.264c0-0.065,0-0.117-0.065-0.117l-0.198,0.117
			c-0.128-0.185-0.459-0.185-0.721-0.185c-1.177-0.402-1.902-0.591-3.213-0.789c-0.582-0.33-1.446-0.33-2.093-0.594
			c-0.396-0.388-1.386-0.066-1.77-0.521c-0.392,0-1.043-0.14-1.562-0.329c-0.337,0.133-0.467-0.264-0.667-0.198
			c-0.784,0.06-1.376-0.526-2.356-0.526c-1.242-0.462-2.751-0.521-3.932-1.041c-1.379-0.277-2.742-0.651-4.002-1.046
			c-3.588-1.444-7.916-1.905-11.915-2.762c-0.253-0.183-0.718-0.065-0.974-0.255c-0.667,0.19-0.792-0.404-1.443-0.198
			c-0.263-0.206-0.858-0.061-1.131-0.322c-0.839-0.075-1.561-0.455-2.545-0.339c-1.97-0.527-4.255-0.649-6.284-0.974
			c-0.395-0.271-1.055-0.065-1.516-0.203c-1.575-0.191-2.995-0.514-4.574-0.777c-2.502-0.131-4.069-0.535-6.36-0.792
			c0,0.198-0.2,0.067-0.319,0.133c0-0.065-0.078-0.133-0.078-0.133l-0.197,0.133c-0.059-0.331-0.256,0.065-0.453,0
			c-0.851-0.198-1.971-0.133-2.816-0.331h-1.12c0-0.065-0.063-0.065-0.063-0.131c-0.454,0.131-0.658-0.065-1.178,0.131
			c0-0.196-0.258-0.065-0.396-0.131c0,0.264-0.257,0.066-0.395,0.131l-0.061-0.131l-4.126-0.065c0,0,0-0.065-0.061-0.065
			c-0.067,0.131-0.207,0.131-0.333,0l-0.067,0.065l-8.712,0.065l-0.058,0.131c-1.97-0.322-3.142,0.594-5.055,0.396
			c-2.02,0.322-4.248,0.139-6.151,0.79c-1.178-0.138-1.702,0.514-2.884,0.39c-0.133,0.191-0.649-0.067-0.847,0.191
			c-1.439,0.079-2.618,0.593-3.999,0.796c-0.324,0.191-1.042,0-1.239,0.381c-1.048,0.206-2.228,0.264-3.151,0.727
			c-0.593,0.205-1.244,0.527-1.896,0.586c-2.095,0.527-3.86,1.377-5.829,2.028c-0.653,0.592-1.638,0.659-2.366,1.119
			c-0.652,0.067-0.974,0.462-1.561,0.595c-0.271,0.388-0.923,0.33-1.179,0.71c-2.227,1.252-4.592,2.366-6.754,3.604
			c-0.455,0.198-0.918,0.46-1.302,0.658c-0.732,0.527-1.516,0.784-2.237,1.378c-0.069,0-0.194-0.074-0.267,0.059
			c0.137,0.345-0.258,0.066-0.323,0.198c-2.097,1.377-4.19,2.76-6.218,4.062c-0.856,0.992-2.098,1.576-2.952,2.564
			c-1.443,0.975-2.35,2.353-3.994,3.268c-1.044,1.112-2.29,1.831-3.206,3.018c-1.254,1.37-2.892,2.02-3.998,3.528
			c-0.455,0.266-0.922,0.6-1.313,0.989c-1.573,0.446-2.291-0.527-3.147-1.244c-0.584-1.31-0.397-3.273-0.192-4.651
			c0.063,0,0.132-0.059,0.132-0.059c-0.132-0.469,0.25-1.12,0.323-1.648c1.048-1.311,2.032-2.424,3.01-3.735
			c0.205,0.074,0.265-0.122,0.341-0.262c0.391-0.381,1.044-0.719,1.299-1.369c0.798-0.398,1.246-1.253,1.971-1.701v-0.14
			c0.849-0.122,1.114-0.982,1.638-1.435c0.523-0.131,0.852-0.658,1.239-0.856c1.121-1.317,2.434-2.095,3.605-3.267
			c-0.126-0.264,0.322-0.073,0.395-0.338c1.634-1.698,3.666-2.943,5.439-4.51c0.589-0.462,1.175-0.988,1.636-1.444
			c0.257,0.125,0.462-0.204,0.462-0.263c1.171-0.798,2.284-1.772,3.398-2.615c2.621-1.508,5.181-3.154,7.727-4.856
			c1.515-0.98,3.479-1.508,4.923-2.547c0.592-0.139,1.047-0.528,1.559-0.799c0.531-0.124,0.799-0.651,1.389-0.719
			c0.326-0.32,0.984-0.519,1.379-0.775c1.429-0.733,3.003-1.39,4.513-2.043c0.329-0.453,1.113-0.453,1.573-0.775
			c1.238-0.339,2.162-0.916,3.34-1.378c0.792-0.198,1.51-0.403,2.161-0.726c0.794-0.519,1.645-0.717,2.622-0.981
			c0.776-0.329,1.51-0.658,2.491-0.719c0.718-0.329,1.439-0.591,2.292-0.717c0.388-0.278,0.858-0.278,1.252-0.475
			c0.711-0.06,1.304-0.324,1.964-0.514c0.841-0.264,1.882-0.264,2.679-0.66c1.242-0.453,2.887-0.32,3.993-0.908
			c2.227-0.327,5.119-0.658,7.542-0.921c1.758,0,3.007-0.455,4.907-0.322c0.065-0.19,0.327-0.074,0.527-0.133
			c0.259,0.189,0.723,0.133,1.048,0.059v-0.059c0.589,0.189,1.437,0.133,2.091,0.059c-0.069,0.074,0.268,0.131,0.268-0.059
			l0.065,0.133c2.285-0.19,4.127,0.388,6.353,0.189c0.128,0.272,0.589,0,0.653,0.272c0.266-0.073,0.65,0.059,0.794-0.139
			c0.652,0.197,1.361,0,2.351,0.139c1.512,0.059,2.816,0.455,4.453,0.322c-0.062,0.065,0,0.065,0,0.133l0.201-0.133
			c0.466,0.198,0.977,0.065,1.57,0.198c0.265,0.138,0.846,0.138,1.04,0.057c0.396,0.205,1.125,0.14,1.58,0.331l1.247,0.074
			c0,0.065,0,0.065,0.064,0.129l0.263-0.129c0.064,0.189,0.327,0.065,0.531,0.129c-0.073,0.061,0,0.061,0,0.061
			c0.315-0.329,0.513,0.131,0.908,0.065c0.851-0.065,1.576,0.198,2.482,0.198c2.032,0.329,4.138,0.593,6.226,0.915
			c1.317,0.337,2.761,0.454,4.071,0.783c1.11-0.073,1.634,0.41,2.69,0.41c0.391,0.25,1.171,0.183,1.694,0.383
			c0.718-0.2,1.572,0.395,2.486,0.189c0.47,0.065,1.059,0.264,1.576,0.468c1.512,0.256,3.149,0.323,4.585,0.653
			c0.126,0.065,0.528,0.065,0.454,0c0.66-0.061,0.99,0.255,1.709,0.198c0.126,0.255,0.592,0.057,0.658,0.32
			c0.725-0.198,0.977,0.264,1.699,0.133c0.393,0.131,0.857,0.264,1.316,0.336c0.126,0.257,0.579,0,0.779,0.191
			c0,0.066,0,0.066,0.065,0.066c0.396-0.066,0.983,0.257,1.578,0.196c0.517,0.383,0.979,0.133,1.639,0.383
			c0.787,0.08,1.369,0.264,2.226,0.336c0.454,0.198,0.907,0.396,1.574,0.257c0.453,0.206,1.113,0.139,1.561,0.32
			c0.27,0,0.723,0.339,1.053,0.075v-0.189c1.311,0.065,2.356,0.521,3.538,0.775c0.785-0.126,1.831,0.19,2.63,0.336
			c0.776,0.126,1.442,0.257,2.157,0.396c1.043-0.079,1.575,0.329,2.559,0.329c0.118,0.322,0.25-0.074,0.453,0
			c1.166,0.126,2.169,0.521,3.539,0.446c0,0.074,0.066,0.133,0.066,0.133c0.85-0.191,1.773,0.33,2.818,0.197
			c0.448,0.205,1.108,0.065,1.562,0.264c0.923-0.059,1.318,0.396,2.299,0.396c0.132,0.205,0.455,0.065,0.71,0.065
			c-0.058,0.059,0,0.14,0.074,0.14c0.127-0.266,0.716,0.314,0.859-0.14c0.114,0.395,0.524,0,0.711,0.198
			c0.069,0.322,0.268-0.059,0.466,0c2.285,0.651,5.24,0.395,7.408,0.717c0.905-0.133,0.905,0.059,1.893-0.133
			c0.396,0.388,1.238-0.262,1.889,0.133h0.865c0.055,0.329,0.055-0.205,0.32,0c0.588-0.133,1.053,0.198,1.438,0.133
			c0.333-0.266,0.865-0.074,1.318-0.133v0.059c0.455,0.271,1.246-0.322,1.895,0.074c0.531-0.338,1.311,0.122,1.713-0.074
			c0.129-0.059,0.52-0.124,0.582,0.074c2.021-0.396,4.395-0.198,6.548-0.455c0.464-0.14,0.988-0.198,1.577-0.14l0.194-0.131v0.072
			c0.919-0.072,1.964-0.14,2.886-0.395v0.059c0.783-0.059,1.699-0.185,2.557-0.322v0.065c0.78-0.264,1.963-0.264,2.816-0.527
			c0.912-0.057,1.637-0.454,2.683-0.389c0.59-0.462,1.495-0.262,2.292-0.593c0.586,0.065,0.984-0.203,1.509-0.264
			c1.371-0.131,2.484-0.719,3.604-0.775c0.718-0.338,1.369-0.527,2.227-0.733c1.369-0.065,2.481-0.462,3.662-0.775
			c1.314-0.133,2.024-0.924,3.412-0.924c0.85-0.527,2.029-0.584,2.938-1.048c0.652-0.263,1.384-0.454,1.907-0.855
			c0.782,0.138,1.044-0.455,1.828-0.322c0.337-0.198,0.659-0.198,0.98-0.329c0.07,0.196,0.337-0.25,0.466-0.25
			c1.893-0.602,3.526-1.45,5.439-2.043c0.317-0.124,0.65-0.264,1.046-0.39c0.792-0.525,1.905-0.724,2.746-1.243
			c2.293-1.12,4.786-2.168,7.023-3.408C391.308,386.073,392.104,386.33,392.558,386.139"/>
		<path fill="#E0000C" d="M421.361,155.139c0.776,1.238-0.6,2.291-0.995,3.339c-0.642,0.584-0.846,1.443-1.165,2.226
			c-0.27,0.982-0.329,2.096-0.531,3.077c-0.522,0.586-0.522,1.501-1.043,2.16c-0.799,0.528-1.378,1.378-1.772,2.228
			c-0.275,0.138-0.396,0.388-0.59,0.658c-2.633,2.688-5.046,5.501-7.665,8.049c-0.26,0.396-0.651,0.866-0.988,1.128
			c-2.285,2.41-4.255,4.915-6.481,7.264c-0.258,0.067-0.319,0.331-0.528,0.528c-1.443,1.641-3.017,3.143-4.514,4.644
			c-0.915,1.252-2.029,2.233-3.146,3.479c-0.265,0.33-0.462,0.593-0.777,0.915c-0.984,1.179-1.782,2.226-2.959,3.273
			c-0.648,0.924-1.501,1.833-2.417,2.564c-0.461,0.717-1.251,0.974-1.577,1.765c-1.185,1.436-2.685,2.746-3.933,4.182
			c-0.129,0.468-0.781,0.593-0.781,1.121c-0.725,0.651-1.509,1.177-2.227,1.896c0.133,0.257-0.135,0.14-0.205,0.257
			c-1.238,1.251-2.475,2.622-3.527,4.005c-0.861,0.06-0.659,1.106-1.446,1.246c-0.927,1.698-2.688,2.351-3.735,3.999
			c-0.395,0.059-0.462,0.52-0.718,0.775c-1.178,0.857-1.641,2.036-2.879,2.819c-0.533,1.048-1.438,1.634-2.167,2.622
			c-1.245,1.634-2.821,2.944-4.262,4.394v0.119c-0.261,0.073-0.391,0.395-0.588,0.593c-0.981,0.783-1.516,1.896-2.482,2.746
			c-1.385,1.055-2.106,2.629-3.346,3.743c-0.14,0.395-0.851,0.33-0.593,0.916c-0.649,0.189-0.982,0.782-1.377,1.31
			c-0.651,0.455-1.179,1.114-1.634,1.634c-0.324,0.196-0.65,0.395-0.725,0.782c-1.764,1.443-2.874,3.217-4.636,4.66
			c-1.244,1.369-2.687,2.679-3.809,4.254c-0.328,0.059-0.387,0.395-0.586,0.593c-0.915,0.848-1.635,1.896-2.759,2.557
			c-1.576,1.763-3.073,3.727-4.846,5.235c-0.127,0.453-0.984,0.988-1.24,1.515c-0.851,0.915-1.576,1.891-2.689,2.608
			c-0.19,0.469-0.722,0.731-0.916,1.186l-0.255,0.324v-0.125c-0.657,0.388-0.527,0.717-1.055,1.31
			c-1.18,1.239-2.553,2.351-3.537,3.728c-1.501,1.971-3.213,3.61-4.771,5.508c-0.403,0.527-0.986,0.724-1.318,1.443
			c-1.304,0.981-2.032,2.029-3.013,3.332c-0.595,0.262-1.055,0.981-1.639,1.383c-0.194,0.396-0.72,0.66-0.72,1.174
			c-1.308,1.508-2.818,2.818-3.992,4.393c-0.33,0.124-0.469,0.595-0.79,0.777c-0.466,0.338-0.528,0.923-0.981,1.193
			c-0.39,0.257-0.785,0.388-0.785,1.048c-0.259,0.057-0.395,0.38-0.592,0.584c-0.653,0.653-1.569,1.436-2.227,2.293
			c-0.586,0.917-1.638,1.898-2.366,2.753c-0.388,0-0.315,0.398-0.586,0.455c-0.915,1.121-2.218,2.228-2.94,3.405
			c-1.124,1.313-2.56,2.426-3.608,3.934c-0.852,0.652-1.236,1.833-2.163,2.358c-1.894,2.426-4,4.455-5.702,6.879
			c-1.626,1.838-3.012,3.859-4.523,5.895c-1.958,1.705-4.119,2.884-6.155,4.525c-0.446,0.183-0.524-0.198-0.783-0.331
			c-0.397-0.657,0-2.102-0.125-2.431c0.065-1.962,2.036-2.819,2.351-4.715c-0.256-0.259,0.256-0.661,0.133-1.107
			c0.123-0.718,0.332-1.516,0.597-2.097c0.061-1.845,0.714-3.214,0.978-4.92c0.265-0.33,0.395-0.784,0.581-1.18
			c0.671-1.246,1.124-2.747,2.165-3.794c0.14-0.395,0.337-0.856,0.65-1.193c0.733-0.974,1.121-1.954,2.029-2.806
			c0.207-0.462,1.055-0.395,0.861-1.245c1.052-0.46,1.18-1.707,2.165-2.227c0-0.585,0.718-0.717,0.844-1.243
			c0.794-0.784,1.778-1.436,2.367-2.425c0.466-0.198,0.582-0.724,0.977-0.908c0.327-0.659,0.908-0.988,1.18-1.574
			c1.186-0.789,1.835-2.043,2.754-2.951c0.4-0.322,0.718-0.857,1.048-1.311c0.197,0.064,0.256-0.133,0.256-0.265
			c0.848-0.855,1.577-1.632,2.299-2.622c0.384-0.197,0.649-0.65,0.982-1.045c0.658-0.398,0.981-1.239,1.644-1.641
			c-0.074-0.258,0.12-0.125,0.259-0.191c0.908-1.179,2.154-2.103,3.014-3.215c0.391,0.14,0.06-0.388,0.391-0.388
			c1.835-1.964,3.729-3.743,5.563-5.765c0.469-0.264,0.59-0.923,1.118-1.252c2.102-2.416,4.518-4.915,6.547-7.264
			c1.317-1.114,2.556-2.624,3.921-3.677c0.341-0.322,0.664-0.579,0.923-0.974c0.787-0.99,1.773-1.641,2.757-2.563
			c0.139-0.455,0.784-0.775,1.106-1.238c0.272-0.132,0.527-0.396,0.668-0.719c0.453-0.066,0.453-0.782,1.047-0.857
			c0.454-0.519,0.784-1.179,1.37-1.567c0.263,0.066,0.263-0.14,0.322-0.264c-0.135-0.322,0.335-0.131,0.335-0.322
			c0.199-0.204,0.323-0.527,0.528-0.602v0.075c0.261-0.593,1.169-0.724,1.374-1.443c2.878-2.688,5.373-5.961,8.382-8.649
			c0.721-0.916,1.773-1.772,2.556-2.681c0.858-1.245,2.352-2.3,3.081-3.612c0.333-0.131,0.523-0.453,0.779-0.717
			c0.729-0.783,1.171-1.501,2.098-2.228c0.59-0.657,1.109-1.375,1.773-2.036c0.391-0.643,1.31-0.98,1.497-1.763
			c0.14,0,0.267-0.322,0.267-0.067c0.781-0.782,1.375-1.508,2.018-2.351c0.671-0.131,0.799-0.988,1.393-1.186
			c0.581-0.85,1.375-1.31,1.9-2.233c0.904-0.775,1.633-1.767,2.617-2.351c0-0.388,0.455-0.331,0.535-0.651
			c1.041-1.245,2.345-2.417,3.399-3.669c0.838-0.324,1.046-1.181,1.839-1.576c-0.132-0.322,0.318-0.131,0.256-0.454
			c0.652-0.521,0.984-1.181,1.766-1.714c-0.067-0.119,0.068-0.119,0.205-0.191c0.453-0.586,0.97-1.238,1.501-1.7
			c0.858-1.179,1.9-1.903,2.622-3.075c0.71-0.395,1.041-1.121,1.568-1.707c0.922-0.322,1.113-1.237,1.965-1.7
			c0.919-1.053,2.099-1.77,2.889-3.017c1.436-1.114,2.49-2.293,3.792-3.662c0.918-1.128,1.973-1.781,2.888-2.82
			c1.703-2.102,3.728-3.867,5.299-6.034c0.524-0.331,0.729-0.845,1.318-1.041c-0.076-0.264,0.457-0.206,0.32-0.593
			c0.205,0.06,0.266,0,0.332-0.124v-0.147c0.265-0.058,0.393-0.388,0.59-0.577c1.304-0.982,2.032-2.301,3.207-3.35
			c0.265,0,0.331-0.395,0.521-0.519c0.528-0.584,1.242-1.245,1.773-1.831c0.32-0.856,0.914-1.251,1.566-1.772l0.205-0.395
			l0.058,0.057c0.851-0.717,1.645-1.632,2.227-2.539c0.337-0.075,0.337-0.406,0.595-0.595c1.771-2.036,3.669-3.677,5.303-5.828
			c0.787-1.114,1.83-1.963,2.816-3.026c0.859-0.71,1.644-1.567,2.5-2.342c1.11-0.793,1.949-1.847,3.084-2.682
			c0.058,0,0.184,0.058,0.248-0.073c0.272-0.586,1.121-0.667,1.576-1.121c0.453-0.595,1.114-0.775,1.702-1.04
			C419.201,154.668,420.64,154.668,421.361,155.139"/>
		<path fill="#E0000C" d="M453.056,158.866c0.46,0.453,1.379,0.395,1.907,0.783c0.85-0.123,0.984,0.793,1.767,0.924
			c0.974,0.257,1.509,0.915,2.417,1.311c3.287,2.021,5.968,5.169,9.102,7.133c0.329,0.206,0.4,0.661,0.864,0.593
			c0.521,0.793,1.363,0.859,1.832,1.634c1.107,0.797,1.971,1.838,3.214,2.431c0.588,0.916,1.572,1.436,2.418,2.089
			c1.385,0.922,2.62,2.165,4.122,3.024c1.185,1.443,3.019,1.831,4.256,3.273c0.453,0.255,0.727,0.719,1.252,0.909
			c0.915,0.731,1.645,1.639,2.631,2.167c1.567,0.982,2.746,2.292,4.379,3.273c0.465,0.395,0.899,0.981,1.572,1.247
			c0.127,0.395,0.453,0.527,0.658,0.79c2.287,1.377,3.856,3.406,6.081,4.849c0.208,0.388,0.861,0.388,1.051,0.841
			c1.695,1.452,3.544,2.762,5.116,4.256c1.18,0.731,2.224,1.515,3.279,2.431c1.307,1.048,2.413,2.226,3.807,3.077
			c1.168,0.857,2.272,1.838,3.275,2.753c0.436,0.264,1.163,0.783,1.628,1.303c0.981,0.931,2.234,1.779,3.34,2.564
			c1.57,1.765,3.859,2.622,5.375,4.453c0.446,0.066,0.592,0.593,1.048,0.659c0.059,0.388,0.586,0.388,0.843,0.653
			c0.988,0.981,2.104,1.574,3.151,2.555c0.716,0.124,1.045,1.046,1.698,1.107c0.522,0.915,1.705,1.31,2.291,2.226
			c0.6,0.658,1.512,0.989,2.162,1.582c1.773,1.632,3.803,2.942,5.576,4.519c0.718,0.513,1.182,1.172,1.966,1.567
			c0.777,1.048,2.152,1.641,3.137,2.624c0.394,0.32,0.79,0.585,1.258,0.916c0.249,0.196,0.651,0.328,0.906,0.519
			c0,0.336,0.398,0.264,0.457,0.528c1.508,1.121,2.679,2.498,4.195,3.603c2.936,2.489,5.896,5.111,8.906,7.602
			c2.298,1.642,4.521,4.058,7.016,5.698c0.128,0.719,0.849,0.784,1.238,1.312c1.108,0.528,1.64,1.443,2.753,2.036
			c1.307,1.31,2.886,2.284,4.46,3.397c1.309,1.45,3.012,2.491,4.391,3.86c0.573,0.28,0.912,0.871,1.425,1.195
			c0.073,0.19,0.197,0,0.274-0.074c0.984,0.922,2.103,1.772,3.155,2.695c1.236,1.172,2.67,1.896,3.916,3.077
			c0.256,0.46,0.723,0.848,1.24,1.179c1.125,0.974,2.363,1.963,3.47,3.068c0.473,0.205,0.791,0.784,1.252,0.988
			c0.196,0.331,0.52,0.396,0.717,0.719h0.198c1.317,1.31,2.622,2.564,3.537,4.13c0.248,0.329,0.463,0.908,0.729,1.245
			c1.052,1.634,1.37,4.058,1.052,6.151c-0.133,0.331-0.205,0.791-0.471,0.984c-0.32,0.724-0.978,1.317-1.311,2.034
			c-0.446,0-0.325,0.397-0.589,0.593c-0.466,0.324-0.976,0.579-1.234,1.039c-0.666,0.2-0.995,0.931-1.516,1.114
			c-0.129,0.462-0.46,0.595-0.85,0.791c-1.435,0.915-2.622,2.094-4.057,2.944c-0.595,0.331-1.185,0.52-1.655,0.922
			c-0.969,0.25-1.496,1.179-2.413,1.501c-1.177,0.792-2.494,1.312-3.674,2.036h0.078v0.191h-0.078c0-0.065-0.06-0.065-0.06-0.133
			c-0.337,0.329-0.907,0.273-1.182,0.66c-0.377,0.189-0.787,0.27-1.177,0.453c-0.588-0.065-0.588,0.596-1.171,0.528
			c-0.338,0.395-1.055,0.521-1.574,0.593c-0.8,0.521-1.773,0.645-2.688,1.039c-0.784,0.264-1.904,0.065-2.701,0.396v0.065
			c-0.315-0.198-0.969-0.198-1.232,0l-0.333-0.131l-0.062,0.131c-1.121,0.139-1.759-0.257-2.817-0.131
			c-0.325-0.266-1.043,0.065-1.317-0.266l-1.24-0.065c0-0.057-0.06-0.117-0.06-0.117c-0.535,0.117-1.311-0.205-1.842-0.401
			c-0.858,0-1.43-0.198-2.158-0.397c-0.138-0.455-0.591-0.322-0.926-0.527c-0.434-0.065-0.772-0.388-1.303-0.33
			c-0.331-0.453-0.852-0.571-1.372-0.651c-2.155-0.85-4.198-2.028-6.095-3.141c-0.332-0.059-0.651-0.259-0.85-0.521
			c-0.453-0.133-0.651-0.719-1.165-0.784c-0.673-0.264-0.922-0.85-1.59-1.062c-0.255-0.322-0.841-0.448-1.111-0.835
			c-0.189,0-0.189-0.395-0.528-0.262c-0.192-0.198-0.314-0.593-0.647-0.726c-0.531,0.067-0.664-0.46-0.984-0.717
			c-0.719-0.138-0.908-1.114-1.831-1.114c-0.064-0.329-0.397-0.329-0.593-0.6c-2.158-1.369-3.802-3.206-5.634-4.966
			c-0.455-0.204-0.782-0.657-1.178-0.922c-0.201-0.329-0.463-0.653-0.85-0.857c-1.315-1.369-2.891-2.475-4.267-3.785
			c0.144-0.331-0.255-0.206-0.318-0.264c-0.404-0.462-0.857-0.99-1.448-1.378c-0.907-1.303-2.225-2.162-3.151-3.281
			c-0.315-0.191-0.44-0.586-0.776-0.85c-0.856-0.462-1.37-1.632-2.161-2.036c-0.453-0.578-1.043-1.172-1.574-1.758
			c-0.318,0.119-0.124-0.262-0.395-0.206c-0.653-0.584-1.305-1.501-2.147-1.896c-0.273-0.19-0.395-0.528-0.599-0.85
			c-0.719-0.469-1.056-1.246-1.767-1.837c-0.592-0.126-0.786-0.915-1.261-1.247c-0.453-0.521-1.023-0.988-1.36-1.434
			c-1.377-1.312-2.68-2.624-3.93-4.065c-0.919-0.586-1.317-1.443-2.157-2.095c-0.277-0.469-0.534-0.791-0.987-1.048
			c-1.052-0.792-1.711-1.829-2.622-2.82c-0.784-0.65-1.436-1.369-2.225-2.1c-0.074-0.324-0.397-0.521-0.592-0.653
			c-0.662-0.906-1.834-1.641-2.56-2.489c-1.378-1.179-2.284-2.549-3.726-3.67c-0.588-0.717-1.317-1.499-2.039-2.093
			c-1.764-2.104-3.669-3.86-5.564-5.83c-0.392-0.264-0.725-0.652-0.982-1.114c-0.71-0.719-1.572-1.172-2.225-2.095
			c-1.19-1.31-2.622-2.358-3.737-3.67c-2.289-2.034-4.529-4.451-6.877-6.547c-0.593-0.988-1.508-1.648-2.292-2.482
			c-1.57-1.583-3.148-3.29-4.724-4.789c-1.565-1.179-2.944-2.622-4.107-4.13c-0.404-0.126-0.531-0.528-0.866-0.661
			c0-0.117-0.14-0.058-0.196-0.058c0.057-0.197-0.13-0.264-0.257-0.322c-0.725-0.857-1.638-1.576-2.358-2.365
			c-0.597-0.322-0.915-0.981-1.446-1.172c-0.195-0.462-0.847-0.796-1.183-1.186c-0.916-0.719-1.691-1.574-2.358-2.489
			c-0.974-0.719-1.7-1.569-2.55-2.353c0-0.526-0.588-0.131-0.52-0.659c-1.044-0.651-1.841-1.903-2.884-2.555
			c-0.455-0.719-1.047-1.174-1.705-1.765c-0.266-0.396-0.779-0.659-1.052-1.121c-0.262-0.454-0.839-0.652-1.045-1.048
			c-0.517-0.191-0.85-0.717-1.303-0.981c-0.205-0.653-0.984-0.782-1.179-1.303c-0.33,0.124-0.202-0.331-0.395-0.397
			c-1.261-1.179-2.303-2.358-3.608-3.536c-0.465-0.793-1.438-1.246-2.039-2.029c-1.953-1.971-3.596-4.263-5.558-6.169
			c-1.048-1.567-2.689-2.744-2.946-4.913c-0.665-1.174-0.527-3.399,0.198-4.513c0.514-1.376,1.7-2.364,2.417-3.676
			c0.984-0.974,2.363-1.833,3.277-2.944c1.772-0.917,3.013-2.424,4.791-3.404c0.194-0.653,1.041-0.593,1.307-1.247
			c1.37-0.916,2.751-2.153,4.574-2.557C450.708,158.604,451.692,158.94,453.056,158.866"/>
	</g>
	<path d="M479.147,389.97H468.11l-4.392-11.417h-20.086l-4.148,11.417h-10.763l19.576-50.259h10.723L479.147,389.97z
		 M460.463,370.084l-6.924-18.638l-6.784,18.638H460.463z"/>
	<g>
		<path d="M505.336,371.491v-8.466h21.865v20.023c-2.121,2.051-5.194,3.858-9.23,5.434c-4.035,1.559-8.122,2.345-12.254,2.345
			c-5.264,0-9.842-1.106-13.746-3.31c-3.911-2.205-6.847-5.354-8.811-9.455c-1.969-4.103-2.942-8.57-2.942-13.388
			c0-5.23,1.091-9.889,3.287-13.961c2.194-4.064,5.398-7.176,9.63-9.352c3.219-1.662,7.226-2.505,12.03-2.505
			c6.237,0,11.113,1.31,14.615,3.925c3.515,2.622,5.772,6.239,6.774,10.853l-10.078,1.882c-0.71-2.467-2.036-4.416-3.99-5.836
			c-1.956-1.436-4.401-2.152-7.321-2.152c-4.441,0-7.958,1.405-10.575,4.217c-2.618,2.814-3.921,6.982-3.921,12.524
			c0,5.954,1.318,10.421,3.968,13.41c2.655,2.973,6.133,4.476,10.432,4.476c2.124,0,4.254-0.42,6.381-1.261
			c2.15-0.821,3.973-1.838,5.515-3.023v-6.38H505.336z"/>
	</g>
	<polygon points="547.6,389.969 529.642,339.713 540.636,339.713 553.358,376.902 565.66,339.713 576.428,339.713 558.436,389.969 	
		"/>
	<rect x="583.375" y="368.167" width="39.05" height="7.198"/>
	<rect x="429.593" y="403.137" width="3.985" height="30.079"/>
	<g>
		<path d="M440.002,433.216V403.13h3.683v10.788c1.735-1.992,3.903-2.989,6.54-2.989c1.605,0,3.014,0.315,4.21,0.953
			c1.181,0.637,2.036,1.517,2.543,2.638c0.517,1.128,0.775,2.753,0.775,4.883v13.813h-3.697v-13.813
			c0-1.838-0.403-3.199-1.196-4.027c-0.804-0.849-1.939-1.268-3.399-1.268c-1.1,0-2.128,0.286-3.088,0.85
			c-0.967,0.565-1.647,1.34-2.065,2.315c-0.411,0.974-0.623,2.314-0.623,4.012v11.932H440.002z"/>
		<path d="M463.174,433.216v-21.795h3.332v3.31c0.843-1.553,1.622-2.571,2.352-3.068c0.712-0.485,1.494-0.733,2.365-0.733
			c1.243,0,2.507,0.388,3.792,1.195l-1.267,3.419c-0.902-0.535-1.806-0.797-2.707-0.797c-0.808,0-1.531,0.248-2.183,0.725
			c-0.638,0.49-1.091,1.165-1.371,2.021c-0.414,1.311-0.615,2.755-0.615,4.32v11.403H463.174z"/>
		<path d="M492.029,426.192l3.818,0.477c-0.607,2.241-1.721,3.96-3.351,5.192c-1.626,1.23-3.708,1.845-6.238,1.845
			c-3.189,0-5.72-0.98-7.59-2.944c-1.866-1.963-2.805-4.707-2.805-8.254c0-3.677,0.956-6.517,2.837-8.546
			c1.896-2.022,4.341-3.031,7.352-3.031c2.912,0,5.294,0.988,7.141,2.973c1.852,1.985,2.776,4.782,2.776,8.378
			c0,0.22-0.008,0.542-0.034,0.974h-16.237c0.13,2.395,0.801,4.233,2.016,5.508c1.227,1.275,2.742,1.903,4.565,1.903
			c1.355,0,2.509-0.351,3.463-1.06C490.712,428.903,491.463,427.752,492.029,426.192 M479.895,420.224h12.163
			c-0.159-1.832-0.616-3.208-1.392-4.123c-1.172-1.415-2.694-2.139-4.578-2.139c-1.69,0-3.116,0.57-4.276,1.705
			C480.655,416.804,480.019,418.328,479.895,420.224"/>
		<path d="M511.285,423.556l3.752-0.329c0.175,1.502,0.586,2.732,1.233,3.699c0.653,0.965,1.664,1.743,3.038,2.337
			c1.363,0.598,2.909,0.892,4.614,0.892c1.522,0,2.857-0.228,4.022-0.674c1.165-0.444,2.029-1.069,2.603-1.859
			c0.559-0.784,0.843-1.648,0.843-2.578c0-0.938-0.274-1.767-0.829-2.468c-0.545-0.703-1.437-1.296-2.705-1.781
			c-0.804-0.308-2.585-0.797-5.349-1.464c-2.766-0.666-4.707-1.282-5.805-1.875c-1.441-0.754-2.511-1.691-3.227-2.805
			c-0.695-1.113-1.052-2.358-1.052-3.752c0-1.506,0.435-2.935,1.296-4.254c0.862-1.324,2.118-2.321,3.771-3.003
			c1.657-0.682,3.511-1.025,5.523-1.025c2.234,0,4.2,0.359,5.897,1.077c1.714,0.71,3.017,1.781,3.94,3.171
			c0.923,1.392,1.406,2.975,1.477,4.746l-3.816,0.28c-0.209-1.891-0.905-3.341-2.084-4.308c-1.189-0.974-2.938-1.459-5.241-1.459
			c-2.413,0-4.162,0.441-5.273,1.328c-1.096,0.878-1.647,1.947-1.647,3.185c0,1.084,0.393,1.978,1.164,2.672
			c0.766,0.697,2.773,1.415,6.017,2.147c3.222,0.725,5.442,1.37,6.646,1.919c1.756,0.806,3.042,1.822,3.884,3.068
			c0.829,1.238,1.25,2.659,1.25,4.276c0,1.599-0.449,3.114-1.381,4.52c-0.908,1.42-2.227,2.52-3.932,3.311
			c-1.729,0.792-3.663,1.18-5.806,1.18c-2.723,0-5.014-0.388-6.856-1.193c-1.838-0.793-3.277-1.985-4.323-3.584
			C511.891,427.364,511.335,425.571,511.285,423.556"/>
	</g>
	<path d="M540.243,407.377h3.704v-4.24h-3.704V407.377z M540.243,433.216h3.704v-21.787h-3.704V433.216z"/>
	<g>
		<path d="M563.766,425.232l3.626,0.47c-0.397,2.505-1.413,4.46-3.047,5.887c-1.638,1.415-3.649,2.117-6.011,2.117
			c-2.99,0-5.39-0.972-7.197-2.921c-1.82-1.957-2.728-4.747-2.728-8.385c0-2.352,0.388-4.41,1.169-6.183
			c0.786-1.749,1.965-3.085,3.555-3.963c1.611-0.885,3.341-1.324,5.216-1.324c2.36,0,4.299,0.593,5.801,1.794
			c1.512,1.193,2.481,2.893,2.893,5.103l-3.591,0.549c-0.336-1.464-0.939-2.562-1.808-3.309c-0.876-0.732-1.919-1.106-3.153-1.106
			c-1.856,0-3.372,0.667-4.536,1.999c-1.166,1.333-1.745,3.449-1.745,6.342c0,2.923,0.56,5.046,1.686,6.388
			c1.119,1.326,2.579,1.976,4.391,1.976c1.446,0,2.652-0.438,3.637-1.324C562.888,428.455,563.493,427.079,563.766,425.232"/>
		<path d="M570.87,433.216V403.13h3.685v10.788c1.735-1.992,3.906-2.989,6.531-2.989c1.613,0,3.026,0.315,4.212,0.953
			c1.193,0.637,2.036,1.517,2.554,2.638c0.517,1.128,0.765,2.753,0.765,4.883v13.813h-3.689v-13.813
			c0-1.838-0.408-3.199-1.205-4.027c-0.797-0.849-1.93-1.268-3.397-1.268c-1.093,0-2.123,0.286-3.083,0.85
			c-0.963,0.565-1.653,1.34-2.073,2.315c-0.401,0.974-0.614,2.314-0.614,4.012v11.932H570.87z"/>
		<path d="M609.086,426.192l3.823,0.477c-0.607,2.241-1.729,3.96-3.349,5.192c-1.625,1.23-3.711,1.845-6.242,1.845
			c-3.182,0-5.708-0.98-7.585-2.944c-1.866-1.963-2.79-4.707-2.79-8.254c0-3.677,0.938-6.517,2.82-8.546
			c1.897-2.022,4.343-3.031,7.353-3.031c2.912,0,5.288,0.988,7.145,2.973c1.842,1.985,2.766,4.782,2.766,8.378
			c0,0.22,0,0.542-0.016,0.974h-16.259c0.14,2.395,0.808,4.233,2.036,5.508c1.215,1.275,2.73,1.903,4.561,1.903
			c1.346,0,2.5-0.351,3.458-1.06C607.768,428.903,608.53,427.752,609.086,426.192 M596.955,420.224h12.179
			c-0.164-1.832-0.632-3.208-1.403-4.123c-1.171-1.415-2.702-2.139-4.57-2.139c-1.706,0-3.128,0.57-4.28,1.705
			C597.72,416.804,597.082,418.328,596.955,420.224"/>
		<path d="M617.45,433.216v-21.795h3.325v3.31c0.843-1.553,1.629-2.571,2.354-3.068c0.715-0.485,1.498-0.733,2.361-0.733
			c1.243,0,2.515,0.388,3.8,1.195l-1.266,3.419c-0.905-0.535-1.815-0.797-2.716-0.797c-0.804,0-1.532,0.248-2.18,0.725
			c-0.638,0.49-1.095,1.165-1.37,2.021c-0.411,1.311-0.613,2.755-0.613,4.32v11.403H617.45z"/>
		<path d="M632.014,433.216V403.13h3.687v10.788c1.735-1.992,3.911-2.989,6.536-2.989c1.615,0,3.014,0.315,4.211,0.953
			c1.193,0.637,2.039,1.517,2.553,2.638c0.517,1.128,0.765,2.753,0.765,4.883v13.813h-3.685v-13.813
			c0-1.838-0.411-3.199-1.204-4.027c-0.797-0.849-1.932-1.268-3.403-1.268c-1.092,0-2.121,0.286-3.082,0.85
			c-0.962,0.565-1.648,1.34-2.066,2.315c-0.411,0.974-0.623,2.314-0.623,4.012v11.932H632.014z"/>
		<path d="M670.237,426.192l3.818,0.477c-0.608,2.241-1.714,3.96-3.339,5.192c-1.629,1.23-3.722,1.845-6.239,1.845
			c-3.195,0-5.721-0.98-7.587-2.944c-1.876-1.963-2.801-4.707-2.801-8.254c0-3.677,0.94-6.517,2.835-8.546
			c1.894-2.022,4.329-3.031,7.346-3.031c2.907,0,5.285,0.988,7.148,2.973c1.838,1.985,2.768,4.782,2.768,8.378
			c0,0.22-0.014,0.542-0.028,0.974h-16.253c0.142,2.395,0.814,4.233,2.029,5.508c1.218,1.275,2.748,1.903,4.564,1.903
			c1.353,0,2.496-0.351,3.467-1.06C668.922,428.903,669.676,427.752,670.237,426.192 M658.111,420.224h12.174
			c-0.17-1.832-0.631-3.208-1.394-4.123c-1.187-1.415-2.702-2.139-4.577-2.139c-1.705,0-3.134,0.57-4.284,1.705
			C658.872,416.804,658.244,418.328,658.111,420.224"/>
	</g>
	<path d="M678.662,407.377h3.695v-4.24h-3.695V407.377z M678.662,433.216h3.695v-21.787h-3.695V433.216z"/>
	<g>
		<path d="M695.891,429.912l0.539,3.269c-1.047,0.212-1.971,0.32-2.798,0.32c-1.34,0-2.388-0.213-3.112-0.636
			c-0.751-0.411-1.271-0.98-1.559-1.671c-0.301-0.696-0.453-2.146-0.453-4.364v-12.539h-2.713v-2.87h2.713v-5.405l3.668-2.211v7.616
			h3.716v2.87h-3.716v12.751c0,1.047,0.057,1.729,0.198,2.027c0.131,0.301,0.344,0.542,0.64,0.719
			c0.29,0.176,0.706,0.271,1.255,0.271C694.679,430.059,695.221,430.008,695.891,429.912"/>
	</g>
	<rect x="700.624" y="429.015" width="4.214" height="4.201"/>
</g>
</svg>
