<?xml version="1.0" encoding="utf-8"?>
<!-- Generator: Adobe Illustrator 27.8.0, SVG Export Plug-In . SVG Version: 6.00 Build 0)  -->
<svg version="1.1" id="Ebene_1" xmlns="http://www.w3.org/2000/svg" xmlns:xlink="http://www.w3.org/1999/xlink" x="0px" y="0px"
	 viewBox="0 0 776.2 275.2" style="enable-background:new 0 0 776.2 275.2;" xml:space="preserve">
<style type="text/css">
	.st0{clip-path:url(#SVGID_00000105424504613384499600000014708583640641581467_);}
	.st1{fill:#F2A603;}
	.st2{fill:#FFFFFF;}
	.st3{fill:#1C1C3C;}
</style>
	<g>
	<g>
		<defs>
			<rect id="SVGID_1_" y="0.3" width="272.1" height="272.1"/>
		</defs>
		<use xlink:href="#SVGID_1_"  style="overflow:visible;fill:#1C1C3C;"/>
		<clipPath id="SVGID_00000145768031245631475010000003362305553792750490_">
			<use xlink:href="#SVGID_1_"  style="overflow:visible;"/>
		</clipPath>
		<g style="clip-path:url(#SVGID_00000145768031245631475010000003362305553792750490_);">
			<path class="st1" d="M242.9,210.7c-23.5-21.7-44.8-33.4-67-36.8c-3.2-0.5-6.5-0.8-9.7-1c-27.2-1.4-52.1,8.6-76.1,18.3l-3.9,1.6
				c-21.2,8.5-47.7,19.1-72.8,13.9c-1.4-0.3-2.8-0.6-4.2-1c-24-6.6-45.2-29.8-61.3-67.2l-7.3,3.2C-42.4,181.2-19.4,206,7,213.3
				c1.6,0.4,3.2,0.8,4.7,1.1c27.5,5.6,55.2-5.4,77.4-14.3l3.9-1.6c23.2-9.3,47.3-19,72.7-17.7c3,0.2,6,0.5,8.9,0.9
				c20.5,3.2,40.5,14.2,62.8,34.8c16.3,15,32,37.4,42,59.9l7.3-3.3C276.2,249.4,260.2,226.6,242.9,210.7z"/>
			<path class="st2" d="M217.8,234.9c-22.5-18.2-49.7-26.2-76.6-22.7c-17.5,2.3-36,9-54,15.4c-29.4,10.6-59.8,21.5-87.2,14
				c-23.1-6.4-39.5-25.1-56.6-64.7l-7.3,3.2c17.9,41.5,36.4,62.2,61.8,69.2c29.8,8.2,61.4-3.2,92-14.2c18.3-6.6,35.6-12.8,52.3-15
				c25.1-3.3,49.4,4,70.5,21c22.9,18.5,41.3,48.8,50.4,83.2l7.7-2.1C261.4,286.3,242,254.5,217.8,234.9z"/>
			<path class="st2" d="M151.7,245.7c-21.4-0.8-41.4,7.9-60.8,16.3c-4.5,1.9-8.7,3.8-12.9,5.5c-22,8.9-47.5,17.9-71.8,11.1
				c-25.8-7.2-50.2-32.3-65.1-67.1l-7.4,3.2c15.9,37,42.2,63.8,70.3,71.7c6.8,1.9,13.5,2.7,20.3,2.7c19.9,0,39.3-7,56.7-14.1
				c4.3-1.8,8.8-3.7,13.1-5.5c18.5-8,37.7-16.3,57.3-15.6c24.3,0.9,43.9,16.9,62.9,32.3l0.6,0.5l5-6.2l-0.6-0.5
				C200.3,264.3,178.6,246.7,151.7,245.7z"/>
			<path class="st2" d="M270.3,143c-12.8-8.9-27.8-14.3-42.4-19.6c-23.8-8.6-46.3-16.7-59.2-39c-4-6.9-7.2-14.5-10.2-21.8
				c-1.9-4.5-3.8-9.2-6-13.7c-5.2-11-12.5-21.9-22.1-33.1C114.5-2.6,94.5-18,70.8-29.9C57.3-36.6,42.2-42.4,26-47.1l-2.2,7.7
				c15.8,4.6,30.4,10.2,43.4,16.7c22.8,11.4,42,26.1,57.1,43.8c9.2,10.7,16,21,21,31.3c2.1,4.4,4,8.9,5.8,13.3
				c3.2,7.6,6.4,15.4,10.7,22.7c14.4,24.8,39.3,33.8,63.4,42.5c14,5.1,28.5,10.3,40.5,18.6c13.7,9.5,23.7,23.4,31.4,43.7l7.5-2.9
				C296.3,168.9,285.1,153.4,270.3,143z"/>
			<path class="st2" d="M234.5,86.3c-19.8-8.7-35.5-22.5-46.7-41.1c-23.7-39.4-21.5-65.2-15.4-80l-7.4-3
				c-12.2,29.8,1.9,63.9,16,87.2c12,20,29,34.9,50.3,44.3c5.8,2.5,12.2,5,18.9,7.6c19.6,7.5,41.8,16,54.1,29.1l5.8-5.5
				c-13.5-14.4-36.7-23.3-57.1-31.1C246.4,91.2,240.1,88.8,234.5,86.3z"/>
			<path class="st2" d="M236.1,49.1c-11.7-9.3-19-22.4-20.1-35.9c-2.4-30.2,2.6-51.9,15.2-66.6l-6.1-5.2c-14,16.3-19.6,40-17.1,72.4
				c1.2,15.8,9.7,30.9,23.1,41.6c9.9,7.8,51.3,27.1,76,38.6c5.7,2.7,10.3,4.8,13.2,6.2l3.5-7.2c-3-1.4-7.6-3.6-13.3-6.2
				C287.7,76.1,245.3,56.4,236.1,49.1z"/>
			<path class="st2" d="M250,7.8c-3.8-8.2-3.7-16.8,0.3-26.3c1.4-3.4,3.2-7,5-10.4c1.8-3.6,3.7-7.3,5.1-10.7l-7.4-3
				c-1.3,3.2-3,6.6-4.8,10.1c-1.8,3.6-3.7,7.3-5.2,10.9C238.1-10,238,1,242.7,11.1c11.8,25.6,51.4,41.2,84.5,51.8l2.4-7.6
				C300.5,46,260.6,30.9,250,7.8z"/>
			<path class="st2" d="M177.9,135.9c-10.3-1.9-20.5-2.3-29.6-1.1c-2.5,0.3-5,0.8-7.5,1.3c-2.9-37.5-17.8-73-43.2-102.8
				C75.8,8.7,50-9.6,25.1-27.3c-11.7-8.3-23.8-16.8-35.4-26l-4.9,6.3c11.8,9.3,24,17.9,35.7,26.2c25.7,18.2,50,35.4,71,59.2
				c24.6,28.8,38.8,63.1,41.4,99.4c-9.7,2.6-19.3,6.2-28.7,10C99,113.2,90.2,88,77.1,71.1C62.3,52,42,34.4,18.4,20.4
				C-0.4,9.1-16.6-6.9-32.3-22.3c-2.3-2.3-4.7-4.6-7-6.9l-5.6,5.7c2.3,2.3,4.7,4.6,7,6.9c16,15.8,32.6,32.2,52.2,43.9
				C37,40.8,56.5,57.7,70.8,76c12.3,15.9,20.9,41.1,25.7,75.1c-0.6,0.2-1.2,0.5-1.8,0.7c-13.5,5.6-26.5,11.1-39.6,14.2
				c3.3-4.1,5.2-8.1,5.6-8.9c5.5-10.4,6.9-23.3,3.7-36.4c-7.5-31.4-35.8-55.6-86.5-74.2c-19.3-7.1-27.9-23-37-39.9
				c-5.4-10-11-20.4-19.1-28.8l-5.8,5.6c7.3,7.6,12.4,17,17.8,27C-56.7,27.9-47,45.9-24.8,54c48,17.6,74.7,40,81.5,68.5
				c2.7,11.3,1.6,22.2-3.1,30.9l-0.1,0.3c-1.6,3.6-7.5,13.4-15.1,14.8l0,0.1c-7.5,0.4-15-0.2-22.6-2.3c-4.1-1.1-8.1-2.7-12.1-4.7
				c10.7-4,20.8-12.9,23-24.1c4.4-22-14-33.9-28.8-43.4l-0.4-0.3c-5.5-3.5-12.7-6-19.6-8.5c-6-2.1-12.3-4.3-16.8-7l-4.1,6.9
				c5.2,3.1,11.8,5.4,18.3,7.7c6.5,2.3,13.2,4.6,17.9,7.6l0.4,0.3C8.1,110.3,22,119.3,18.7,136c-2.1,10.6-14.7,18.9-25,19.9
				c-17.3-11.9-32.6-31.7-43.3-56.3l-7.3,3.2c11.3,26.1,27.7,47,46.3,59.8c0,0,1.3,1.4,2.1,1.4c7.1,4.6,14.5,8.1,22.1,10.2
				c29.2,8,57.2-3.6,84.2-14.9c16.8-7,34.2-14.2,51.5-16.5c8.3-1.1,17.7-0.7,27.1,1.1c48.7,9.1,90.4,44.1,109,91.2l7.4-2.9
				C273.2,182.4,229.2,145.5,177.9,135.9z"/>
		</g>
	</g>
		<path class="st3" d="M362,170.9c-1.3,0-2.4-0.5-3.3-1.4c-0.9-0.9-1.4-2-1.4-3.3V42.1c0-1.3,0.5-2.4,1.4-3.3c0.9-0.9,2-1.4,3.3-1.4
		h15.5c1.4,0,2.6,0.5,3.4,1.4c0.9,0.9,1.3,2,1.3,3.3v7.9c3.1-4.2,7.3-7.7,12.4-10.4c5.1-2.8,11.5-4.1,19.1-4.1
		c6.9,0,13,1.1,18.1,3.3c5.1,2.2,9.4,5.4,12.8,9.5c3.4,4.1,6,9,7.9,14.6c1.8,5.6,2.9,11.9,3.1,18.7c0.1,2.2,0.2,4.5,0.2,6.9
		c0,2.4-0.1,4.7-0.2,7.1c-0.1,6.6-1.1,12.6-2.9,18.2c-1.8,5.6-4.5,10.4-8,14.5c-3.5,4.1-7.8,7.4-12.9,9.7
		c-5.1,2.4-11.1,3.5-18.1,3.5c-7.1,0-13.1-1.3-18.1-3.8c-5-2.6-9-5.9-12.2-10.1v38.7c0,1.3-0.4,2.4-1.3,3.3c-0.9,0.9-2,1.4-3.4,1.4
		H362z M406.4,120.5c5.6,0,10-1.2,13.2-3.6c3.1-2.4,5.4-5.6,6.8-9.5c1.4-3.9,2.2-8.3,2.5-13c0.3-3.9,0.3-7.9,0-11.8
		c-0.3-4.7-1.1-9-2.5-13c-1.4-3.9-3.6-7.1-6.8-9.5c-3.1-2.4-7.5-3.6-13.2-3.6c-5.4,0-9.7,1.2-13.1,3.7c-3.3,2.5-5.8,5.7-7.3,9.5
		c-1.5,3.9-2.4,7.8-2.7,11.9c-0.1,2.4-0.2,4.8-0.2,7.5c0,2.6,0.1,5.2,0.2,7.7c0.1,3.9,1,7.7,2.8,11.3c1.7,3.6,4.2,6.6,7.5,8.9
		C396.9,119.3,401.1,120.5,406.4,120.5z"/>
		<path class="st3" d="M474.8,139.5c-1.3,0-2.4-0.5-3.3-1.4c-0.9-0.9-1.4-2-1.4-3.3V4.7c0-1.3,0.5-2.4,1.4-3.3c0.9-0.9,2-1.4,3.3-1.4
		h16.3c1.3,0,2.4,0.5,3.3,1.4c0.9,0.9,1.4,2,1.4,3.3v130.1c0,1.3-0.5,2.4-1.4,3.3c-0.9,0.9-2,1.4-3.3,1.4H474.8z"/>
		<path class="st3" d="M547.7,141.5c-6.8,0-13-1.3-18.5-4c-5.5-2.7-9.9-6.3-13.1-10.8c-3.2-4.5-4.8-9.6-4.8-15.2
		c0-9.2,3.7-16.5,11.1-21.9c7.4-5.4,17.2-9.1,29.4-10.9l26.9-3.9v-4.1c0-5.5-1.4-9.8-4.1-12.8c-2.8-3-7.5-4.5-14.1-4.5
		c-4.7,0-8.5,1-11.5,2.8c-2.9,1.9-5.1,4.4-6.6,7.6c-1.1,1.7-2.6,2.6-4.5,2.6h-15.5c-1.4,0-2.5-0.4-3.2-1.2c-0.7-0.8-1.1-1.8-1.1-3.1
		c0.1-2.1,1-4.6,2.6-7.7c1.6-3,4.1-5.9,7.5-8.7c3.4-2.8,7.8-5.2,13.2-7.2c5.4-2,11.9-2.9,19.5-2.9c8.3,0,15.2,1,20.9,3
		c5.7,2,10.2,4.8,13.7,8.2c3.4,3.4,5.9,7.4,7.5,12c1.6,4.6,2.4,9.4,2.4,14.5v61.7c0,1.3-0.5,2.4-1.4,3.3c-0.9,0.9-2,1.4-3.3,1.4
		h-15.9c-1.4,0-2.6-0.5-3.4-1.4c-0.9-0.9-1.3-2-1.3-3.3v-7.7c-1.7,2.5-4,4.8-6.9,7c-2.9,2.2-6.4,3.9-10.5,5.3
		C558.2,140.8,553.3,141.5,547.7,141.5z M554.3,122.8c4.6,0,8.7-1,12.5-2.9c3.7-2,6.7-5,8.8-9.1c2.2-4.1,3.2-9.3,3.2-15.6V91
		l-19.7,3.1c-7.7,1.2-13.5,3.1-17.3,5.7c-3.8,2.6-5.7,5.8-5.7,9.6c0,2.9,0.9,5.3,2.7,7.4c1.8,2,4,3.5,6.8,4.5
		C548.4,122.3,551.3,122.8,554.3,122.8z"/>
		<path class="st3" d="M631,139.5c-1.3,0-2.4-0.5-3.3-1.4c-0.9-0.9-1.4-2-1.4-3.3V42.1c0-1.3,0.5-2.4,1.4-3.3c0.9-0.9,2-1.4,3.3-1.4
		h16.1c1.3,0,2.4,0.5,3.3,1.4c0.9,0.9,1.4,2,1.4,3.3v8.1c3.4-4.2,7.8-7.7,13.1-10.5c5.3-2.8,11.9-4.2,19.7-4.2
		c8,0,14.9,1.8,20.8,5.4c5.9,3.6,10.4,8.7,13.7,15.2c3.2,6.6,4.8,14.4,4.8,23.6v55.2c0,1.3-0.5,2.4-1.4,3.3c-0.9,0.9-2,1.4-3.3,1.4
		h-17.3c-1.3,0-2.4-0.5-3.3-1.4c-0.9-0.9-1.4-2-1.4-3.3v-54c0-7.6-1.9-13.6-5.6-17.9c-3.7-4.3-9.1-6.5-16.2-6.5
		c-6.8,0-12.3,2.2-16.3,6.5c-4.1,4.3-6.1,10.3-6.1,17.9v54c0,1.3-0.5,2.4-1.4,3.3c-0.9,0.9-2,1.4-3.3,1.4H631z"/>
		<path class="st3" d="M368.4,253c-0.9-0.9-2-1.4-3.3-1.4h-13.6c-4.7,0-8-1.5-9.9-4.5c-1.9-3-2.8-7.2-2.8-12.6v-42.6h7.8
		c1.3,0,2.4-0.5,3.3-1.4c0.9-0.9,1.4-2,1.4-3.3v-11.4c0-1.3-0.5-2.4-1.4-3.3c-0.9-0.9-2-1.4-3.3-1.4h-7.8v-32.6
		c0-1.3-0.5-2.4-1.4-3.3c-0.9-0.9-2-1.4-3.3-1.4h-15.9c-1.4,0-2.6,0.5-3.4,1.4c-0.9,0.9-1.3,2-1.3,3.3v32.6h-15.5
		c-1.3,0-2.4,0.5-3.3,1.4c-0.9,0.9-1.4,2-1.4,3.3v11.4c0,1.3,0.5,2.4,1.4,3.3c0.9,0.9,2,1.4,3.3,1.4h15.5v44.6
		c0,8.1,1.3,14.9,3.9,20.3c2.6,5.4,6.6,9.5,12,12.3c5.4,2.8,12,4.1,19.8,4.1h15.9c1.3,0,2.4-0.5,3.3-1.4c0.9-0.9,1.4-2,1.4-3.3
		v-12.2C369.8,255,369.3,253.9,368.4,253z"/>
		<path class="st3" d="M428.5,275.2c-10.5,0-19.3-1.8-26.4-5.5c-7.1-3.7-12.6-8.8-16.3-15.5c-3.7-6.7-5.9-14.5-6.4-23.4
		c-0.1-2.4-0.2-5.2-0.2-8.6c0-3.4,0.1-6.3,0.2-8.6c0.5-9,2.7-16.9,6.6-23.5c3.9-6.6,9.4-11.8,16.5-15.4c7.1-3.7,15.8-5.5,26-5.5
		c10.2,0,18.9,1.8,26,5.5c7.1,3.7,12.6,8.8,16.5,15.4c3.9,6.6,6.1,14.4,6.6,23.5c0.1,2.4,0.2,5.2,0.2,8.6c0,3.4-0.1,6.3-0.2,8.6
		c-0.5,8.9-2.7,16.7-6.4,23.4c-3.7,6.7-9.2,11.9-16.3,15.5C447.8,273.4,439,275.2,428.5,275.2z M428.5,255.8
		c6.9,0,12.3-2.2,16.1-6.6c3.8-4.4,5.9-10.8,6.3-19.4c0.1-2,0.2-4.5,0.2-7.7c0-3.1-0.1-5.7-0.2-7.7c-0.4-8.4-2.5-14.8-6.3-19.3
		c-3.8-4.5-9.2-6.7-16.1-6.7c-6.9,0-12.3,2.2-16.1,6.7c-3.8,4.5-5.9,10.9-6.3,19.3c-0.1,2-0.2,4.5-0.2,7.7c0,3.1,0.1,5.7,0.2,7.7
		c0.4,8.5,2.5,15,6.3,19.4C416.2,253.6,421.6,255.8,428.5,255.8z"/>
		<path class="st3" d="M533.7,275.2c-8,0-14.9-1.8-20.7-5.4c-5.8-3.6-10.3-8.7-13.5-15.3c-3.1-6.6-4.7-14.4-4.7-23.5v-55.2
		c0-1.3,0.5-2.4,1.4-3.3c0.9-0.9,2-1.4,3.3-1.4h17.3c1.4,0,2.6,0.5,3.4,1.4c0.9,0.9,1.3,2,1.3,3.3v54c0,16.2,7.1,24.4,21.4,24.4
		c6.8,0,12.2-2.2,16.2-6.5c4-4.3,6-10.3,6-17.9v-54c0-1.3,0.5-2.4,1.4-3.3c0.9-0.9,2-1.4,3.3-1.4h17.3c1.3,0,2.4,0.5,3.3,1.4
		c0.9,0.9,1.4,2,1.4,3.3v92.8c0,1.3-0.5,2.4-1.4,3.3c-0.9,0.9-2,1.4-3.3,1.4h-15.9c-1.4,0-2.6-0.5-3.4-1.4c-0.9-0.9-1.3-2-1.3-3.3
		v-8.1c-3.5,4.6-7.9,8.2-13.2,10.8C548.1,273.9,541.5,275.2,533.7,275.2z"/>
		<path class="st3" d="M618.6,273.3c-1.3,0-2.4-0.5-3.3-1.4c-0.9-0.9-1.4-2-1.4-3.3V176c0-1.4,0.5-2.6,1.4-3.5c0.9-0.9,2-1.4,3.3-1.4
		h15.9c1.3,0,2.5,0.5,3.4,1.4c1,0.9,1.5,2.1,1.5,3.5v8.1c3-4.2,6.9-7.4,11.7-9.6c4.8-2.2,10.3-3.3,16.6-3.3h8.1
		c1.4,0,2.6,0.5,3.4,1.4c0.9,0.9,1.3,2,1.3,3.3v14.1c0,1.3-0.4,2.4-1.3,3.3c-0.9,0.9-2,1.4-3.4,1.4h-15.3c-6.3,0-11.2,1.8-14.6,5.3
		c-3.5,3.5-5.2,8.4-5.2,14.5v54c0,1.3-0.5,2.4-1.4,3.3c-0.9,0.9-2.1,1.4-3.5,1.4H618.6z"/>
		<path class="st3" d="M730.6,275.2c-7.9,0-14.6-0.9-20.1-2.8c-5.6-1.8-10.1-4.1-13.7-6.9c-3.5-2.8-6.2-5.5-7.9-8.3
		c-1.7-2.8-2.6-5-2.8-6.9c-0.1-1.4,0.3-2.6,1.3-3.4c1-0.9,2.1-1.3,3.2-1.3h15.5c0.5,0,1,0.1,1.4,0.2c0.4,0.1,0.9,0.5,1.6,1.2
		c1.7,1.4,3.5,2.9,5.4,4.5c1.9,1.6,4.2,2.9,6.8,4c2.6,1.1,5.9,1.7,9.8,1.7c5.1,0,9.4-1,12.9-3c3.5-2,5.2-4.9,5.2-8.7
		c0-2.8-0.8-5-2.3-6.7c-1.5-1.7-4.3-3.2-8.4-4.6c-4.1-1.4-9.8-2.9-17.3-4.4c-7.3-1.7-13.4-3.9-18.3-6.5c-4.8-2.6-8.5-5.9-10.8-9.8
		c-2.4-3.9-3.5-8.5-3.5-13.8c0-5.1,1.5-10,4.6-14.6c3.1-4.6,7.7-8.5,13.8-11.5c6.1-3,13.7-4.5,22.7-4.5c7.1,0,13.2,0.9,18.5,2.7
		c5.2,1.8,9.6,4,13.1,6.6c3.5,2.6,6.1,5.3,8,8c1.8,2.7,2.8,5,2.9,7c0.1,1.4-0.3,2.6-1.2,3.4c-0.9,0.9-2,1.3-3.1,1.3h-14.5
		c-0.7,0-1.2-0.1-1.8-0.4c-0.5-0.3-1.1-0.6-1.6-1c-1.4-1.3-3-2.7-4.7-4.1c-1.7-1.4-3.8-2.7-6.2-3.8c-2.4-1.1-5.6-1.7-9.5-1.7
		c-5,0-8.8,1.1-11.4,3.2c-2.6,2.2-3.9,4.9-3.9,8.2c0,2.2,0.6,4.2,1.9,5.8c1.2,1.6,3.8,3.2,7.6,4.6c3.8,1.4,9.6,2.9,17.3,4.5
		c8.8,1.6,15.8,3.9,20.9,7c5.2,3.1,8.8,6.6,11,10.6c2.2,4,3.2,8.4,3.2,13.3c0,5.9-1.7,11.2-5.2,15.9c-3.5,4.7-8.6,8.4-15.3,11.1
		C748.9,273.9,740.5,275.2,730.6,275.2z"/>
</g>
</svg>
