<svg width="68" height="72" viewBox="0 0 68 72" fill="none" xmlns="http://www.w3.org/2000/svg">
<g id="javascript 3" clip-path="url(#clip0_1016_874)">
<path id="Vector" d="M0 0H68V72H0V0Z" fill="#C4C4C4"/>
<path id="Vector_2" d="M17.881 60.1682L23.0848 56.8337C24.0887 58.7183 25.002 60.313 27.1925 60.313C29.2923 60.313 30.6162 59.4433 30.6162 56.0604V33.0547H37.0064V56.1561C37.0064 63.1641 33.1268 66.3539 27.4665 66.3539C22.3545 66.3539 19.3871 63.5506 17.8809 60.1676" fill="#E4E4E4"/>
<path id="Vector_3" d="M40.4727 59.4433L45.6758 56.2535C47.0456 58.6219 48.8258 60.3617 51.9751 60.3617C54.6229 60.3617 56.3114 58.96 56.3114 57.0267C56.3114 54.7068 54.5769 53.8851 51.6555 52.5323L50.0584 51.8068C45.4479 49.729 42.3895 47.1192 42.3895 41.6093C42.3895 36.5346 46.0411 32.668 51.7471 32.668C55.8096 32.668 58.7309 34.1664 60.8303 38.0812L55.8549 41.4642C54.7593 39.3861 53.5729 38.5647 51.7472 38.5647C49.8757 38.5647 48.6888 39.8212 48.6888 41.4642C48.6888 43.4941 49.8756 44.316 52.6141 45.5727L54.2116 46.2976C59.6435 48.7626 62.7019 51.2755 62.7019 56.93C62.7019 63.0201 58.183 66.3546 52.1122 66.3546C46.1783 66.3546 42.344 63.3583 40.4728 59.4433" fill="#E4E4E4"/>
</g>
<defs>
<clipPath id="clip0_1016_874">
<rect width="68" height="72" fill="white"/>
</clipPath>
</defs>
</svg>
