<svg width="185" height="80" viewBox="0 0 185 80" fill="none" xmlns="http://www.w3.org/2000/svg">
<g clip-path="url(#clip0_1016_860)">
<mask id="mask0_1016_860" style="mask-type:luminance" maskUnits="userSpaceOnUse" x="3" y="24" width="180" height="33">
<path d="M183 24.002H3V56.002H183V24.002Z" fill="white"/>
</mask>
<g mask="url(#mask0_1016_860)">
<path fill-rule="evenodd" clip-rule="evenodd" d="M167.261 47.6486C167.353 47.6092 167.436 47.5516 167.506 47.4792L176.408 37.439V55.2158C176.408 55.315 176.427 55.4132 176.465 55.5048C176.503 55.5962 176.557 55.6793 176.626 55.7492C176.696 55.819 176.779 55.8742 176.869 55.9116C176.959 55.9489 177.056 55.9677 177.155 55.9669H181.982C182.079 55.9669 182.175 55.9474 182.264 55.9097C182.355 55.872 182.436 55.8166 182.505 55.7469C182.574 55.6772 182.628 55.5944 182.665 55.5033C182.703 55.4121 182.721 55.3145 182.721 55.2158V24.8033C182.721 24.6041 182.644 24.4131 182.505 24.2722C182.367 24.1314 182.178 24.0522 181.982 24.0522H180.953C180.851 24.0438 180.748 24.0586 180.651 24.0956C180.555 24.1325 180.468 24.1907 180.396 24.2659L166.96 39.7802L153.546 24.2628C153.477 24.1809 153.392 24.1151 153.296 24.0701C153.199 24.0251 153.095 24.0018 152.989 24.002L151.964 24.024C151.767 24.024 151.579 24.1031 151.44 24.2439C151.302 24.3848 151.223 24.5758 151.223 24.775V55.2158C151.223 55.3146 151.242 55.4125 151.279 55.5037C151.316 55.595 151.37 55.678 151.44 55.7478C151.508 55.8177 151.589 55.873 151.68 55.9106C151.769 55.9482 151.867 55.9673 151.964 55.9669H156.779C156.975 55.9669 157.163 55.8878 157.302 55.7469C157.441 55.6061 157.519 55.415 157.519 55.2158V37.439L166.449 47.4917C166.518 47.5613 166.599 47.6164 166.69 47.6536C166.779 47.6908 166.875 47.7094 166.972 47.7085C167.072 47.7084 167.171 47.688 167.261 47.6486ZM3 39.994C3 44.5233 4.50391 48.3184 7.51171 51.379C10.5195 54.4398 14.2622 55.9692 18.7399 55.967C23.2175 55.9649 26.9592 54.4388 29.9649 51.3885C32.9707 48.3341 34.4745 44.5358 34.4766 39.994C34.4787 35.4521 32.9747 31.655 29.9649 28.6026C26.9592 25.5524 23.2175 24.0262 18.7399 24.0241C14.2622 24.022 10.5195 25.5482 7.51171 28.6026C4.50391 31.6676 3 35.4647 3 39.994ZM25.571 47.1305C23.8142 49.0474 21.5433 50.0058 18.7584 50.0058C15.9385 49.9974 13.6543 49.0348 11.9057 47.118C10.1572 45.201 9.28295 42.8222 9.28295 39.9814C9.27262 37.1428 10.1469 34.765 11.9057 32.8481C13.6646 30.9312 15.9354 29.9727 18.7182 29.9727C21.5382 29.9811 23.8223 30.9438 25.571 32.8606C27.3194 34.7775 28.1937 37.1553 28.1937 39.994C28.202 42.8348 27.3277 45.2136 25.571 47.1305ZM145.597 42.7282H141.057L133.882 24.5021L133.861 24.4424C133.796 24.3244 133.702 24.226 133.588 24.1575C133.473 24.089 133.343 24.0528 133.21 24.0527H127.906C127.777 24.0528 127.65 24.087 127.538 24.1521C127.427 24.2171 127.333 24.3107 127.268 24.4235L127.24 24.4832L115.238 54.9649C115.2 55.0554 115.181 55.1528 115.182 55.2509C115.182 55.4501 115.26 55.6412 115.399 55.782C115.538 55.9229 115.726 56.002 115.922 56.002H121.038C121.194 56.002 121.347 55.9518 121.474 55.8588C121.6 55.7657 121.695 55.6344 121.744 55.4834L124.221 49.1232H136.957L139.353 55.4709C139.401 55.6244 139.494 55.7588 139.621 55.8542C139.747 55.9498 139.901 56.0016 140.06 56.002H145.193C145.391 56.002 145.578 55.9229 145.718 55.782C145.856 55.6412 145.934 55.4501 145.934 55.2509C145.934 55.1421 145.91 55.0346 145.864 54.9366L143.584 49.1169H145.606C145.802 49.1169 145.991 49.0377 146.129 48.8969C146.268 48.7561 146.346 48.565 146.346 48.3658V43.4856C146.347 43.3857 146.329 43.2865 146.291 43.1941C146.254 43.1016 146.199 43.0177 146.128 42.9472C146.058 42.8766 145.975 42.8209 145.885 42.7833C145.793 42.7457 145.695 42.727 145.597 42.7282ZM126.742 42.7282L130.724 32.5719L134.56 42.7282H126.742ZM111.708 28.0398C111.666 27.9506 111.607 27.8706 111.535 27.8044L111.46 27.7385C108.378 25.2622 104.739 24.0241 100.542 24.0241C96.0973 24.0325 92.37 25.5639 89.3602 28.6183C86.3504 31.6728 84.8392 35.4437 84.8268 39.9312C84.8289 44.517 86.3358 48.333 89.3478 51.379C92.3597 54.4252 96.0911 55.9545 100.542 55.967C104.931 55.9692 108.705 54.6252 111.866 51.9353L111.912 51.8976C112.047 51.7582 112.121 51.5708 112.12 51.376V37.5492C112.12 37.35 112.042 37.1589 111.903 37.0181C111.764 36.8772 111.576 36.7981 111.38 36.7981H102.36C102.163 36.7981 101.975 36.8772 101.836 37.0181C101.697 37.1589 101.62 37.35 101.62 37.5492V41.9957C101.62 42.1944 101.699 42.3846 101.837 42.5248C101.976 42.6649 102.164 42.7437 102.36 42.7437H105.809V48.2146C104.595 49.1238 102.853 49.5785 100.582 49.5785C97.7561 49.5764 95.4759 48.7028 93.7418 46.9577C92.0078 45.2125 91.1335 42.8557 91.1191 39.8872C91.117 37.1176 91.981 34.8467 93.7108 33.0743C95.4408 31.302 97.7178 30.4074 100.542 30.3907C102.913 30.3602 105.236 31.0676 107.2 32.4176L107.326 32.493C107.473 32.6262 107.664 32.6954 107.861 32.6853C108.057 32.6753 108.241 32.587 108.373 32.4396L111.587 28.8666C111.653 28.7934 111.703 28.7078 111.736 28.6148C111.769 28.5218 111.783 28.4231 111.778 28.3244C111.773 28.2258 111.749 28.129 111.708 28.0398ZM80.179 49.968H78.1508V30.0009H79.8695C80.0658 30.0009 80.2539 29.9218 80.3928 29.7809C80.5315 29.6401 80.6094 29.449 80.6094 29.2498V24.753C80.6094 24.5538 80.5315 24.3628 80.3928 24.2219C80.2539 24.0811 80.0658 24.002 79.8695 24.002H70.1617C69.9659 24.0028 69.7784 24.0823 69.6403 24.223C69.5023 24.3638 69.4247 24.5544 69.4247 24.753V29.2498C69.4247 29.4485 69.5023 29.639 69.6403 29.7798C69.7784 29.9206 69.9659 30 70.1617 30.0009H71.8772V49.968H69.852C69.6573 49.9688 69.4708 50.0474 69.3329 50.1869C69.1949 50.3262 69.1166 50.5152 69.1151 50.7128V55.2158C69.1151 55.4145 69.1926 55.605 69.3307 55.7458C69.4689 55.8866 69.6562 55.9661 69.852 55.9669H80.179C80.2762 55.9669 80.3725 55.9474 80.4623 55.9097C80.552 55.872 80.6336 55.8166 80.7023 55.7469C80.7712 55.6772 80.8256 55.5944 80.8627 55.5033C80.9001 55.4121 80.9191 55.3145 80.9191 55.2158V50.7128C80.9175 50.5146 80.8388 50.3252 80.7002 50.1857C80.5616 50.0462 80.3742 49.968 80.179 49.968ZM56.6479 42.3381L64.8848 54.7697L64.8971 54.754C64.9772 54.8661 65.0248 54.9985 65.0354 55.1366C65.0457 55.2746 65.0183 55.4129 64.9561 55.5361C64.894 55.6593 64.7995 55.7628 64.6831 55.8349C64.5667 55.907 64.4328 55.9452 64.2964 55.9449H58.5152C58.3945 55.9474 58.2751 55.9202 58.1672 55.8654C58.0594 55.8108 57.9662 55.7301 57.8959 55.6306L49.3555 42.7278H45.2309V55.2002C45.2309 55.3988 45.1534 55.5894 45.0153 55.7301C44.8771 55.8709 44.6897 55.9504 44.4939 55.9512H39.6602C39.563 55.9512 39.4667 55.9318 39.3769 55.8941C39.2872 55.8564 39.2056 55.801 39.1369 55.7313C39.0682 55.6616 39.0137 55.5788 38.9765 55.4876C38.9392 55.3965 38.9201 55.2988 38.9201 55.2002V37.5145C38.9201 37.4153 38.9394 37.3172 38.977 37.2256C39.0146 37.1341 39.0696 37.051 39.139 36.9812C39.2084 36.9114 39.2908 36.8562 39.3813 36.8188C39.4718 36.7814 39.5686 36.7626 39.6664 36.7634H45.395L39.0532 27.1821C38.9665 27.057 38.92 26.9077 38.9201 26.7548V24.753C38.9201 24.6539 38.9394 24.5557 38.977 24.4642C39.0146 24.3726 39.0696 24.2895 39.139 24.2197C39.2084 24.1499 39.2908 24.0947 39.3813 24.0573C39.4718 24.02 39.5686 24.0012 39.6664 24.002H52.6472C59.986 24.002 63.6555 27.0659 63.6555 33.1936C63.6534 38.2656 61.3176 41.3137 56.6479 42.3381ZM54.0933 29.9726H48.4668L52.96 36.7603H54.0313C56.5602 36.7247 57.8598 35.5546 57.93 33.2502C57.8494 31.151 56.5705 30.0585 54.0933 29.9726Z" fill="#C5C5C5"/>
</g>
</g>
<defs>
<clipPath id="clip0_1016_860">
<rect width="180" height="32" fill="white" transform="translate(3 24)"/>
</clipPath>
</defs>
</svg>
