<svg width="185" height="80" viewBox="0 0 185 80" fill="none" xmlns="http://www.w3.org/2000/svg">
<g id="imgs">
<path id="Vector" d="M118.598 27.3365C117.758 27.0476 116.887 26.7742 115.991 26.5156C116.138 25.9148 116.273 25.3218 116.394 24.7388C118.367 15.1666 117.077 7.45518 112.67 4.91625C108.444 2.48175 101.534 5.02011 94.5544 11.0884C93.8833 11.672 93.2102 12.2898 92.5375 12.9372C92.0892 12.5089 91.6417 12.0949 91.1953 11.6989C83.8807 5.21024 76.5489 2.47584 72.1464 5.02212C67.9248 7.46368 66.6747 14.7132 68.4514 23.7848C68.623 24.6611 68.8235 25.5559 69.0503 26.4657C68.0127 26.7599 67.0109 27.0737 66.0524 27.4074C57.4768 30.3945 52 35.0759 52 39.9318C52 44.947 57.8793 49.9774 66.8115 53.0275C67.5164 53.2682 68.2478 53.4958 69.0016 53.7119C68.7569 54.6959 68.5441 55.6601 68.3655 56.6006C66.6714 65.5148 67.9943 72.593 72.2047 75.0191C76.5535 77.5247 83.8521 74.9493 90.9592 68.7427C91.5209 68.2521 92.0846 67.7318 92.6494 67.1864C93.3814 67.8907 94.1122 68.5572 94.8392 69.1823C101.723 75.1007 108.522 77.4905 112.729 75.0576C117.073 72.5449 118.485 64.9412 116.652 55.6901C116.512 54.9835 116.349 54.2617 116.166 53.5271C116.679 53.3757 117.182 53.2194 117.672 53.0569C126.958 49.9831 133 45.014 133 39.9318C133 35.0584 127.347 30.3454 118.598 27.3365ZM116.584 49.7754C116.141 49.9219 115.687 50.0635 115.224 50.2008C114.199 46.9585 112.815 43.5108 111.122 39.9487C112.738 36.4714 114.068 33.0678 115.064 29.8465C115.893 30.0861 116.697 30.3387 117.472 30.6054C124.968 33.1833 129.54 36.9949 129.54 39.9318C129.54 43.0602 124.602 47.1213 116.584 49.7754ZM113.257 56.3615C114.068 60.4522 114.184 64.1507 113.647 67.0419C113.164 69.6399 112.194 71.3721 110.995 72.0658C108.442 73.542 102.983 71.6231 97.0958 66.5617C96.4209 65.9815 95.7411 65.3619 95.0592 64.7063C97.3415 62.2124 99.6226 59.3132 101.849 56.0934C105.765 55.7462 109.464 55.1787 112.819 54.4039C112.984 55.0698 113.131 55.7229 113.257 56.3615ZM79.6147 71.8107C77.1207 72.6907 75.1344 72.7159 73.9336 72.0242C71.3787 70.5519 70.3165 64.8687 71.7653 57.2453C71.9313 56.3722 72.1288 55.4754 72.3565 54.5587C75.6746 55.2918 79.347 55.8193 83.2721 56.1372C85.5134 59.2879 87.8603 62.1839 90.2254 64.7197C89.7087 65.218 89.194 65.6925 88.6821 66.1396C85.5395 68.8841 82.3902 70.8313 79.6147 71.8107ZM67.9306 49.7563C63.981 48.4076 60.7192 46.6547 58.4834 44.7419C56.4744 43.023 55.4601 41.3165 55.4601 39.9318C55.4601 36.9851 59.8575 33.2265 67.1914 30.6719C68.0813 30.3619 69.0128 30.0698 69.9795 29.7954C70.9931 33.0894 72.3227 36.5334 73.9273 40.016C72.302 43.5502 70.9535 47.0491 69.9299 50.3817C69.2408 50.1838 68.5731 49.9755 67.9306 49.7563ZM71.8472 23.1209C70.325 15.3486 71.336 9.48535 73.88 8.01408C76.5899 6.44673 82.5821 8.68144 88.8977 14.2841C89.3014 14.6422 89.7067 15.017 90.1131 15.4047C87.7597 17.9294 85.4342 20.8037 83.2129 23.9358C79.4034 24.2886 75.7568 24.8552 72.4041 25.6141C72.1933 24.7669 72.0066 23.9346 71.8472 23.1209ZM106.787 31.7404C105.985 30.3573 105.163 29.0069 104.324 27.6933C106.908 28.0198 109.384 28.453 111.71 28.9833C111.012 31.2186 110.141 33.5557 109.117 35.9516C108.382 34.558 107.605 33.1528 106.787 31.7404ZM92.5386 17.8754C94.1347 19.6029 95.7331 21.5317 97.3052 23.6244C95.721 23.5496 94.1171 23.5107 92.5 23.5107C90.8982 23.5107 89.3061 23.5487 87.7317 23.6222C89.3054 21.549 90.9176 19.6228 92.5386 17.8754ZM78.199 31.7643C77.3984 33.1514 76.6357 34.5489 75.9125 35.949C74.9048 33.5614 74.0428 31.2137 73.3386 28.9467C75.6497 28.43 78.1141 28.0075 80.6821 27.6873C79.8314 29.0129 79.0018 30.3733 78.199 31.7641V31.7643ZM80.7561 52.423C78.1029 52.1272 75.6014 51.7265 73.2909 51.2241C74.0063 48.9166 74.8874 46.5187 75.9164 44.0798C76.6415 45.4789 77.4072 46.877 78.2127 48.267H78.2129C79.0334 49.6831 79.8835 51.0702 80.7561 52.423ZM92.6344 62.232C90.9943 60.4641 89.3585 58.5086 87.7608 56.4051C89.3118 56.4659 90.893 56.497 92.5 56.497C94.151 56.497 95.7831 56.4598 97.3895 56.3884C95.8122 58.5298 94.2196 60.4883 92.6344 62.232ZM109.15 43.9554C110.233 46.4208 111.146 48.8061 111.87 51.0743C109.522 51.6096 106.986 52.0407 104.314 52.361C105.155 51.0298 105.985 49.6562 106.801 48.2432C107.626 46.8137 108.409 45.3821 109.15 43.9554ZM103.803 46.5161C102.537 48.7095 101.237 50.8033 99.9177 52.7798C97.5141 52.9515 95.0309 53.0399 92.5 53.0399C89.9793 53.0399 87.5274 52.9617 85.1663 52.8086C83.7935 50.8062 82.4653 48.7062 81.2072 46.535H81.2075C79.9527 44.3697 78.7978 42.1861 77.7514 40.0148C78.7975 37.8384 79.9494 35.6524 81.1969 33.491L81.1967 33.4914C82.4476 31.3243 83.7641 29.2345 85.1242 27.2446C87.5332 27.0627 90.0034 26.9678 92.4999 26.9678H92.5C95.0077 26.9678 97.4811 27.0634 99.8893 27.247C101.229 29.2222 102.536 31.3053 103.792 33.4727C105.062 35.6645 106.229 37.836 107.284 39.9657C106.232 42.132 105.068 44.3253 103.803 46.5161ZM110.942 7.91123C113.654 9.47397 114.709 15.7765 113.005 24.0411C112.896 24.5684 112.774 25.1056 112.641 25.6499C109.28 24.8753 105.631 24.2988 101.81 23.9407C99.5847 20.7742 97.2782 17.8954 94.9632 15.4031C95.5856 14.8049 96.2071 14.2345 96.8261 13.6962C102.806 8.49692 108.395 6.44413 110.942 7.91123ZM92.5 32.7055C96.4946 32.7055 99.733 35.9408 99.733 39.9318C99.733 43.9227 96.4946 47.1581 92.5 47.1581C88.5054 47.1581 85.267 43.9227 85.267 39.9318C85.267 35.9408 88.5054 32.7055 92.5 32.7055Z" fill="#D4D4D4"/>
</g>
</svg>
