<svg width="262" height="270" viewBox="0 0 262 270" fill="none" xmlns="http://www.w3.org/2000/svg">
<mask id="mask0_6_35" style="mask-type:luminance" maskUnits="userSpaceOnUse" x="55" y="105" width="109" height="165">
<path d="M77.3084 109.383L56.25 154.539C55.2281 156.729 55.5479 159.202 56.8719 161.031L130.553 266.243C131.185 267.176 132.068 267.955 133.161 268.462C136.377 269.962 140.201 268.574 141.701 265.356L162.849 220.003C163.865 217.819 163.552 215.355 162.239 213.527L88.3562 108.356C87.736 107.484 86.886 106.757 85.8484 106.273C82.6312 104.773 78.8078 106.167 77.3084 109.383Z" fill="white"/>
</mask>
<g mask="url(#mask0_6_35)">
<path d="M77.3084 109.383L56.25 154.539C55.2281 156.729 55.5479 159.202 56.8719 161.031L130.553 266.243C131.185 267.176 132.068 267.955 133.161 268.462C136.377 269.962 140.201 268.574 141.701 265.356L162.849 220.003C163.865 217.819 163.552 215.355 162.239 213.527L88.3562 108.356C87.736 107.484 86.886 106.757 85.8484 106.273C82.6312 104.773 78.8078 106.167 77.3084 109.383Z" fill="url(#paint0_linear_6_35)"/>
</g>
<mask id="mask1_6_35" style="mask-type:luminance" maskUnits="userSpaceOnUse" x="0" y="-1" width="262" height="126">
<path d="M254.729 0.0293206L29.8745 19.736C27.6869 19.952 25.6661 21.2813 24.6693 23.4173L0.604659 75.0266C-0.396384 77.1693 -0.111488 79.584 1.14372 81.3987L29.6306 122.105C30.2604 123.037 31.1426 123.815 32.2349 124.324C35.451 125.823 39.274 124.433 40.774 121.216L61.7464 76.2426C62.7573 74.0733 64.8265 72.7333 67.0552 72.552L234.876 57.9426C237.087 57.7453 239.133 56.412 240.139 54.2573L261.175 9.14133C262.676 5.92533 261.281 2.10133 258.067 0.601326C256.988 0.0986591 255.837 -0.0800127 254.729 0.0293206Z" fill="white"/>
</mask>
<g mask="url(#mask1_6_35)">
<path d="M254.729 0.0293206L29.8745 19.736C27.6869 19.952 25.6661 21.2813 24.6693 23.4173L0.604659 75.0266C-0.396384 77.1693 -0.111488 79.584 1.14372 81.3987L29.6306 122.105C30.2604 123.037 31.1426 123.815 32.2349 124.324C35.451 125.823 39.274 124.433 40.774 121.216L61.7464 76.2426C62.7573 74.0733 64.8265 72.7333 67.0552 72.552L234.876 57.9426C237.087 57.7453 239.133 56.412 240.139 54.2573L261.175 9.14133C262.676 5.92533 261.281 2.10133 258.067 0.601326C256.988 0.0986591 255.837 -0.0800127 254.729 0.0293206Z" fill="url(#paint1_linear_6_35)"/>
</g>
<path d="M77.3084 109.383L56.25 154.539C55.2281 156.729 55.5479 159.202 56.8719 161.031L130.553 266.243C131.185 267.176 132.068 267.955 133.161 268.462C136.377 269.962 140.201 268.574 141.701 265.356L162.849 220.003C163.865 217.819 163.552 215.355 162.239 213.527L88.3562 108.356C87.736 107.484 86.886 106.757 85.8484 106.273C82.6312 104.773 78.8078 106.167 77.3084 109.383Z" fill="#F0423E"/>
<path d="M254.729 0.0293206L29.8745 19.736C27.6869 19.952 25.6661 21.2813 24.6693 23.4173L0.604659 75.0266C-0.396384 77.1693 -0.111488 79.584 1.14372 81.3987L29.6306 122.105C30.2604 123.037 31.1426 123.815 32.2349 124.324C35.451 125.823 39.274 124.433 40.774 121.216L61.7464 76.2426C62.7573 74.0733 64.8265 72.7333 67.0552 72.552L234.876 57.9426C237.087 57.7453 239.133 56.412 240.139 54.2573L261.175 9.14133C262.676 5.92533 261.281 2.10133 258.067 0.601326C256.988 0.0986591 255.837 -0.0800127 254.729 0.0293206Z" fill="#F0423E"/>
<defs>
<linearGradient id="paint0_linear_6_35" x1="167.444" y1="220.816" x2="51.5677" y2="153.917" gradientUnits="userSpaceOnUse">
<stop stop-color="#F0423E"/>
<stop offset="1" stop-color="#D23935"/>
</linearGradient>
<linearGradient id="paint1_linear_6_35" x1="212.863" y1="101.555" x2="37.8613" y2="0.520649" gradientUnits="userSpaceOnUse">
<stop stop-color="#F0423E"/>
<stop offset="1" stop-color="#D23935"/>
</linearGradient>
</defs>
</svg>
