<svg width="620" height="636" viewBox="0 0 620 636" fill="none" xmlns="http://www.w3.org/2000/svg">
<path d="M183.092 258.417L133.217 365.095C130.797 370.27 131.554 376.111 134.69 380.432L309.198 628.99C310.694 631.195 312.786 633.035 315.376 634.235C322.992 637.778 332.049 634.499 335.602 626.896L385.689 519.751C388.095 514.591 387.353 508.77 384.242 504.451L209.258 255.991C207.789 253.931 205.776 252.214 203.319 251.071C195.699 247.527 186.644 250.819 183.092 258.417Z" fill="url(#paint0_linear_974_612)"/>
<path d="M603.304 0.0729706L70.7549 46.629C65.5738 47.1392 60.7877 50.2797 58.4269 55.3259L1.43179 177.25C-0.93909 182.312 -0.264338 188.017 2.70852 192.304L70.1774 288.471C71.6688 290.673 73.7584 292.509 76.3453 293.713C83.9625 297.253 93.0168 293.971 96.5694 286.37L146.241 180.123C148.635 174.998 153.536 171.832 158.814 171.404L556.283 136.89C561.519 136.424 566.367 133.274 568.748 128.184L618.57 21.5996C622.125 14.002 618.822 4.96796 611.209 1.42429C608.654 0.236767 605.929 -0.185324 603.304 0.0729706Z" fill="url(#paint1_linear_974_612)"/>
<defs>
<linearGradient id="paint0_linear_974_612" x1="397.044" y1="234.157" x2="113.063" y2="247.049" gradientUnits="userSpaceOnUse">
<stop stop-color="#FF8906"/>
<stop offset="0.0208333" stop-color="#FA6120"/>
<stop offset="1" stop-color="#E82929"/>
</linearGradient>
<linearGradient id="paint1_linear_974_612" x1="644.111" y1="-11.8421" x2="-32.8153" y2="85.7574" gradientUnits="userSpaceOnUse">
<stop stop-color="#FF8906"/>
<stop offset="0.0208333" stop-color="#FA6120"/>
<stop offset="1" stop-color="#E82929"/>
</linearGradient>
</defs>
</svg>
