<svg width="80" height="80" viewBox="0 0 80 80" fill="none" xmlns="http://www.w3.org/2000/svg">
<path d="M65 30H50V15C49.998 13.0115 49.2072 11.105 47.8011 9.69889C46.395 8.2928 44.4885 7.50199 42.5 7.5H37.1675C35.9654 7.5051 34.8049 7.94099 33.8967 8.72857C32.9885 9.51614 32.3927 10.6032 32.2175 11.7925L30.105 26.585L21.1625 40H5V75H57.5C62.1397 74.9947 66.5878 73.1493 69.8685 69.8685C73.1493 66.5878 74.9947 62.1397 75 57.5V40C74.9967 37.3489 73.9421 34.8072 72.0674 32.9326C70.1928 31.0579 67.6511 30.0033 65 30ZM20 70H10V45H20V70ZM70 57.5C69.996 60.814 68.6778 63.9911 66.3345 66.3345C63.9911 68.6778 60.814 69.996 57.5 70H25V43.2575L34.895 28.415L37.17 12.5H42.5C43.163 12.5 43.7989 12.7634 44.2678 13.2322C44.7366 13.7011 45 14.337 45 15V35H65C66.3257 35.0013 67.5967 35.5285 68.5341 36.4659C69.4715 37.4033 69.9987 38.6743 70 40V57.5Z" fill="url(#paint0_linear_988_685)"/>
<defs>
<linearGradient id="paint0_linear_988_685" x1="77.7222" y1="4.79164" x2="0.0995182" y2="10.3165" gradientUnits="userSpaceOnUse">
<stop stop-color="#FF8906"/>
<stop offset="0.314751" stop-color="#FA6120"/>
<stop offset="1" stop-color="#E82929"/>
</linearGradient>
</defs>
</svg>
