<svg width="81" height="80" viewBox="0 0 81 80" fill="none" xmlns="http://www.w3.org/2000/svg">
<path d="M68.166 63.965L63.166 58.965V52.5H58.166V61.035L64.631 67.5L68.166 63.965Z" fill="url(#paint0_linear_988_665)"/>
<path d="M60.666 77.5003C57.2048 77.5003 53.8214 76.4739 50.9435 74.551C48.0657 72.6281 45.8227 69.8949 44.4981 66.6972C43.1736 63.4995 42.827 59.9808 43.5023 56.5862C44.1775 53.1915 45.8442 50.0733 48.2916 47.6259C50.7391 45.1785 53.8573 43.5118 57.2519 42.8365C60.6466 42.1613 64.1653 42.5078 67.363 43.8324C70.5607 45.1569 73.2938 47.3999 75.2167 50.2778C77.1397 53.1556 78.166 56.5391 78.166 60.0003C78.1607 64.6399 76.3153 69.088 73.0345 72.3688C69.7538 75.6495 65.3057 77.495 60.666 77.5003ZM60.666 47.5003C58.1937 47.5003 55.777 48.2334 53.7214 49.6069C51.6658 50.9804 50.0636 52.9326 49.1175 55.2167C48.1714 57.5008 47.9239 60.0141 48.4062 62.4389C48.8885 64.8637 50.079 67.0909 51.8272 68.8391C53.5753 70.5872 55.8026 71.7778 58.2274 72.2601C60.6521 72.7424 63.1655 72.4949 65.4496 71.5488C67.7336 70.6027 69.6859 69.0005 71.0594 66.9449C72.4329 64.8893 73.166 62.4725 73.166 60.0003C73.1627 56.6861 71.8447 53.5086 69.5012 51.1651C67.1577 48.8216 63.9802 47.5036 60.666 47.5003ZM40.666 70.0003C32.7122 69.9917 25.0865 66.8282 19.4623 61.204C13.8381 55.5797 10.6746 47.9541 10.666 40.0003H5.66602C5.6766 49.2796 9.36749 58.1758 15.929 64.7373C22.4904 71.2988 31.3867 74.9897 40.666 75.0003V70.0003ZM30.666 20.0003H18.361C22.4065 15.4708 27.7331 12.2777 33.6345 10.8442C39.536 9.41081 45.7338 9.80471 51.4064 11.9737C57.0789 14.1428 61.9583 17.9845 65.3979 22.9897C68.8374 27.9949 70.6746 33.9272 70.666 40.0003H75.666C75.677 33.0422 73.6106 26.2393 69.7314 20.4629C65.8522 14.6865 60.337 10.1997 53.8921 7.57717C47.4472 4.95463 40.3661 4.31579 33.5559 5.74248C26.7457 7.16917 20.5164 10.5964 15.666 15.5853V5.00026H10.666V25.0003H30.666V20.0003Z" fill="url(#paint1_linear_988_665)"/>
<defs>
<linearGradient id="paint0_linear_988_665" x1="68.5549" y1="51.8981" x2="57.4331" y2="52.407" gradientUnits="userSpaceOnUse">
<stop stop-color="#FF8906"/>
<stop offset="0.314751" stop-color="#FA6120"/>
<stop offset="1" stop-color="#E82929"/>
</linearGradient>
<linearGradient id="paint1_linear_988_665" x1="80.9855" y1="2.09101" x2="0.562076" y2="7.61077" gradientUnits="userSpaceOnUse">
<stop stop-color="#FF8906"/>
<stop offset="0.314751" stop-color="#FA6120"/>
<stop offset="1" stop-color="#E82929"/>
</linearGradient>
</defs>
</svg>
