<svg width="80" height="80" viewBox="0 0 80 80" fill="none" xmlns="http://www.w3.org/2000/svg">
<path d="M39.9993 52.4995L43.4993 55.9995L36.9993 62.4995H57.4993V67.4995H36.9993L43.4993 73.9995L39.9993 77.4995L27.4993 64.9995L39.9993 52.4995ZM18.1543 58.307L38.1293 38.332L41.6668 41.867L21.6918 61.842L18.1543 58.307Z" fill="url(#paint0_linear_988_678)"/>
<path d="M57.5001 55H52.5001V42.5C52.5001 41.75 52.7501 41.25 53.2501 40.75L63.5001 30.5C67.7501 26.25 70.0002 20.5 70.0002 14.5V10H65.2502C59.2501 10 53.5002 12.25 49.2502 16.5L39.0002 26.75C38.7502 27.25 38.2502 27.5 37.5002 27.5H18.7502L12.2502 35.75L25.5002 37.75L24.7502 42.75L7.25015 40.25C6.25015 40 5.50015 39.5 5.25015 38.75C5.00015 38 5.00015 37 5.50015 36.25L15.5002 23.75C16.0002 22.75 16.7502 22.5 17.5002 22.5H36.5002L46.0001 13C51.0001 7.75 58.0001 5 65.2502 5H70.0002C72.7502 5 75.0002 7.25 75.0002 10V14.75C75.0002 22 72.2501 29 67.0001 34.25L57.5001 43.5V55Z" fill="url(#paint1_linear_988_678)"/>
<defs>
<linearGradient id="paint0_linear_988_678" x1="59.0294" y1="36.7605" x2="15.3863" y2="39.7695" gradientUnits="userSpaceOnUse">
<stop stop-color="#FF8906"/>
<stop offset="0.314751" stop-color="#FA6120"/>
<stop offset="1" stop-color="#E82929"/>
</linearGradient>
<linearGradient id="paint1_linear_988_678" x1="77.719" y1="2.99381" x2="0.509818" y2="10.4036" gradientUnits="userSpaceOnUse">
<stop stop-color="#FF8906"/>
<stop offset="0.314751" stop-color="#FA6120"/>
<stop offset="1" stop-color="#E82929"/>
</linearGradient>
</defs>
</svg>
