<svg width="80" height="80" viewBox="0 0 80 80" fill="none" xmlns="http://www.w3.org/2000/svg">
<path d="M73.535 60L30 16.465C29.0476 15.556 27.7816 15.0488 26.465 15.0488C25.1484 15.0488 23.8824 15.556 22.93 16.465L16.465 22.93C15.5289 23.8683 15.0031 25.1396 15.0031 26.465C15.0031 27.7904 15.5289 29.0617 16.465 30L59.9975 73.535C60.9358 74.4711 62.2071 74.9969 63.5325 74.9969C64.8579 74.9969 66.1292 74.4711 67.0675 73.535L73.535 67.07C74.4724 66.1324 74.9989 64.8608 74.9989 63.535C74.9989 62.2092 74.4724 60.9376 73.535 60ZM20 26.465L26.465 20L38.965 32.5L32.4975 38.9675L19.9975 26.4675L20 26.465ZM63.5325 70L36.0325 42.5025L42.5 36.035L70 63.535L63.5325 70ZM5 40L10 35L15 40L10 45L5 40ZM35 10L40 5L45 10L40 15L35 10ZM5 10L10 5L15 10L10 15L5 10Z" fill="url(#paint0_linear_988_659)"/>
<defs>
<linearGradient id="paint0_linear_988_659" x1="77.7211" y1="2.19145" x2="0.0721574" y2="7.52097" gradientUnits="userSpaceOnUse">
<stop stop-color="#FF8906"/>
<stop offset="0.314751" stop-color="#FA6120"/>
<stop offset="1" stop-color="#E82929"/>
</linearGradient>
</defs>
</svg>
