<svg width="81" height="80" viewBox="0 0 81 80" fill="none" xmlns="http://www.w3.org/2000/svg">
<path d="M15.334 52.5V50H10.334V52.5C10.334 57.1413 12.1777 61.5925 15.4596 64.8744C18.7415 68.1563 23.1927 70 27.834 70H35.334V65H27.834C24.5188 65 21.3394 63.683 18.9951 61.3388C16.6509 58.9946 15.334 55.8152 15.334 52.5ZM60.334 27.5V30H65.334V27.5C65.334 22.8587 63.4902 18.4075 60.2084 15.1256C56.9265 11.8437 52.4753 10 47.834 10H40.334V15H47.834C49.4755 15 51.101 15.3233 52.6175 15.9515C54.1341 16.5797 55.5121 17.5004 56.6728 18.6612C57.8336 19.8219 58.7543 21.1999 59.3825 22.7165C60.0107 24.233 60.334 25.8585 60.334 27.5ZM27.834 27.5H12.834C10.8449 27.5 8.93721 28.2902 7.53068 29.6967C6.12416 31.1032 5.33398 33.0109 5.33398 35V40H10.334V35C10.334 34.337 10.5974 33.7011 11.0662 33.2322C11.5351 32.7634 12.1709 32.5 12.834 32.5H27.834C28.497 32.5 29.1329 32.7634 29.6018 33.2322C30.0706 33.7011 30.334 34.337 30.334 35V40H35.334V35C35.334 33.0109 34.5438 31.1032 33.1373 29.6967C31.7308 28.2902 29.8231 27.5 27.834 27.5ZM20.334 25C22.3118 25 24.2452 24.4135 25.8897 23.3147C27.5342 22.2159 28.8159 20.6541 29.5728 18.8268C30.3297 16.9996 30.5277 14.9889 30.1418 13.0491C29.756 11.1093 28.8036 9.32746 27.4051 7.92894C26.0065 6.53041 24.2247 5.578 22.2849 5.19215C20.3451 4.8063 18.3344 5.00433 16.5072 5.76121C14.6799 6.51809 13.1181 7.79981 12.0193 9.4443C10.9205 11.0888 10.334 13.0222 10.334 15C10.334 17.6522 11.3876 20.1957 13.2629 22.0711C15.1383 23.9464 17.6818 25 20.334 25ZM20.334 10C21.3229 10 22.2896 10.2932 23.1118 10.8427C23.9341 11.3921 24.5749 12.173 24.9534 13.0866C25.3318 14.0002 25.4308 15.0056 25.2379 15.9755C25.045 16.9454 24.5688 17.8363 23.8695 18.5355C23.1703 19.2348 22.2793 19.711 21.3094 19.9039C20.3395 20.0969 19.3342 19.9978 18.4206 19.6194C17.5069 19.241 16.726 18.6001 16.1766 17.7779C15.6272 16.9556 15.334 15.9889 15.334 15C15.334 13.6739 15.8608 12.4022 16.7985 11.4645C17.7361 10.5268 19.0079 10 20.334 10ZM67.834 62.5H52.834C50.8449 62.5 48.9372 63.2902 47.5307 64.6967C46.1242 66.1032 45.334 68.0109 45.334 70V75H50.334V70C50.334 69.337 50.5974 68.7011 51.0662 68.2322C51.5351 67.7634 52.1709 67.5 52.834 67.5H67.834C68.497 67.5 69.1329 67.7634 69.6018 68.2322C70.0706 68.7011 70.334 69.337 70.334 70V75H75.334V70C75.334 68.0109 74.5438 66.1032 73.1373 64.6967C71.7308 63.2902 69.8231 62.5 67.834 62.5ZM50.334 50C50.334 51.9778 50.9205 53.9112 52.0193 55.5557C53.1181 57.2002 54.6799 58.4819 56.5072 59.2388C58.3344 59.9957 60.3451 60.1937 62.2849 59.8079C64.2247 59.422 66.0065 58.4696 67.4051 57.0711C68.8036 55.6725 69.756 53.8907 70.1418 51.9509C70.5277 50.0111 70.3297 48.0004 69.5728 46.1732C68.8159 44.3459 67.5342 42.7841 65.8897 41.6853C64.2452 40.5865 62.3118 40 60.334 40C57.6818 40 55.1383 41.0536 53.2629 42.9289C51.3876 44.8043 50.334 47.3478 50.334 50ZM65.334 50C65.334 50.9889 65.0407 51.9556 64.4913 52.7779C63.9419 53.6001 63.161 54.241 62.2474 54.6194C61.3338 54.9978 60.3284 55.0969 59.3585 54.9039C58.3886 54.711 57.4977 54.2348 56.7985 53.5355C56.0992 52.8363 55.623 51.9454 55.4301 50.9755C55.2371 50.0056 55.3361 49.0002 55.7146 48.0866C56.093 47.173 56.7339 46.3921 57.5561 45.8427C58.3784 45.2933 59.3451 45 60.334 45C61.6601 45 62.9318 45.5268 63.8695 46.4645C64.8072 47.4022 65.334 48.6739 65.334 50Z" fill="url(#paint0_linear_988_672)"/>
<defs>
<linearGradient id="paint0_linear_988_672" x1="78.0562" y1="2.19133" x2="0.406045" y2="7.52077" gradientUnits="userSpaceOnUse">
<stop stop-color="#FF8906"/>
<stop offset="0.314751" stop-color="#FA6120"/>
<stop offset="1" stop-color="#E82929"/>
</linearGradient>
</defs>
</svg>
