<svg width="40" height="41" viewBox="0 0 40 41" fill="none" xmlns="http://www.w3.org/2000/svg">
<g id="Icons/Email" clip-path="url(#clip0_1016_1025)">
<path id="Vector" d="M37.6429 7H3.35714C2.59938 7 1.87266 7.29851 1.33684 7.82986C0.801019 8.36122 0.5 9.08189 0.5 9.83333V32.5C0.5 33.2514 0.801019 33.9721 1.33684 34.5035C1.87266 35.0348 2.59938 35.3333 3.35714 35.3333H37.6429C38.4006 35.3333 39.1273 35.0348 39.6632 34.5035C40.199 33.9721 40.5 33.2514 40.5 32.5V9.83333C40.5 9.08189 40.199 8.36122 39.6632 7.82986C39.1273 7.29851 38.4006 7 37.6429 7ZM34.5 9.83333L20.5 19.4383L6.5 9.83333H34.5ZM3.35714 32.5V11.1225L19.6857 22.3283C19.9249 22.4928 20.209 22.581 20.5 22.581C20.791 22.581 21.0751 22.4928 21.3143 22.3283L37.6429 11.1225V32.5H3.35714Z" fill="white"/>
</g>
<defs>
<clipPath id="clip0_1016_1025">
<rect width="40" height="40" fill="white" transform="translate(0 0.5)"/>
</clipPath>
</defs>
</svg>
