<svg width="528" height="537" viewBox="0 0 528 537" fill="none" xmlns="http://www.w3.org/2000/svg">
<g opacity="0.5" clip-path="url(#clip0_1016_852)">
<path d="M186.294 209.182L186.294 209.182C189.188 205.351 194.656 204.582 198.507 207.478C199.75 208.413 200.669 209.611 201.243 210.931C201.244 210.933 201.245 210.935 201.246 210.936L286.629 410.646L286.633 410.657L286.638 410.667C287.868 413.463 287.586 416.809 285.626 419.41L234.678 486.867L234.678 486.868C231.784 490.7 226.317 491.463 222.467 488.566L222.464 488.564C221.155 487.582 220.204 486.305 219.629 484.892L219.622 484.876L219.616 484.86L134.575 285.141L134.569 285.126L134.562 285.11C133.318 282.31 133.594 278.952 135.563 276.346L135.563 276.346L186.294 209.182Z" stroke="#484848" stroke-width="4.31674"/>
<path d="M516.504 91.9039L516.516 91.9053L516.527 91.9066C518.026 92.0743 519.501 92.6341 520.794 93.6062C524.641 96.5012 525.409 101.953 522.517 105.78L522.516 105.78L471.836 172.886C471.836 172.886 471.836 172.886 471.836 172.886C469.9 175.448 466.814 176.641 463.813 176.278C463.812 176.278 463.811 176.278 463.81 176.278L180.818 141.306C180.816 141.305 180.814 141.305 180.811 141.305C176.324 140.727 171.654 142.501 168.732 146.371C168.732 146.372 168.732 146.372 168.732 146.372L118.208 213.264L118.208 213.264C115.314 217.096 109.848 217.861 105.997 214.966C104.687 213.981 103.738 212.705 103.166 211.297L103.16 211.281L103.153 211.265L70.2889 134.011C70.2883 134.009 70.2877 134.008 70.2871 134.006C69.1331 131.248 69.4392 127.98 71.3655 125.433L71.3664 125.432L129.342 48.6684C131.26 46.1302 134.308 44.9352 137.281 45.2639C137.285 45.2643 137.288 45.2647 137.292 45.2651L516.504 91.9039Z" stroke="#484848" stroke-width="4.31674"/>
</g>
<defs>
<clipPath id="clip0_1016_852">
<rect width="442.466" height="454.337" fill="white" transform="translate(95) rotate(12.0077)"/>
</clipPath>
</defs>
</svg>
