<svg width="165" height="69" viewBox="0 0 165 69" fill="none" xmlns="http://www.w3.org/2000/svg">
<g id="logo_advantageSolutions 1" clip-path="url(#clip0_1016_973)">
<g id="g1411">
<g id="Clip path group">
<mask id="mask0_1016_973" style="mask-type:luminance" maskUnits="userSpaceOnUse" x="14" y="27" width="28" height="42">
<g id="clipPath1417">
<path id="path1415" d="M19.8246 28.0503L14.4244 39.6301C14.1623 40.1919 14.2443 40.8259 14.5839 41.295L33.4788 68.2758C33.6409 68.5151 33.8674 68.7148 34.1477 68.845C34.9724 69.2297 35.953 68.8737 36.3377 68.0485L41.7609 56.4179C42.0215 55.8579 41.9411 55.226 41.6043 54.7571L22.6578 27.787C22.4987 27.5634 22.2807 27.377 22.0147 27.2529C21.1896 26.8683 20.2092 27.2256 19.8246 28.0503Z" fill="white"/>
</g>
</mask>
<g mask="url(#mask0_1016_973)">
<g id="g1413">
<path id="path1425" d="M19.8246 28.0503L14.4244 39.6301C14.1623 40.1919 14.2443 40.8259 14.5839 41.295L33.4788 68.2758C33.6409 68.5151 33.8674 68.7148 34.1477 68.845C34.9724 69.2297 35.953 68.8737 36.3377 68.0485L41.7609 56.4179C42.0215 55.8579 41.9411 55.226 41.6043 54.7571L22.6578 27.787C22.4987 27.5634 22.2807 27.377 22.0147 27.2529C21.1896 26.8683 20.2092 27.2256 19.8246 28.0503Z" fill="url(#paint0_linear_1016_973)"/>
</g>
</g>
</g>
</g>
<g id="g1427">
<g id="Clip path group_2">
<mask id="mask1_1016_973" style="mask-type:luminance" maskUnits="userSpaceOnUse" x="0" y="-1" width="68" height="34">
<g id="clipPath1433">
<path id="path1431" d="M65.3233 0.00608444L7.66105 5.0597C7.10005 5.11509 6.58184 5.45599 6.32621 6.00375L0.155029 19.2385C-0.101681 19.788 -0.0286214 20.4072 0.293267 20.8726L7.59851 31.3115C7.76 31.5505 7.98625 31.7498 8.26635 31.8805C9.0911 32.2648 10.0715 31.9085 10.4561 31.0834L15.8343 19.5504C16.0936 18.9941 16.6242 18.6504 17.1957 18.6039L60.232 14.8575C60.7989 14.8069 61.3238 14.465 61.5816 13.9124L66.9761 2.34278C67.3611 1.51807 67.0035 0.537432 66.1791 0.152769C65.9025 0.0238647 65.6074 -0.0219536 65.3233 0.00608444Z" fill="white"/>
</g>
</mask>
<g mask="url(#mask1_1016_973)">
<g id="g1429">
<path id="path1441" d="M65.3233 0.00608444L7.66105 5.0597C7.10005 5.11509 6.58184 5.45599 6.32621 6.00375L0.155029 19.2385C-0.101681 19.788 -0.0286214 20.4072 0.293267 20.8726L7.59851 31.3115C7.76 31.5505 7.98625 31.7498 8.26635 31.8805C9.0911 32.2648 10.0715 31.9085 10.4561 31.0834L15.8343 19.5504C16.0936 18.9941 16.6242 18.6504 17.1957 18.6039L60.232 14.8575C60.7989 14.8069 61.3238 14.465 61.5816 13.9124L66.9761 2.34278C67.3611 1.51807 67.0035 0.537432 66.1791 0.152769C65.9025 0.0238647 65.6074 -0.0219536 65.3233 0.00608444Z" fill="url(#paint1_linear_1016_973)"/>
</g>
</g>
</g>
</g>
<path id="path1443" d="M59.626 33.9388L57.5776 29.4319H57.516L55.5082 33.9388H59.626ZM50.7753 38.3034L57.1474 24.5147C57.2086 24.3913 57.3112 24.2891 57.4955 24.2891H57.7003C57.9051 24.2891 57.9872 24.3913 58.0487 24.5147L64.3592 38.3034C64.482 38.5697 64.3182 38.8362 64.0112 38.8362H62.2287C61.921 38.8362 61.7777 38.7135 61.6341 38.4262L60.6306 36.2135H54.5044L53.5005 38.4262C53.4184 38.631 53.2338 38.8362 52.9062 38.8362H51.1238C50.8164 38.8362 50.6526 38.5697 50.7753 38.3034Z" fill="white"/>
<path id="path1445" d="M70.8124 36.335C73.4756 36.335 75.4225 34.3266 75.4225 31.6428C75.4225 28.9792 73.4756 26.9711 70.8124 26.9711H68.4767V36.335H70.8124ZM65.834 24.8816C65.834 24.6765 65.9974 24.4922 66.2026 24.4922H71.0582C75.0122 24.4922 78.2499 27.7093 78.2499 31.6428C78.2499 35.6176 75.0122 38.8345 71.0582 38.8345H66.2026C65.9974 38.8345 65.834 38.6502 65.834 38.4451V24.8816Z" fill="white"/>
<path id="path1447" d="M78.0822 25.0252C77.9591 24.7589 78.1229 24.4922 78.4299 24.4922H80.5204C80.7047 24.4922 80.8275 24.6153 80.8682 24.7175L84.8023 33.5278H84.9452L88.8794 24.7175C88.9201 24.6153 89.0432 24.4922 89.2275 24.4922H91.3177C91.6247 24.4922 91.7885 24.7589 91.6654 25.0252L85.3145 38.814C85.2533 38.9367 85.1504 39.039 84.9661 39.039H84.761C84.5767 39.039 84.4744 38.9367 84.4129 38.814L78.0822 25.0252Z" fill="white"/>
<path id="path1449" d="M98.8376 33.9388L96.7888 29.4319H96.7272L94.7191 33.9388H98.8376ZM89.9862 38.3034L96.3587 24.5147C96.4202 24.3913 96.5221 24.2891 96.7067 24.2891H96.9115C97.1167 24.2891 97.1981 24.3913 97.2603 24.5147L103.57 38.3034C103.693 38.5697 103.53 38.8362 103.222 38.8362H101.439C101.132 38.8362 100.989 38.7135 100.845 38.4262L99.8411 36.2135H93.7152L92.7117 38.4262C92.6296 38.631 92.4453 38.8362 92.1174 38.8362H90.335C90.0276 38.8362 89.8635 38.5697 89.9862 38.3034Z" fill="white"/>
<path id="path1451" d="M105.045 24.658C105.045 24.4528 105.229 24.2891 105.434 24.2891H105.947L114.47 33.3449H114.49V24.8833C114.49 24.6782 114.654 24.4939 114.879 24.4939H116.765C116.969 24.4939 117.154 24.6782 117.154 24.8833V38.672C117.154 38.8768 116.969 39.0407 116.765 39.0407H116.273L107.708 29.6364H107.688V38.4467C107.688 38.6519 107.524 38.8362 107.299 38.8362H105.434C105.229 38.8362 105.045 38.6519 105.045 38.4467L105.045 24.658Z" fill="white"/>
<path id="path1453" d="M122.254 26.951H119.12C118.895 26.951 118.73 26.7667 118.73 26.5615V24.8816C118.73 24.6765 118.895 24.4922 119.12 24.4922H128.073C128.298 24.4922 128.463 24.6765 128.463 24.8816V26.5615C128.463 26.7667 128.298 26.951 128.073 26.951H124.938V38.4451C124.938 38.6502 124.754 38.8345 124.549 38.8345H122.644C122.439 38.8345 122.254 38.6502 122.254 38.4451V26.951Z" fill="white"/>
<path id="path1455" d="M136.138 33.9388L134.09 29.4319H134.028L132.02 33.9388H136.138ZM127.287 38.3034L133.659 24.5147C133.721 24.3913 133.823 24.2891 134.007 24.2891H134.212C134.417 24.2891 134.499 24.3913 134.561 24.5147L140.871 38.3034C140.994 38.5697 140.83 38.8362 140.522 38.8362H138.74C138.433 38.8362 138.289 38.7135 138.146 38.4262L137.142 36.2135H131.016L130.012 38.4262C129.93 38.631 129.746 38.8362 129.418 38.8362H127.636C127.328 38.8362 127.164 38.5697 127.287 38.3034Z" fill="white"/>
<path id="path1457" d="M148.068 24.2891C149.912 24.2891 151.674 25.0061 153.068 26.1946C153.231 26.3587 153.252 26.6042 153.088 26.7683L151.818 28.0998C151.654 28.2639 151.469 28.2639 151.285 28.0998C150.404 27.3216 149.318 26.9116 148.191 26.9116C145.63 26.9116 143.602 29.104 143.602 31.665C143.602 34.2055 145.63 36.3566 148.212 36.3566C149.359 36.3566 150.24 36.0088 150.65 35.8444V34.1033H149.01C148.785 34.1033 148.621 33.9388 148.621 33.7343V32.1157C148.621 31.89 148.785 31.7266 149.01 31.7266H152.944C153.15 31.7266 153.313 31.9109 153.313 32.1157V37.3611C153.313 37.5245 153.231 37.6275 153.15 37.689C153.15 37.689 151.039 39.0204 148.068 39.0204C143.991 39.0204 140.713 35.7828 140.713 31.6852C140.713 27.5876 143.991 24.2891 148.068 24.2891Z" fill="white"/>
<path id="path1459" d="M156.064 24.8816C156.064 24.6765 156.229 24.4922 156.454 24.4922H164.793C165.018 24.4922 165.182 24.6765 165.182 24.8816V26.5615C165.182 26.7667 165.018 26.951 164.793 26.951H158.728V30.311H163.788C163.994 30.311 164.178 30.4953 164.178 30.7005V32.4005C164.178 32.6262 163.994 32.79 163.788 32.79H158.728V36.3757H164.793C165.018 36.3757 165.182 36.5601 165.182 36.7648V38.4451C165.182 38.6502 165.018 38.8345 164.793 38.8345H156.454C156.229 38.8345 156.064 38.6502 156.064 38.4451V24.8816Z" fill="white"/>
<path id="path1461" d="M50.9207 50.0608L51.4439 49.1598C51.5598 48.957 51.807 48.957 51.9376 49.0582C52.0104 49.1016 53.1873 49.9591 54.1317 49.9591C54.8874 49.9591 55.4539 49.4651 55.4539 48.8401C55.4539 48.0995 54.8292 47.5904 53.6086 47.097C52.2429 46.5447 50.8769 45.6725 50.8769 43.9581C50.8769 42.6646 51.836 41.168 54.1461 41.168C55.6283 41.168 56.7618 41.9239 57.0524 42.1418C57.1977 42.2293 57.2412 42.4762 57.1396 42.6211L56.5874 43.4494C56.4711 43.6237 56.2533 43.74 56.079 43.6237C55.9624 43.5515 54.8583 42.825 54.0592 42.825C53.2311 42.825 52.7804 43.3771 52.7804 43.8422C52.7804 44.5247 53.3183 44.99 54.4948 45.4694C55.9046 46.036 57.5318 46.8785 57.5318 48.7532C57.5318 50.2497 56.2386 51.6302 54.1898 51.6302C52.3592 51.6302 51.2838 50.7726 50.9932 50.4967C50.8622 50.3661 50.7898 50.2933 50.9207 50.0608Z" fill="white"/>
<path id="path1463" d="M63.6265 49.741C65.4572 49.741 66.9685 48.2444 66.9685 46.4138C66.9685 44.5828 65.4572 43.0575 63.6265 43.0575C61.7959 43.0575 60.2989 44.5828 60.2989 46.4138C60.2989 48.2444 61.7959 49.741 63.6265 49.741ZM63.6265 41.168C66.5329 41.168 68.8573 43.5075 68.8573 46.4138C68.8573 49.3195 66.5329 51.6302 63.6265 51.6302C60.7202 51.6302 58.4102 49.3195 58.4102 46.4138C58.4102 43.5075 60.7202 41.168 63.6265 41.168Z" fill="white"/>
<path id="path1465" d="M70.5508 41.5904C70.5508 41.4453 70.667 41.3145 70.8271 41.3145H72.1636C72.3093 41.3145 72.4402 41.4453 72.4402 41.5904V49.7418H76.1453C76.305 49.7418 76.4209 49.8724 76.4209 50.0181V51.2096C76.4209 51.3543 76.305 51.4853 76.1453 51.4853H70.8271C70.667 51.4853 70.5508 51.3543 70.5508 51.2096V41.5904Z" fill="white"/>
<path id="path1467" d="M77.2266 41.5904C77.2266 41.4453 77.3572 41.3145 77.5022 41.3145H78.8828C79.0422 41.3145 79.1588 41.4453 79.1588 41.5904V47.5333C79.1588 48.7686 80.0013 49.7418 81.2654 49.7418C82.5298 49.7418 83.387 48.7686 83.387 47.548V41.5904C83.387 41.4453 83.5032 41.3145 83.6629 41.3145H85.0433C85.1889 41.3145 85.3199 41.4453 85.3199 41.5904V47.6352C85.3199 49.8437 83.5614 51.6309 81.2654 51.6309C78.9841 51.6309 77.2266 49.8437 77.2266 47.6352V41.5904Z" fill="white"/>
<path id="path1469" d="M88.9441 43.0583H86.7209C86.5616 43.0583 86.4453 42.9272 86.4453 42.7816V41.5904C86.4453 41.4453 86.5616 41.3145 86.7209 41.3145H93.0714C93.2308 41.3145 93.347 41.4453 93.347 41.5904V42.7816C93.347 42.9272 93.2308 43.0583 93.0714 43.0583H90.8483V51.2096C90.8483 51.3543 90.7173 51.4853 90.5716 51.4853H89.2207C89.075 51.4853 88.9441 51.3543 88.9441 51.2096V43.0583Z" fill="white"/>
<path id="path1471" d="M94.5352 41.5904C94.5352 41.4453 94.6661 41.3145 94.8111 41.3145H96.1627C96.3077 41.3145 96.4383 41.4453 96.4383 41.5904V51.2096C96.4383 51.3543 96.3077 51.4853 96.1627 51.4853H94.8111C94.6661 51.4853 94.5352 51.3543 94.5352 51.2096V41.5904Z" fill="white"/>
<path id="path1473" d="M103.324 49.741C105.155 49.741 106.666 48.2444 106.666 46.4138C106.666 44.5828 105.155 43.0575 103.324 43.0575C101.493 43.0575 99.9969 44.5828 99.9969 46.4138C99.9969 48.2444 101.493 49.741 103.324 49.741ZM103.324 41.168C106.23 41.168 108.555 43.5075 108.555 46.4138C108.555 49.3195 106.23 51.6302 103.324 51.6302C100.418 51.6302 98.1074 49.3195 98.1074 46.4138C98.1074 43.5075 100.418 41.168 103.324 41.168Z" fill="white"/>
<path id="path1475" d="M110.25 41.4299C110.25 41.2843 110.381 41.168 110.527 41.168H110.89L116.934 47.5904H116.949V41.5896C116.949 41.4446 117.065 41.3137 117.225 41.3137H118.562C118.706 41.3137 118.837 41.4446 118.837 41.5896V51.3682C118.837 51.5139 118.706 51.6302 118.562 51.6302H118.212L112.139 44.9606H112.124V51.2089C112.124 51.3535 112.009 51.4846 111.849 51.4846H110.527C110.381 51.4846 110.25 51.3535 110.25 51.2089V41.4299Z" fill="white"/>
<path id="path1477" d="M120.694 50.0608L121.217 49.1598C121.333 48.957 121.58 48.957 121.711 49.0582C121.784 49.1016 122.961 49.9591 123.905 49.9591C124.661 49.9591 125.228 49.4651 125.228 48.8401C125.228 48.0995 124.603 47.5904 123.382 47.097C122.016 46.5447 120.651 45.6725 120.651 43.9581C120.651 42.6646 121.61 41.168 123.92 41.168C125.402 41.168 126.535 41.9239 126.826 42.1418C126.971 42.2293 127.015 42.4762 126.913 42.6211L126.361 43.4494C126.245 43.6237 126.027 43.74 125.852 43.6237C125.736 43.5515 124.632 42.825 123.833 42.825C123.005 42.825 122.554 43.3771 122.554 43.8422C122.554 44.5247 123.092 44.99 124.269 45.4694C125.678 46.036 127.305 46.8785 127.305 48.7532C127.305 50.2497 126.012 51.6302 123.964 51.6302C122.133 51.6302 121.057 50.7726 120.767 50.4967C120.636 50.3661 120.563 50.2933 120.694 50.0608Z" fill="white"/>
<path id="path1479" d="M19.8246 28.0497L14.4244 39.6296C14.1623 40.1914 14.2443 40.8254 14.5839 41.2945L33.4788 68.2753C33.6409 68.5146 33.8674 68.7143 34.1477 68.8445C34.9724 69.2292 35.953 68.8732 36.3377 68.0479L41.7609 56.4174C42.0215 55.8573 41.9411 55.2254 41.6043 54.7566L22.6578 27.7865C22.4987 27.5629 22.2807 27.3765 22.0147 27.2524C21.1896 26.8677 20.2092 27.225 19.8246 28.0497Z" fill="white"/>
<path id="path1481" d="M65.3233 0.00792091L7.66105 5.06154C7.10005 5.11693 6.58184 5.45783 6.32621 6.00559L0.155029 19.2404C-0.101681 19.7899 -0.0286214 20.4091 0.293267 20.8744L7.59851 31.3133C7.76 31.5523 7.98625 31.7517 8.26635 31.8823C9.0911 32.2666 10.0715 31.9103 10.4561 31.0853L15.8343 19.5522C16.0936 18.9959 16.6242 18.6523 17.1957 18.6058L60.232 14.8593C60.7989 14.8087 61.3238 14.4668 61.5816 13.9143L66.9761 2.34462C67.3611 1.5199 67.0035 0.539269 66.1791 0.154606C65.9025 0.0257009 65.6074 -0.0201168 65.3233 0.00792091Z" fill="white"/>
<path id="path1483" d="M59.626 33.9388L57.5776 29.4319H57.516L55.5082 33.9388H59.626ZM50.7753 38.3034L57.1474 24.5147C57.2086 24.3913 57.3112 24.2891 57.4955 24.2891H57.7003C57.9051 24.2891 57.9872 24.3913 58.0487 24.5147L64.3592 38.3034C64.482 38.5697 64.3182 38.8362 64.0112 38.8362H62.2287C61.921 38.8362 61.7777 38.7135 61.6341 38.4262L60.6306 36.2135H54.5044L53.5005 38.4262C53.4184 38.631 53.2338 38.8362 52.9062 38.8362H51.1238C50.8164 38.8362 50.6526 38.5697 50.7753 38.3034Z" fill="white"/>
<path id="path1485" d="M70.8124 36.335C73.4756 36.335 75.4225 34.3266 75.4225 31.6428C75.4225 28.9792 73.4756 26.9711 70.8124 26.9711H68.4767V36.335H70.8124ZM65.834 24.8816C65.834 24.6765 65.9974 24.4922 66.2026 24.4922H71.0582C75.0122 24.4922 78.2499 27.7093 78.2499 31.6428C78.2499 35.6176 75.0122 38.8345 71.0582 38.8345H66.2026C65.9974 38.8345 65.834 38.6502 65.834 38.4451V24.8816Z" fill="white"/>
<path id="path1487" d="M78.0822 25.0252C77.9591 24.7589 78.1229 24.4922 78.4299 24.4922H80.5204C80.7047 24.4922 80.8275 24.6153 80.8682 24.7175L84.8023 33.5278H84.9452L88.8794 24.7175C88.9201 24.6153 89.0432 24.4922 89.2275 24.4922H91.3177C91.6247 24.4922 91.7885 24.7589 91.6654 25.0252L85.3145 38.814C85.2533 38.9367 85.1504 39.039 84.9661 39.039H84.761C84.5767 39.039 84.4744 38.9367 84.4129 38.814L78.0822 25.0252Z" fill="white"/>
<path id="path1489" d="M98.8376 33.9388L96.7888 29.4319H96.7272L94.7191 33.9388H98.8376ZM89.9862 38.3034L96.3587 24.5147C96.4202 24.3913 96.5221 24.2891 96.7067 24.2891H96.9115C97.1167 24.2891 97.1981 24.3913 97.2603 24.5147L103.57 38.3034C103.693 38.5697 103.53 38.8362 103.222 38.8362H101.439C101.132 38.8362 100.989 38.7135 100.845 38.4262L99.8411 36.2135H93.7152L92.7117 38.4262C92.6296 38.631 92.4453 38.8362 92.1174 38.8362H90.335C90.0276 38.8362 89.8635 38.5697 89.9862 38.3034Z" fill="white"/>
<path id="path1491" d="M105.045 24.658C105.045 24.4528 105.229 24.2891 105.434 24.2891H105.947L114.47 33.3449H114.49V24.8833C114.49 24.6782 114.654 24.4939 114.879 24.4939H116.765C116.969 24.4939 117.154 24.6782 117.154 24.8833V38.672C117.154 38.8768 116.969 39.0407 116.765 39.0407H116.273L107.708 29.6364H107.688V38.4467C107.688 38.6519 107.524 38.8362 107.299 38.8362H105.434C105.229 38.8362 105.045 38.6519 105.045 38.4467L105.045 24.658Z" fill="white"/>
<path id="path1493" d="M122.254 26.951H119.12C118.895 26.951 118.73 26.7667 118.73 26.5615V24.8816C118.73 24.6765 118.895 24.4922 119.12 24.4922H128.073C128.298 24.4922 128.463 24.6765 128.463 24.8816V26.5615C128.463 26.7667 128.298 26.951 128.073 26.951H124.938V38.4451C124.938 38.6502 124.754 38.8345 124.549 38.8345H122.644C122.439 38.8345 122.254 38.6502 122.254 38.4451V26.951Z" fill="white"/>
<path id="path1495" d="M136.138 33.9388L134.09 29.4319H134.028L132.02 33.9388H136.138ZM127.287 38.3034L133.659 24.5147C133.721 24.3913 133.823 24.2891 134.007 24.2891H134.212C134.417 24.2891 134.499 24.3913 134.561 24.5147L140.871 38.3034C140.994 38.5697 140.83 38.8362 140.522 38.8362H138.74C138.433 38.8362 138.289 38.7135 138.146 38.4262L137.142 36.2135H131.016L130.012 38.4262C129.93 38.631 129.746 38.8362 129.418 38.8362H127.636C127.328 38.8362 127.164 38.5697 127.287 38.3034Z" fill="white"/>
<path id="path1497" d="M148.068 24.2891C149.912 24.2891 151.674 25.0061 153.068 26.1946C153.231 26.3587 153.252 26.6042 153.088 26.7683L151.818 28.0998C151.654 28.2639 151.469 28.2639 151.285 28.0998C150.404 27.3216 149.318 26.9116 148.191 26.9116C145.63 26.9116 143.602 29.104 143.602 31.665C143.602 34.2055 145.63 36.3566 148.212 36.3566C149.359 36.3566 150.24 36.0088 150.65 35.8444V34.1033H149.01C148.785 34.1033 148.621 33.9388 148.621 33.7343V32.1157C148.621 31.89 148.785 31.7266 149.01 31.7266H152.944C153.15 31.7266 153.313 31.9109 153.313 32.1157V37.3611C153.313 37.5245 153.231 37.6275 153.15 37.689C153.15 37.689 151.039 39.0204 148.068 39.0204C143.991 39.0204 140.713 35.7828 140.713 31.6852C140.713 27.5876 143.991 24.2891 148.068 24.2891Z" fill="white"/>
<path id="path1499" d="M156.064 24.8816C156.064 24.6765 156.229 24.4922 156.454 24.4922H164.793C165.018 24.4922 165.182 24.6765 165.182 24.8816V26.5615C165.182 26.7667 165.018 26.951 164.793 26.951H158.728V30.311H163.788C163.994 30.311 164.178 30.4953 164.178 30.7005V32.4005C164.178 32.6262 163.994 32.79 163.788 32.79H158.728V36.3757H164.793C165.018 36.3757 165.182 36.5601 165.182 36.7648V38.4451C165.182 38.6502 165.018 38.8345 164.793 38.8345H156.454C156.229 38.8345 156.064 38.6502 156.064 38.4451V24.8816Z" fill="white"/>
<path id="path1501" d="M50.9207 50.0608L51.4439 49.1598C51.5598 48.957 51.807 48.957 51.9376 49.0582C52.0104 49.1016 53.1873 49.9591 54.1317 49.9591C54.8874 49.9591 55.4539 49.4651 55.4539 48.8401C55.4539 48.0995 54.8292 47.5904 53.6086 47.097C52.2429 46.5447 50.8769 45.6725 50.8769 43.9581C50.8769 42.6646 51.836 41.168 54.1461 41.168C55.6283 41.168 56.7618 41.9239 57.0524 42.1418C57.1977 42.2293 57.2412 42.4762 57.1396 42.6211L56.5874 43.4494C56.4711 43.6237 56.2533 43.74 56.079 43.6237C55.9624 43.5515 54.8583 42.825 54.0592 42.825C53.2311 42.825 52.7804 43.3771 52.7804 43.8422C52.7804 44.5247 53.3183 44.99 54.4948 45.4694C55.9046 46.036 57.5318 46.8785 57.5318 48.7532C57.5318 50.2497 56.2386 51.6302 54.1898 51.6302C52.3592 51.6302 51.2838 50.7726 50.9932 50.4967C50.8622 50.3661 50.7898 50.2933 50.9207 50.0608Z" fill="white"/>
<path id="path1503" d="M63.6265 49.741C65.4572 49.741 66.9685 48.2444 66.9685 46.4138C66.9685 44.5828 65.4572 43.0575 63.6265 43.0575C61.7959 43.0575 60.2989 44.5828 60.2989 46.4138C60.2989 48.2444 61.7959 49.741 63.6265 49.741ZM63.6265 41.168C66.5329 41.168 68.8573 43.5075 68.8573 46.4138C68.8573 49.3195 66.5329 51.6302 63.6265 51.6302C60.7202 51.6302 58.4102 49.3195 58.4102 46.4138C58.4102 43.5075 60.7202 41.168 63.6265 41.168Z" fill="white"/>
<path id="path1505" d="M70.5508 41.5904C70.5508 41.4453 70.667 41.3145 70.8271 41.3145H72.1636C72.3093 41.3145 72.4402 41.4453 72.4402 41.5904V49.7418H76.1453C76.305 49.7418 76.4209 49.8724 76.4209 50.0181V51.2096C76.4209 51.3543 76.305 51.4853 76.1453 51.4853H70.8271C70.667 51.4853 70.5508 51.3543 70.5508 51.2096V41.5904Z" fill="white"/>
<path id="path1507" d="M77.2266 41.5904C77.2266 41.4453 77.3572 41.3145 77.5022 41.3145H78.8828C79.0422 41.3145 79.1588 41.4453 79.1588 41.5904V47.5333C79.1588 48.7686 80.0013 49.7418 81.2654 49.7418C82.5298 49.7418 83.387 48.7686 83.387 47.548V41.5904C83.387 41.4453 83.5032 41.3145 83.6629 41.3145H85.0433C85.1889 41.3145 85.3199 41.4453 85.3199 41.5904V47.6352C85.3199 49.8437 83.5614 51.6309 81.2654 51.6309C78.9841 51.6309 77.2266 49.8437 77.2266 47.6352V41.5904Z" fill="white"/>
<path id="path1509" d="M88.9441 43.0583H86.7209C86.5616 43.0583 86.4453 42.9272 86.4453 42.7816V41.5904C86.4453 41.4453 86.5616 41.3145 86.7209 41.3145H93.0714C93.2308 41.3145 93.347 41.4453 93.347 41.5904V42.7816C93.347 42.9272 93.2308 43.0583 93.0714 43.0583H90.8483V51.2096C90.8483 51.3543 90.7173 51.4853 90.5716 51.4853H89.2207C89.075 51.4853 88.9441 51.3543 88.9441 51.2096V43.0583Z" fill="white"/>
<path id="path1511" d="M94.5352 41.5904C94.5352 41.4453 94.6661 41.3145 94.8111 41.3145H96.1627C96.3077 41.3145 96.4383 41.4453 96.4383 41.5904V51.2096C96.4383 51.3543 96.3077 51.4853 96.1627 51.4853H94.8111C94.6661 51.4853 94.5352 51.3543 94.5352 51.2096V41.5904Z" fill="white"/>
<path id="path1513" d="M103.324 49.741C105.155 49.741 106.666 48.2444 106.666 46.4138C106.666 44.5828 105.155 43.0575 103.324 43.0575C101.493 43.0575 99.9969 44.5828 99.9969 46.4138C99.9969 48.2444 101.493 49.741 103.324 49.741ZM103.324 41.168C106.23 41.168 108.555 43.5075 108.555 46.4138C108.555 49.3195 106.23 51.6302 103.324 51.6302C100.418 51.6302 98.1074 49.3195 98.1074 46.4138C98.1074 43.5075 100.418 41.168 103.324 41.168Z" fill="white"/>
<path id="path1515" d="M110.25 41.4299C110.25 41.2843 110.381 41.168 110.527 41.168H110.89L116.934 47.5904H116.949V41.5896C116.949 41.4446 117.065 41.3137 117.225 41.3137H118.562C118.706 41.3137 118.837 41.4446 118.837 41.5896V51.3682C118.837 51.5139 118.706 51.6302 118.562 51.6302H118.212L112.139 44.9606H112.124V51.2089C112.124 51.3535 112.009 51.4846 111.849 51.4846H110.527C110.381 51.4846 110.25 51.3535 110.25 51.2089V41.4299Z" fill="white"/>
<path id="path1517" d="M120.694 50.0608L121.217 49.1598C121.333 48.957 121.58 48.957 121.711 49.0582C121.784 49.1016 122.961 49.9591 123.905 49.9591C124.661 49.9591 125.228 49.4651 125.228 48.8401C125.228 48.0995 124.603 47.5904 123.382 47.097C122.016 46.5447 120.651 45.6725 120.651 43.9581C120.651 42.6646 121.61 41.168 123.92 41.168C125.402 41.168 126.535 41.9239 126.826 42.1418C126.971 42.2293 127.015 42.4762 126.913 42.6211L126.361 43.4494C126.245 43.6237 126.027 43.74 125.852 43.6237C125.736 43.5515 124.632 42.825 123.833 42.825C123.005 42.825 122.554 43.3771 122.554 43.8422C122.554 44.5247 123.092 44.99 124.269 45.4694C125.678 46.036 127.305 46.8785 127.305 48.7532C127.305 50.2497 126.012 51.6302 123.964 51.6302C122.133 51.6302 121.057 50.7726 120.767 50.4967C120.636 50.3661 120.563 50.2933 120.694 50.0608Z" fill="white"/>
</g>
<defs>
<linearGradient id="paint0_linear_1016_973" x1="42.9392" y1="56.6265" x2="13.2237" y2="39.4707" gradientUnits="userSpaceOnUse">
<stop stop-color="#F0423E"/>
<stop offset="1" stop-color="#D23935"/>
</linearGradient>
<linearGradient id="paint1_linear_1016_973" x1="54.5869" y1="26.0414" x2="9.7092" y2="0.132079" gradientUnits="userSpaceOnUse">
<stop stop-color="#F0423E"/>
<stop offset="1" stop-color="#D23935"/>
</linearGradient>
<clipPath id="clip0_1016_973">
<rect width="165" height="69" fill="white"/>
</clipPath>
</defs>
</svg>
