<svg width="40" height="41" viewBox="0 0 40 41" fill="none" xmlns="http://www.w3.org/2000/svg">
<g id="Icons/Phone">
<path id="Vector" d="M32.5002 37.168H32.2877C7.72519 35.7555 4.23769 15.0305 3.75019 8.70547C3.71091 8.21369 3.76905 7.719 3.92128 7.24973C4.07351 6.78047 4.31685 6.34585 4.63733 5.97078C4.95782 5.59572 5.34917 5.28758 5.78895 5.06402C6.22873 4.84046 6.7083 4.70587 7.20019 4.66797H14.0877C14.5884 4.66749 15.0777 4.81736 15.4922 5.09817C15.9068 5.37899 16.2274 5.77781 16.4127 6.24297L18.3127 10.918C18.4956 11.3724 18.541 11.8706 18.4432 12.3506C18.3455 12.8306 18.1088 13.2713 17.7627 13.618L15.1002 16.3055C15.5161 18.6689 16.6479 20.8476 18.3426 22.5467C20.0372 24.2458 22.2129 25.3833 24.5752 25.8055L27.2877 23.118C27.6396 22.7757 28.0844 22.5445 28.5668 22.4534C29.0492 22.3623 29.5477 22.4151 30.0002 22.6055L34.7127 24.493C35.1708 24.6841 35.5617 25.0072 35.8355 25.4213C36.1093 25.8354 36.2537 26.3216 36.2502 26.818V33.418C36.2502 34.4125 35.8551 35.3664 35.1518 36.0696C34.4486 36.7729 33.4947 37.168 32.5002 37.168ZM7.50019 7.16797C7.16867 7.16797 6.85072 7.29967 6.6163 7.53409C6.38188 7.76851 6.25019 8.08645 6.25019 8.41797V8.51797C6.82519 15.918 10.5127 33.418 32.4252 34.668C32.5894 34.6781 32.754 34.6557 32.9096 34.6021C33.0651 34.5485 33.2086 34.4647 33.3317 34.3556C33.4548 34.2464 33.5551 34.114 33.6269 33.966C33.6987 33.818 33.7406 33.6572 33.7502 33.493V26.818L29.0377 24.9305L25.4502 28.493L24.8502 28.418C13.9752 27.0555 12.5002 16.1805 12.5002 16.068L12.4252 15.468L15.9752 11.8805L14.1002 7.16797H7.50019Z" fill="white"/>
</g>
</svg>
