<svg width="96" height="40" viewBox="0 0 96 40" fill="none" xmlns="http://www.w3.org/2000/svg">
<g clip-path="url(#clip0_974_544)">
<mask id="mask0_974_544" style="mask-type:luminance" maskUnits="userSpaceOnUse" x="8" y="15" width="17" height="25">
<path d="M11.5215 16.261L8.38297 22.974C8.23067 23.2997 8.27832 23.6672 8.47565 23.9391L19.4569 39.5802C19.5511 39.7189 19.6827 39.8347 19.8457 39.9102C20.3249 40.1332 20.8949 39.9268 21.1184 39.4484L24.2703 32.706C24.4217 32.3814 24.375 32.015 24.1793 31.7433L13.168 16.1084C13.0756 15.9788 12.9489 15.8707 12.7942 15.7988C12.3148 15.5758 11.7449 15.7829 11.5215 16.261Z" fill="white"/>
</mask>
<g mask="url(#mask0_974_544)">
<path d="M11.5215 16.261L8.38297 22.974C8.23067 23.2997 8.27832 23.6672 8.47565 23.9391L19.4569 39.5802C19.5511 39.7189 19.6827 39.8347 19.8457 39.9102C20.3249 40.1332 20.8949 39.9268 21.1184 39.4484L24.2703 32.706C24.4217 32.3814 24.375 32.015 24.1793 31.7433L13.168 16.1084C13.0756 15.9788 12.9489 15.8707 12.7942 15.7988C12.3148 15.5758 11.7449 15.7829 11.5215 16.261Z" fill="url(#paint0_linear_974_544)"/>
</g>
<mask id="mask1_974_544" style="mask-type:luminance" maskUnits="userSpaceOnUse" x="0" y="-1" width="40" height="20">
<path d="M37.9642 0.00419807L4.4524 2.93383C4.12637 2.96594 3.82519 3.16356 3.67663 3.48111L0.0900986 11.1535C-0.0590942 11.472 -0.016634 11.831 0.170439 12.1007L4.41606 18.1523C4.50991 18.2908 4.6414 18.4064 4.80419 18.4821C5.28351 18.7049 5.85328 18.4983 6.07683 18.0201L9.20251 11.3342C9.35317 11.0117 9.66156 10.8125 9.99372 10.7856L35.0053 8.61371C35.3348 8.58438 35.6398 8.38616 35.7896 8.06584L38.9248 1.35881C39.1485 0.880711 38.9407 0.312227 38.4616 0.0892334C38.3008 0.0145054 38.1293 -0.0120564 37.9642 0.00419807Z" fill="white"/>
</mask>
<g mask="url(#mask1_974_544)">
<path d="M37.9642 0.00419807L4.4524 2.93383C4.12637 2.96594 3.82519 3.16356 3.67663 3.48111L0.0900986 11.1535C-0.0590942 11.472 -0.016634 11.831 0.170439 12.1007L4.41606 18.1523C4.50991 18.2908 4.6414 18.4064 4.80419 18.4821C5.28351 18.7049 5.85328 18.4983 6.07683 18.0201L9.20251 11.3342C9.35317 11.0117 9.66156 10.8125 9.99372 10.7856L35.0053 8.61371C35.3348 8.58438 35.6398 8.38616 35.7896 8.06584L38.9248 1.35881C39.1485 0.880711 38.9407 0.312227 38.4616 0.0892334C38.3008 0.0145054 38.1293 -0.0120564 37.9642 0.00419807Z" fill="url(#paint1_linear_974_544)"/>
</g>
<path d="M34.652 19.6741L33.4615 17.0614H33.4257L32.2588 19.6741H34.652ZM29.5082 22.2043L33.2115 14.2109C33.247 14.1393 33.3067 14.0801 33.4138 14.0801H33.5328C33.6518 14.0801 33.6995 14.1393 33.7353 14.2109L37.4028 22.2043C37.4741 22.3587 37.379 22.5132 37.2005 22.5132H36.1646C35.9858 22.5132 35.9025 22.442 35.819 22.2755L35.2358 20.9928H31.6754L31.092 22.2755C31.0443 22.3943 30.937 22.5132 30.7466 22.5132H29.7107C29.532 22.5132 29.4368 22.3587 29.5082 22.2043Z" fill="#343333"/>
<path d="M41.155 21.0641C42.7028 21.0641 43.8343 19.8998 43.8343 18.344C43.8343 16.7999 42.7028 15.6358 41.155 15.6358H39.7976V21.0641H41.155ZM38.2617 14.4245C38.2617 14.3056 38.3567 14.1987 38.4759 14.1987H41.2979C43.5959 14.1987 45.4775 16.0637 45.4775 18.344C45.4775 20.6483 43.5959 22.5131 41.2979 22.5131H38.4759C38.3567 22.5131 38.2617 22.4063 38.2617 22.2874V14.4245Z" fill="#343333"/>
<path d="M45.3794 14.5077C45.3079 14.3533 45.403 14.1987 45.5815 14.1987H46.7964C46.9035 14.1987 46.9749 14.2701 46.9985 14.3294L49.285 19.4368H49.368L51.6545 14.3294C51.6781 14.2701 51.7496 14.1987 51.8568 14.1987H53.0715C53.25 14.1987 53.3451 14.3533 53.2736 14.5077L49.5826 22.5012C49.5471 22.5724 49.4873 22.6317 49.3802 22.6317H49.2609C49.1538 22.6317 49.0944 22.5724 49.0586 22.5012L45.3794 14.5077Z" fill="#343333"/>
<path d="M57.4414 19.6741L56.2507 17.0614H56.2149L55.0479 19.6741H57.4414ZM52.2972 22.2043L56.0007 14.2109C56.0365 14.1393 56.0957 14.0801 56.203 14.0801H56.322C56.4413 14.0801 56.4886 14.1393 56.5247 14.2109L60.192 22.2043C60.2634 22.3587 60.1684 22.5132 59.9893 22.5132H58.9534C58.775 22.5132 58.6915 22.442 58.6081 22.2755L58.0246 20.9928H54.4644L53.8812 22.2755C53.8335 22.3943 53.7264 22.5132 53.5358 22.5132H52.4999C52.3213 22.5132 52.2259 22.3587 52.2972 22.2043Z" fill="#343333"/>
<path d="M61.0508 14.294C61.0508 14.175 61.1579 14.0801 61.2771 14.0801H61.5748L66.5284 19.3298H66.5399V14.4246C66.5399 14.3056 66.6355 14.1988 66.7663 14.1988H67.862C67.981 14.1988 68.0881 14.3056 68.0881 14.4246V22.418C68.0881 22.5367 67.981 22.6318 67.862 22.6318H67.5762L62.5986 17.18H62.5871V22.2874C62.5871 22.4064 62.4915 22.5132 62.3607 22.5132H61.2771C61.1579 22.5132 61.0508 22.4064 61.0508 22.2874L61.0508 14.294Z" fill="#343333"/>
<path d="M71.0519 15.6241H69.23C69.0993 15.6241 69.0039 15.5173 69.0039 15.3983V14.4245C69.0039 14.3056 69.0993 14.1987 69.23 14.1987H74.4336C74.5644 14.1987 74.66 14.3056 74.66 14.4245V15.3983C74.66 15.5173 74.5644 15.6241 74.4336 15.6241H72.6118V22.2874C72.6118 22.4063 72.5047 22.5131 72.3855 22.5131H71.2782C71.159 22.5131 71.0519 22.4063 71.0519 22.2874V15.6241Z" fill="#343333"/>
<path d="M79.1191 19.6741L77.9284 17.0614H77.8927L76.7256 19.6741H79.1191ZM73.975 22.2043L77.6784 14.2109C77.714 14.1393 77.7734 14.0801 77.8805 14.0801H77.9998C78.119 14.0801 78.1663 14.1393 78.2025 14.2109L81.8698 22.2043C81.9411 22.3587 81.8459 22.5132 81.6671 22.5132H80.6312C80.4527 22.5132 80.3693 22.442 80.2858 22.2755L79.7024 20.9928H76.1422L75.5589 22.2755C75.5112 22.3943 75.4039 22.5132 75.2134 22.5132H74.1776C73.999 22.5132 73.9036 22.3587 73.975 22.2043Z" fill="#343333"/>
<path d="M86.0519 14.0801C87.1236 14.0801 88.1478 14.4957 88.9576 15.1847C89.0526 15.2799 89.0647 15.4222 88.9695 15.5173L88.2313 16.2892C88.1359 16.3843 88.0288 16.3843 87.9217 16.2892C87.4096 15.8381 86.7786 15.6004 86.1235 15.6004C84.6351 15.6004 83.4563 16.8714 83.4563 18.356C83.4563 19.8287 84.6351 21.0758 86.1354 21.0758C86.8023 21.0758 87.3142 20.8741 87.5524 20.7788V19.7695H86.5996C86.4688 19.7695 86.3735 19.6741 86.3735 19.5556V18.6172C86.3735 18.4864 86.4688 18.3917 86.5996 18.3917H88.886C89.0053 18.3917 89.1003 18.4985 89.1003 18.6172V21.6581C89.1003 21.7528 89.0526 21.8125 89.0053 21.8482C89.0053 21.8482 87.7788 22.62 86.0519 22.62C83.6826 22.62 81.7773 20.7431 81.7773 18.3677C81.7773 15.9923 83.6826 14.0801 86.0519 14.0801Z" fill="#343333"/>
<path d="M90.6992 14.4245C90.6992 14.3056 90.7948 14.1987 90.9256 14.1987H95.7719C95.9028 14.1987 95.9982 14.3056 95.9982 14.4245V15.3983C95.9982 15.5173 95.9028 15.6241 95.7719 15.6241H92.247V17.572H95.1882C95.3075 17.572 95.4146 17.6788 95.4146 17.7977V18.7833C95.4146 18.9141 95.3075 19.009 95.1882 19.009H92.247V21.0877H95.7719C95.9028 21.0877 95.9982 21.1946 95.9982 21.3133V22.2874C95.9982 22.4063 95.9028 22.5131 95.7719 22.5131H90.9256C90.7948 22.5131 90.6992 22.4063 90.6992 22.2874V14.4245Z" fill="#343333"/>
<path d="M29.5949 29.0215L29.8989 28.4991C29.9663 28.3816 30.1099 28.3816 30.1859 28.4403C30.2282 28.4654 30.9122 28.9625 31.461 28.9625C31.9002 28.9625 32.2295 28.6761 32.2295 28.3138C32.2295 27.8845 31.8664 27.5893 31.157 27.3033C30.3633 26.9832 29.5694 26.4775 29.5694 25.4837C29.5694 24.7338 30.1268 23.8662 31.4694 23.8662C32.3308 23.8662 32.9896 24.3044 33.1585 24.4308C33.2429 24.4815 33.2682 24.6246 33.2091 24.7086L32.8882 25.1888C32.8206 25.2898 32.6941 25.3572 32.5927 25.2898C32.525 25.248 31.8833 24.8268 31.4189 24.8268C30.9376 24.8268 30.6757 25.1469 30.6757 25.4165C30.6757 25.8121 30.9883 26.0819 31.6721 26.3598C32.4914 26.6882 33.4371 27.1767 33.4371 28.2634C33.4371 29.131 32.6855 29.9312 31.4948 29.9312C30.4309 29.9312 29.8059 29.4341 29.637 29.2742C29.5609 29.1985 29.5188 29.1563 29.5949 29.0215Z" fill="#343333"/>
<path d="M36.9769 28.8361C38.0409 28.8361 38.9192 27.9685 38.9192 26.9073C38.9192 25.8458 38.0409 24.9616 36.9769 24.9616C35.913 24.9616 35.043 25.8458 35.043 26.9073C35.043 27.9685 35.913 28.8361 36.9769 28.8361ZM36.9769 23.8662C38.666 23.8662 40.0169 25.2224 40.0169 26.9073C40.0169 28.5917 38.666 29.9312 36.9769 29.9312C35.2878 29.9312 33.9453 28.5917 33.9453 26.9073C33.9453 25.2224 35.2878 23.8662 36.9769 23.8662Z" fill="#343333"/>
<path d="M41.002 24.1106C41.002 24.0266 41.0695 23.9507 41.1625 23.9507H41.9393C42.024 23.9507 42.1001 24.0266 42.1001 24.1106V28.8361H44.2534C44.3462 28.8361 44.4135 28.9118 44.4135 28.9963V29.687C44.4135 29.7709 44.3462 29.8468 44.2534 29.8468H41.1625C41.0695 29.8468 41.002 29.7709 41.002 29.687V24.1106Z" fill="#343333"/>
<path d="M44.8828 24.1106C44.8828 24.0266 44.9587 23.9507 45.043 23.9507H45.8454C45.938 23.9507 46.0058 24.0266 46.0058 24.1106V27.5558C46.0058 28.272 46.4954 28.8361 47.2301 28.8361C47.9649 28.8361 48.4631 28.272 48.4631 27.5643V24.1106C48.4631 24.0266 48.5307 23.9507 48.6235 23.9507H49.4257C49.5103 23.9507 49.5864 24.0266 49.5864 24.1106V27.6149C49.5864 28.8952 48.5644 29.9312 47.2301 29.9312C45.9042 29.9312 44.8828 28.8952 44.8828 27.6149V24.1106Z" fill="#343333"/>
<path d="M51.6925 24.9616H50.4004C50.3078 24.9616 50.2402 24.8856 50.2402 24.8012V24.1106C50.2402 24.0266 50.3078 23.9507 50.4004 23.9507H54.0912C54.1838 23.9507 54.2513 24.0266 54.2513 24.1106V24.8012C54.2513 24.8856 54.1838 24.9616 54.0912 24.9616H52.7991V29.687C52.7991 29.7709 52.723 29.8468 52.6384 29.8468H51.8532C51.7686 29.8468 51.6925 29.7709 51.6925 29.687V24.9616Z" fill="#343333"/>
<path d="M54.9414 24.1106C54.9414 24.0266 55.0175 23.9507 55.1018 23.9507H55.8873C55.9716 23.9507 56.0475 24.0266 56.0475 24.1106V29.687C56.0475 29.7709 55.9716 29.8468 55.8873 29.8468H55.1018C55.0175 29.8468 54.9414 29.7709 54.9414 29.687V24.1106Z" fill="#343333"/>
<path d="M60.0492 28.8361C61.1135 28.8361 61.9917 27.9685 61.9917 26.9073C61.9917 25.8458 61.1135 24.9616 60.0492 24.9616C58.9855 24.9616 58.1157 25.8458 58.1157 26.9073C58.1157 27.9685 58.9855 28.8361 60.0492 28.8361ZM60.0492 23.8662C61.7383 23.8662 63.0894 25.2224 63.0894 26.9073C63.0894 28.5917 61.7383 29.9312 60.0492 29.9312C58.3605 29.9312 57.0176 28.5917 57.0176 26.9073C57.0176 25.2224 58.3605 23.8662 60.0492 23.8662Z" fill="#343333"/>
<path d="M64.0742 24.018C64.0742 23.9336 64.1503 23.8662 64.235 23.8662H64.446L67.9589 27.5893H67.9675V24.1107C67.9675 24.0266 68.035 23.9507 68.1276 23.9507H68.9048C68.9889 23.9507 69.065 24.0266 69.065 24.1107V29.7794C69.065 29.8639 68.9889 29.9312 68.9048 29.9312H68.7017L65.1721 26.0649H65.1636V29.687C65.1636 29.7709 65.0962 29.8468 65.0034 29.8468H64.235C64.1503 29.8468 64.0742 29.7709 64.0742 29.687V24.018Z" fill="#343333"/>
<path d="M70.1436 29.0215L70.4475 28.4991C70.515 28.3816 70.6587 28.3816 70.7348 28.4403C70.777 28.4654 71.4609 28.9625 72.01 28.9625C72.449 28.9625 72.7786 28.6761 72.7786 28.3138C72.7786 27.8845 72.4154 27.5893 71.7058 27.3033C70.9121 26.9832 70.1184 26.4775 70.1184 25.4837C70.1184 24.7338 70.6758 23.8662 72.0183 23.8662C72.8798 23.8662 73.5385 24.3044 73.7074 24.4308C73.7919 24.4815 73.8171 24.6246 73.7577 24.7086L73.4372 25.1888C73.3696 25.2898 73.2428 25.3572 73.1415 25.2898C73.0739 25.248 72.4323 24.8268 71.9679 24.8268C71.4866 24.8268 71.2245 25.1469 71.2245 25.4165C71.2245 25.8121 71.537 26.0819 72.2212 26.3598C73.0401 26.6882 73.986 27.1767 73.986 28.2634C73.986 29.131 73.2343 29.9312 72.0438 29.9312C70.9796 29.9312 70.3547 29.4341 70.186 29.2742C70.1099 29.1985 70.0675 29.1563 70.1436 29.0215Z" fill="#343333"/>
<path d="M11.5215 16.2609L8.38297 22.9739C8.23067 23.2996 8.27832 23.6671 8.47565 23.939L19.4569 39.5801C19.5511 39.7188 19.6827 39.8346 19.8457 39.9101C20.3249 40.133 20.8949 39.9267 21.1184 39.4483L24.2703 32.7059C24.4217 32.3813 24.375 32.0149 24.1793 31.7432L13.168 16.1083C13.0756 15.9787 12.9489 15.8706 12.7942 15.7987C12.3148 15.5757 11.7449 15.7828 11.5215 16.2609Z" fill="#EB4338"/>
<path d="M37.9642 0.00410355L4.4524 2.93374C4.12637 2.96585 3.82519 3.16347 3.67663 3.48101L0.0900986 11.1534C-0.0590942 11.4719 -0.016634 11.8309 0.170439 12.1006L4.41606 18.1522C4.50991 18.2907 4.6414 18.4063 4.80419 18.482C5.28351 18.7048 5.85327 18.4983 6.07683 18.02L9.2025 11.3341C9.35317 11.0116 9.66156 10.8124 9.99371 10.7855L35.0053 8.61362C35.3348 8.58428 35.6398 8.38607 35.7896 8.06575L38.9248 1.35871C39.1485 0.880615 38.9407 0.312131 38.4616 0.0891382C38.3008 0.0144108 38.1293 -0.0121502 37.9642 0.00410355Z" fill="#EB4338"/>
<path d="M34.652 19.6741L33.4615 17.0614H33.4257L32.2588 19.6741H34.652ZM29.5082 22.2043L33.2115 14.2109C33.247 14.1393 33.3067 14.0801 33.4138 14.0801H33.5328C33.6518 14.0801 33.6995 14.1393 33.7353 14.2109L37.4028 22.2043C37.4741 22.3587 37.379 22.5132 37.2005 22.5132H36.1646C35.9858 22.5132 35.9025 22.442 35.819 22.2755L35.2358 20.9928H31.6754L31.092 22.2755C31.0443 22.3943 30.937 22.5132 30.7466 22.5132H29.7107C29.532 22.5132 29.4368 22.3587 29.5082 22.2043Z" fill="#343333"/>
<path d="M41.155 21.0641C42.7028 21.0641 43.8343 19.8998 43.8343 18.344C43.8343 16.7999 42.7028 15.6358 41.155 15.6358H39.7976V21.0641H41.155ZM38.2617 14.4245C38.2617 14.3056 38.3567 14.1987 38.4759 14.1987H41.2979C43.5959 14.1987 45.4775 16.0637 45.4775 18.344C45.4775 20.6483 43.5959 22.5131 41.2979 22.5131H38.4759C38.3567 22.5131 38.2617 22.4063 38.2617 22.2874V14.4245Z" fill="#343333"/>
<path d="M45.3794 14.5077C45.3079 14.3533 45.403 14.1987 45.5815 14.1987H46.7964C46.9035 14.1987 46.9749 14.2701 46.9985 14.3294L49.285 19.4368H49.368L51.6545 14.3294C51.6781 14.2701 51.7496 14.1987 51.8568 14.1987H53.0715C53.25 14.1987 53.3451 14.3533 53.2736 14.5077L49.5826 22.5012C49.5471 22.5724 49.4873 22.6317 49.3802 22.6317H49.2609C49.1538 22.6317 49.0944 22.5724 49.0586 22.5012L45.3794 14.5077Z" fill="#343333"/>
<path d="M57.4414 19.6741L56.2507 17.0614H56.2149L55.0479 19.6741H57.4414ZM52.2972 22.2043L56.0007 14.2109C56.0365 14.1393 56.0957 14.0801 56.203 14.0801H56.322C56.4413 14.0801 56.4886 14.1393 56.5247 14.2109L60.192 22.2043C60.2634 22.3587 60.1684 22.5132 59.9893 22.5132H58.9534C58.775 22.5132 58.6915 22.442 58.6081 22.2755L58.0246 20.9928H54.4644L53.8812 22.2755C53.8335 22.3943 53.7264 22.5132 53.5358 22.5132H52.4999C52.3213 22.5132 52.2259 22.3587 52.2972 22.2043Z" fill="#343333"/>
<path d="M61.0508 14.294C61.0508 14.175 61.1579 14.0801 61.2771 14.0801H61.5748L66.5284 19.3298H66.5399V14.4246C66.5399 14.3056 66.6355 14.1988 66.7663 14.1988H67.862C67.981 14.1988 68.0881 14.3056 68.0881 14.4246V22.418C68.0881 22.5367 67.981 22.6318 67.862 22.6318H67.5762L62.5986 17.18H62.5871V22.2874C62.5871 22.4064 62.4915 22.5132 62.3607 22.5132H61.2771C61.1579 22.5132 61.0508 22.4064 61.0508 22.2874L61.0508 14.294Z" fill="#343333"/>
<path d="M71.0519 15.6241H69.23C69.0993 15.6241 69.0039 15.5173 69.0039 15.3983V14.4245C69.0039 14.3056 69.0993 14.1987 69.23 14.1987H74.4336C74.5644 14.1987 74.66 14.3056 74.66 14.4245V15.3983C74.66 15.5173 74.5644 15.6241 74.4336 15.6241H72.6118V22.2874C72.6118 22.4063 72.5047 22.5131 72.3855 22.5131H71.2782C71.159 22.5131 71.0519 22.4063 71.0519 22.2874V15.6241Z" fill="#343333"/>
<path d="M79.1191 19.6741L77.9284 17.0614H77.8927L76.7256 19.6741H79.1191ZM73.975 22.2043L77.6784 14.2109C77.714 14.1393 77.7734 14.0801 77.8805 14.0801H77.9998C78.119 14.0801 78.1663 14.1393 78.2025 14.2109L81.8698 22.2043C81.9411 22.3587 81.8459 22.5132 81.6671 22.5132H80.6312C80.4527 22.5132 80.3693 22.442 80.2858 22.2755L79.7024 20.9928H76.1422L75.5589 22.2755C75.5112 22.3943 75.4039 22.5132 75.2134 22.5132H74.1776C73.999 22.5132 73.9036 22.3587 73.975 22.2043Z" fill="#343333"/>
<path d="M86.0519 14.0801C87.1236 14.0801 88.1478 14.4957 88.9576 15.1847C89.0526 15.2799 89.0647 15.4222 88.9695 15.5173L88.2313 16.2892C88.1359 16.3843 88.0288 16.3843 87.9217 16.2892C87.4096 15.8381 86.7786 15.6004 86.1235 15.6004C84.6351 15.6004 83.4563 16.8714 83.4563 18.356C83.4563 19.8287 84.6351 21.0758 86.1354 21.0758C86.8023 21.0758 87.3142 20.8741 87.5524 20.7788V19.7695H86.5996C86.4688 19.7695 86.3735 19.6741 86.3735 19.5556V18.6172C86.3735 18.4864 86.4688 18.3917 86.5996 18.3917H88.886C89.0053 18.3917 89.1003 18.4985 89.1003 18.6172V21.6581C89.1003 21.7528 89.0526 21.8125 89.0053 21.8482C89.0053 21.8482 87.7788 22.62 86.0519 22.62C83.6826 22.62 81.7773 20.7431 81.7773 18.3677C81.7773 15.9923 83.6826 14.0801 86.0519 14.0801Z" fill="#343333"/>
<path d="M90.6992 14.4245C90.6992 14.3056 90.7948 14.1987 90.9256 14.1987H95.7719C95.9028 14.1987 95.9982 14.3056 95.9982 14.4245V15.3983C95.9982 15.5173 95.9028 15.6241 95.7719 15.6241H92.247V17.572H95.1882C95.3075 17.572 95.4146 17.6788 95.4146 17.7977V18.7833C95.4146 18.9141 95.3075 19.009 95.1882 19.009H92.247V21.0877H95.7719C95.9028 21.0877 95.9982 21.1946 95.9982 21.3133V22.2874C95.9982 22.4063 95.9028 22.5131 95.7719 22.5131H90.9256C90.7948 22.5131 90.6992 22.4063 90.6992 22.2874V14.4245Z" fill="#343333"/>
<path d="M29.5949 29.0215L29.8989 28.4991C29.9663 28.3816 30.1099 28.3816 30.1859 28.4403C30.2282 28.4654 30.9122 28.9625 31.461 28.9625C31.9002 28.9625 32.2295 28.6761 32.2295 28.3138C32.2295 27.8845 31.8664 27.5893 31.157 27.3033C30.3633 26.9832 29.5694 26.4775 29.5694 25.4837C29.5694 24.7338 30.1268 23.8662 31.4694 23.8662C32.3308 23.8662 32.9896 24.3044 33.1585 24.4308C33.2429 24.4815 33.2682 24.6246 33.2091 24.7086L32.8882 25.1888C32.8206 25.2898 32.6941 25.3572 32.5927 25.2898C32.525 25.248 31.8833 24.8268 31.4189 24.8268C30.9376 24.8268 30.6757 25.1469 30.6757 25.4165C30.6757 25.8121 30.9883 26.0819 31.6721 26.3598C32.4914 26.6882 33.4371 27.1767 33.4371 28.2634C33.4371 29.131 32.6855 29.9312 31.4948 29.9312C30.4309 29.9312 29.8059 29.4341 29.637 29.2742C29.5609 29.1985 29.5188 29.1563 29.5949 29.0215Z" fill="#343333"/>
<path d="M36.9769 28.8361C38.0409 28.8361 38.9192 27.9685 38.9192 26.9073C38.9192 25.8458 38.0409 24.9616 36.9769 24.9616C35.913 24.9616 35.043 25.8458 35.043 26.9073C35.043 27.9685 35.913 28.8361 36.9769 28.8361ZM36.9769 23.8662C38.666 23.8662 40.0169 25.2224 40.0169 26.9073C40.0169 28.5917 38.666 29.9312 36.9769 29.9312C35.2878 29.9312 33.9453 28.5917 33.9453 26.9073C33.9453 25.2224 35.2878 23.8662 36.9769 23.8662Z" fill="#343333"/>
<path d="M41.002 24.1106C41.002 24.0266 41.0695 23.9507 41.1625 23.9507H41.9393C42.024 23.9507 42.1001 24.0266 42.1001 24.1106V28.8361H44.2534C44.3462 28.8361 44.4135 28.9118 44.4135 28.9963V29.687C44.4135 29.7709 44.3462 29.8468 44.2534 29.8468H41.1625C41.0695 29.8468 41.002 29.7709 41.002 29.687V24.1106Z" fill="#343333"/>
<path d="M44.8828 24.1106C44.8828 24.0266 44.9587 23.9507 45.043 23.9507H45.8454C45.938 23.9507 46.0058 24.0266 46.0058 24.1106V27.5558C46.0058 28.272 46.4954 28.8361 47.2301 28.8361C47.9649 28.8361 48.4631 28.272 48.4631 27.5643V24.1106C48.4631 24.0266 48.5307 23.9507 48.6235 23.9507H49.4257C49.5103 23.9507 49.5864 24.0266 49.5864 24.1106V27.6149C49.5864 28.8952 48.5644 29.9312 47.2301 29.9312C45.9042 29.9312 44.8828 28.8952 44.8828 27.6149V24.1106Z" fill="#343333"/>
<path d="M51.6925 24.9616H50.4004C50.3078 24.9616 50.2402 24.8856 50.2402 24.8012V24.1106C50.2402 24.0266 50.3078 23.9507 50.4004 23.9507H54.0912C54.1838 23.9507 54.2513 24.0266 54.2513 24.1106V24.8012C54.2513 24.8856 54.1838 24.9616 54.0912 24.9616H52.7991V29.687C52.7991 29.7709 52.723 29.8468 52.6384 29.8468H51.8532C51.7686 29.8468 51.6925 29.7709 51.6925 29.687V24.9616Z" fill="#343333"/>
<path d="M54.9414 24.1106C54.9414 24.0266 55.0175 23.9507 55.1018 23.9507H55.8873C55.9716 23.9507 56.0475 24.0266 56.0475 24.1106V29.687C56.0475 29.7709 55.9716 29.8468 55.8873 29.8468H55.1018C55.0175 29.8468 54.9414 29.7709 54.9414 29.687V24.1106Z" fill="#343333"/>
<path d="M60.0492 28.8361C61.1135 28.8361 61.9917 27.9685 61.9917 26.9073C61.9917 25.8458 61.1135 24.9616 60.0492 24.9616C58.9855 24.9616 58.1157 25.8458 58.1157 26.9073C58.1157 27.9685 58.9855 28.8361 60.0492 28.8361ZM60.0492 23.8662C61.7383 23.8662 63.0894 25.2224 63.0894 26.9073C63.0894 28.5917 61.7383 29.9312 60.0492 29.9312C58.3605 29.9312 57.0176 28.5917 57.0176 26.9073C57.0176 25.2224 58.3605 23.8662 60.0492 23.8662Z" fill="#343333"/>
<path d="M64.0742 24.018C64.0742 23.9336 64.1503 23.8662 64.235 23.8662H64.446L67.9589 27.5893H67.9675V24.1107C67.9675 24.0266 68.035 23.9507 68.1276 23.9507H68.9048C68.9889 23.9507 69.065 24.0266 69.065 24.1107V29.7794C69.065 29.8639 68.9889 29.9312 68.9048 29.9312H68.7017L65.1721 26.0649H65.1636V29.687C65.1636 29.7709 65.0962 29.8468 65.0034 29.8468H64.235C64.1503 29.8468 64.0742 29.7709 64.0742 29.687V24.018Z" fill="#343333"/>
<path d="M70.1436 29.0215L70.4475 28.4991C70.515 28.3816 70.6587 28.3816 70.7348 28.4403C70.777 28.4654 71.4609 28.9625 72.01 28.9625C72.449 28.9625 72.7786 28.6761 72.7786 28.3138C72.7786 27.8845 72.4154 27.5893 71.7058 27.3033C70.9121 26.9832 70.1184 26.4775 70.1184 25.4837C70.1184 24.7338 70.6758 23.8662 72.0183 23.8662C72.8798 23.8662 73.5385 24.3044 73.7074 24.4308C73.7919 24.4815 73.8171 24.6246 73.7577 24.7086L73.4372 25.1888C73.3696 25.2898 73.2428 25.3572 73.1415 25.2898C73.0739 25.248 72.4323 24.8268 71.9679 24.8268C71.4866 24.8268 71.2245 25.1469 71.2245 25.4165C71.2245 25.8121 71.537 26.0819 72.2212 26.3598C73.0401 26.6882 73.986 27.1767 73.986 28.2634C73.986 29.131 73.2343 29.9312 72.0438 29.9312C70.9796 29.9312 70.3547 29.4341 70.186 29.2742C70.1099 29.1985 70.0675 29.1563 70.1436 29.0215Z" fill="#343333"/>
</g>
<defs>
<linearGradient id="paint0_linear_974_544" x1="24.955" y1="32.8269" x2="7.70694" y2="22.8439" gradientUnits="userSpaceOnUse">
<stop stop-color="#F0423E"/>
<stop offset="1" stop-color="#D23935"/>
</linearGradient>
<linearGradient id="paint1_linear_974_544" x1="31.7245" y1="15.0972" x2="5.67567" y2="0.0203415" gradientUnits="userSpaceOnUse">
<stop stop-color="#F0423E"/>
<stop offset="1" stop-color="#D23935"/>
</linearGradient>
<clipPath id="clip0_974_544">
<rect width="96" height="40" fill="white"/>
</clipPath>
</defs>
</svg>
